<?xml version="1.0" standalone="no"?>
<!DOCTYPE svg PUBLIC "-//W3C//DTD SVG 1.1//EN" "http://www.w3.org/Graphics/SVG/1.1/DTD/svg11.dtd" >
<svg xmlns="http://www.w3.org/2000/svg" xmlns:xlink="http://www.w3.org/1999/xlink" version="1.1">
<metadata>
Created by FontForge 20170731 at Thu May 12 01:36:08 2016
 By Aleksey,,,
(c) 2015 Apple Inc. All rights reserved.
</metadata>
<defs>
<font id="SFUIDisplay-Ultralight" horiz-adv-x="1661" >
  <font-face 
    font-family="SF UI Display"
    font-weight="100"
    font-stretch="normal"
    units-per-em="2048"
    panose-1="0 0 2 0 0 0 0 0 0 0"
    ascent="1638"
    descent="-410"
    x-height="1076"
    cap-height="1443"
    bbox="-467 -494 2396 2138"
    underline-thickness="44"
    underline-position="-457"
    unicode-range="U+0020-1F189"
  />
<missing-glyph horiz-adv-x="2048" 
d="M100 -494v355h1848v-355h-1848zM100 -76v354h1848v-354h-1848zM100 342v354h1848v-354h-1848zM100 760v354h1848v-354h-1848zM100 1178v354h1848v-354h-1848zM100 1595v355h1848v-355h-1848z" />
    <glyph glyph-name=".notdef" horiz-adv-x="2048" 
d="M100 -494v355h1848v-355h-1848zM100 -76v354h1848v-354h-1848zM100 342v354h1848v-354h-1848zM100 760v354h1848v-354h-1848zM100 1178v354h1848v-354h-1848zM100 1595v355h1848v-355h-1848z" />
    <glyph glyph-name=".null" horiz-adv-x="0" 
 />
    <glyph glyph-name="nonmarkingreturn" horiz-adv-x="0" 
 />
    <glyph glyph-name="space" unicode=" " horiz-adv-x="381" 
 />
    <glyph glyph-name="exclam" unicode="!" horiz-adv-x="500" 
d="M223 1443h54l-1 -1032h-52zM250 -10q-24 0 -41 17t-17 41t17 40.5t41 16.5t41 -16.5t17 -40.5t-17 -41t-41 -17z" />
    <glyph glyph-name="quotedbl" unicode="&#x22;" horiz-adv-x="494" 
d="M147 998h-48v445h48v-445zM395 998h-49v445h49v-445z" />
    <glyph glyph-name="numbersign" unicode="#" horiz-adv-x="1229" 
d="M1181 951h-282l-91 -454h269l-9 -46h-269l-95 -451h-49l95 451h-405l-94 -451h-49l96 451h-257l8 46h258l91 454h-244l8 46h244l94 453h48l-94 -453h405l94 453h48l-94 -453h283zM446 951l-91 -455h405l90 455h-404z" />
    <glyph glyph-name="dollar" unicode="$" horiz-adv-x="1179" 
d="M609 -176h-44v156q-202 7 -341 122t-143 280h49q7 -143 133 -245.5t302 -109.5v696l-5 2q-245 59 -344 140t-99 225q0 157 126.5 262t321.5 111v133h44v-133q184 -7 313.5 -111.5t134.5 -248.5h-50q-5 123 -121.5 215t-276.5 99v-655l6 -1q261 -60 366.5 -148t105.5 -245
q0 -162 -135 -271t-343 -117v-156zM1037 367q0 136 -95.5 213.5t-332.5 133.5v-687q181 6 304.5 104t123.5 236zM166 1092q0 -124 89 -195t310 -124v644q-171 -5 -285 -98t-114 -227z" />
    <glyph glyph-name="percent" unicode="%" horiz-adv-x="1378" 
d="M1328 331q0 -156 -63.5 -248.5t-175.5 -92.5t-175.5 92.5t-63.5 248.5t63.5 248.5t175.5 92.5t175.5 -92.5t63.5 -248.5zM1089 32q89 0 139.5 81t50.5 218q0 136 -50.5 217.5t-139.5 81.5t-140 -81.5t-51 -217.5t50.5 -217.5t140.5 -81.5zM178 0h-59l1081 1443h59z
M528 1110q0 -156 -63.5 -248.5t-175.5 -92.5t-175.5 92.5t-63.5 248.5t63.5 248.5t175.5 92.5t175.5 -92.5t63.5 -248.5zM289 811q89 0 139.5 81t50.5 218q0 136 -50.5 217.5t-139.5 81.5t-140 -81.5t-51 -217.5t50.5 -217.5t140.5 -81.5z" />
    <glyph glyph-name="ampersand" unicode="&#x26;" horiz-adv-x="1375" 
d="M1229 0l-209 215q-94 -109 -228.5 -172t-272.5 -63q-198 0 -322.5 107t-124.5 274q0 224 273 371q1 0 30 15.5t58 30.5l29 16q-132 132 -180.5 211t-48.5 160q0 125 98 211t240 86q140 0 233.5 -83.5t93.5 -210.5q0 -103 -85 -196t-276 -189l478 -503q64 96 102 213.5
t38 219.5v88h49v-87q0 -110 -42.5 -238t-111.5 -227l244 -249h-65zM374 695q-253 -135 -253 -335q0 -142 111.5 -238t287.5 -96q122 0 252.5 61.5t211.5 157.5l-490 514q-119 -64 -120 -64zM506 816q343 164 343 351q0 105 -81 177.5t-198 72.5q-116 0 -202 -75.5
t-86 -177.5q0 -71 46 -143t178 -205z" />
    <glyph glyph-name="quotesingle" unicode="'" horiz-adv-x="246" 
d="M147 998h-48v445h48v-445z" />
    <glyph glyph-name="parenleft" unicode="(" horiz-adv-x="550" 
d="M469 -251h-54q-128 166 -198 383.5t-70 464.5t69.5 462.5t199.5 383.5h53q-127 -169 -199.5 -389.5t-72.5 -456.5q0 -235 72 -456t200 -392z" />
    <glyph glyph-name="parenright" unicode=")" horiz-adv-x="550" 
d="M82 -251q127 172 199.5 392.5t72.5 455.5t-72.5 455.5t-199.5 390.5h53q129 -168 198.5 -383.5t69.5 -462.5t-69.5 -464.5t-198.5 -383.5h-53z" />
    <glyph glyph-name="asterisk" unicode="*" horiz-adv-x="943" 
d="M775 895l-284 168l4 -329h-47l4 329l-284 -168l-20 38l285 163l-285 162l20 38l284 -168l-4 329h47l-4 -329l284 168l20 -37l-284 -163l284 -162z" />
    <glyph glyph-name="plus" unicode="+" horiz-adv-x="1179" 
d="M614 554v-517h-49v517h-461v47h461v503h49v-503h460v-47h-460z" />
    <glyph glyph-name="comma" unicode="," horiz-adv-x="488" 
d="M213 -211h-41l56 384h53z" />
    <glyph glyph-name="hyphen" unicode="&#x2011;" horiz-adv-x="865" 
d="M760 554h-656v47h656v-47z" />
    <glyph glyph-name="hyphen" unicode="-" horiz-adv-x="865" 
d="M760 554h-656v47h656v-47z" />
    <glyph glyph-name="period" unicode="." horiz-adv-x="488" 
d="M244 -10q-23 0 -40 17t-17 40q0 24 17 41t40 17q24 0 40.5 -17t16.5 -41q0 -23 -16.5 -40t-40.5 -17z" />
    <glyph glyph-name="slash" unicode="/" horiz-adv-x="497" 
d="M48 -332h-48l448 1775h49z" />
    <glyph glyph-name="zero" unicode="0" horiz-adv-x="1181" 
d="M590 -20q-233 0 -369 200t-136 542q0 341 136 541t369 200t369 -200t136 -541q0 -342 -136 -542t-369 -200zM590 26q210 0 332.5 188t122.5 508t-122.5 507.5t-332.5 187.5q-209 0 -332 -187.5t-123 -507.5t122.5 -508t332.5 -188z" />
    <glyph glyph-name="one" unicode="1" horiz-adv-x="774" 
d="M484 0v1383h-2q-37 -22 -397 -247v58q302 191 399 249h49v-1443h-49z" />
    <glyph glyph-name="two" unicode="2" horiz-adv-x="1138" 
d="M128 1062q5 175 127 288t307 113q181 0 304 -112t123 -278q0 -113 -64 -221t-242 -296l-476 -505v-4h845v-47h-919v41l514 547q172 181 232 280.5t60 203.5q0 146 -109 245.5t-269 99.5q-162 0 -270.5 -100.5t-112.5 -254.5h-50z" />
    <glyph glyph-name="three" unicode="3" horiz-adv-x="1126" 
d="M376 728v46h158q175 0 284 90.5t109 233.5q0 137 -108 228t-271 91q-154 0 -262.5 -90t-117.5 -224h-49q8 155 130 257.5t299 102.5q184 0 306.5 -103.5t122.5 -259.5q0 -134 -82.5 -226t-226.5 -119v-4q170 -11 271 -108.5t101 -251.5q0 -178 -136 -294.5t-343 -116.5
q-201 0 -337.5 108.5t-138.5 268.5h50q1 -92 58 -168t154.5 -119.5t214.5 -43.5q184 0 306 103.5t122 261.5t-121 247.5t-335 89.5h-158z" />
    <glyph glyph-name="four" unicode="4" horiz-adv-x="1164" 
d="M816 0v379h-748v47q333 501 729 1023l68 1v-1025h237v-46h-237v-379h-49zM128 428v-3h688v965h-2q-342 -446 -686 -962z" />
    <glyph glyph-name="five" unicode="5" horiz-adv-x="1163" 
d="M590 -20q-182 0 -314 103t-150 258h50q18 -135 136.5 -225t278.5 -90q189 0 314.5 123t125.5 308q0 184 -123 308.5t-305 124.5q-126 0 -232 -60.5t-168 -167.5h-54l89 781h747v-47h-704l-74 -659h2q62 92 168 145.5t227 53.5q204 0 340.5 -137t136.5 -341
q0 -206 -140 -342t-351 -136z" />
    <glyph glyph-name="six" unicode="6" horiz-adv-x="1166" 
d="M609 -20q-112 0 -207.5 43.5t-162.5 125.5q-149 179 -149 531q0 359 142 571t383 212q172 0 293.5 -97t144.5 -254h-50q-22 133 -131 219t-257 86q-231 0 -357.5 -220t-118.5 -607h4q35 155 166.5 254.5t300.5 99.5q204 0 341.5 -136.5t137.5 -338.5q0 -209 -137.5 -349
t-342.5 -140zM609 26q182 0 306 127.5t124 315.5q0 182 -124.5 305.5t-307.5 123.5q-115 0 -216.5 -56t-161.5 -151.5t-60 -203.5q0 -195 126.5 -328t313.5 -133z" />
    <glyph glyph-name="seven" unicode="7" horiz-adv-x="1074" 
d="M240 0l701 1394v2h-857v47h910v-50l-698 -1393h-56z" />
    <glyph glyph-name="eight" unicode="8" horiz-adv-x="1178" 
d="M588 -20q-222 0 -358 116.5t-136 298.5q0 140 95.5 242.5t248.5 129.5v2q-133 28 -213 115t-80 208q0 163 124 267t319 104q196 0 320 -104t124 -267q0 -117 -81 -205t-211 -118v-2q152 -27 248 -130t96 -242q0 -183 -136.5 -299t-359.5 -116zM588 26q200 0 323 104.5
t123 264.5q0 152 -122.5 249t-322.5 97q-199 0 -322 -97t-123 -249q0 -160 122 -264.5t322 -104.5zM588 789q172 0 283 85.5t111 216.5q0 140 -108 233t-285 93q-176 0 -285 -93t-109 -233q0 -131 111 -216.5t282 -85.5z" />
    <glyph glyph-name="nine" unicode="9" horiz-adv-x="1166" 
d="M551 -20q-177 0 -296 97.5t-142 252.5h50q22 -132 126.5 -218t261.5 -86q220 0 344 194.5t132 533.5q1 33 -1 99h-1h-1q-33 -150 -166.5 -252t-301.5 -102q-207 0 -343 134t-136 334q0 140 61.5 253.5t171.5 178t246 64.5q230 0 370 -172q149 -178 149 -528
q0 -359 -140 -571t-384 -212zM558 545q117 0 218.5 57.5t161 152.5t59.5 201q0 193 -126.5 327t-314.5 134q-184 0 -306.5 -129t-122.5 -321q0 -176 122 -299t309 -123z" />
    <glyph glyph-name="colon" unicode=":" horiz-adv-x="488" 
d="M244 -10q-23 0 -40 17t-17 40q0 24 17 41t40 17q24 0 40.5 -17t16.5 -41q0 -23 -16.5 -40t-40.5 -17zM244 770q-23 0 -40 17t-17 40q0 24 17 40.5t40 16.5q24 0 40.5 -16.5t16.5 -40.5q0 -23 -16.5 -40t-40.5 -17z" />
    <glyph glyph-name="semicolon" unicode=";" horiz-adv-x="488" 
d="M244 770q-23 0 -40 17t-17 40q0 24 17 40.5t40 16.5q24 0 40.5 -16.5t16.5 -40.5q0 -23 -16.5 -40t-40.5 -17zM204 -211h-41l56 384h53z" />
    <glyph glyph-name="less" unicode="&#x3c;" horiz-adv-x="1179" 
d="M987 1065l-736 -530v-5l736 -528v-65l-796 573v44l796 576v-65z" />
    <glyph glyph-name="equal" unicode="=" horiz-adv-x="1179" 
d="M1073 368h-967v46h967v-46zM1073 741h-967v46h967v-46z" />
    <glyph glyph-name="greater" unicode="&#x3e;" horiz-adv-x="1179" 
d="M191 1065v65l796 -575v-45l-796 -573v65l737 528v5z" />
    <glyph glyph-name="question" unicode="?" horiz-adv-x="911" 
d="M62 1105q10 154 118.5 255t266.5 101q164 0 273 -100t109 -250q0 -99 -49 -175.5t-166 -159.5q-105 -75 -141.5 -133t-36.5 -149v-97h-49v99q0 99 40.5 165t151.5 148q107 79 153 148.5t46 151.5q0 133 -95.5 219.5t-235.5 86.5q-136 0 -230 -85.5t-107 -224.5h-48z
M414 -10q-23 0 -40 17t-17 41t17 40.5t40 16.5q25 0 41.5 -16.5t16.5 -40.5t-16.5 -41t-41.5 -17z" />
    <glyph glyph-name="at" unicode="@" horiz-adv-x="1727" 
d="M857 968q-127 0 -210 -107t-83 -270t82 -266.5t211 -103.5q127 0 203.5 105t76.5 278q0 168 -75 266t-205 98zM883 1431q174 0 322 -56t252 -155t163 -240.5t59 -306.5q0 -236 -80.5 -368t-225.5 -132q-95 0 -157.5 57t-77.5 157h-4q-76 -211 -278 -211
q-153 0 -247.5 115t-94.5 301q0 188 94.5 304.5t247.5 116.5q100 0 175 -54t102 -146h4v178h48v-541q0 -108 50.5 -170.5t139.5 -62.5q122 0 189.5 120t67.5 337q0 155 -55.5 288t-154 226.5t-238 146t-303.5 52.5t-307 -59t-244 -161.5t-159.5 -247t-58.5 -310.5
q0 -139 36 -262.5t104 -220t161.5 -166.5t212.5 -107t252 -37q212 0 326 35v-46q-101 -33 -326 -33q-177 0 -328.5 61.5t-258 170.5t-166.5 265t-60 340q0 235 105 423t292 293.5t421 105.5z" />
    <glyph glyph-name="A" unicode="A" horiz-adv-x="1201" 
d="M1125 0l-189 501h-671l-190 -501h-55l555 1443h51l555 -1443h-56zM598 1374l-315 -827h635l-315 827h-5z" />
    <glyph glyph-name="B" unicode="B" horiz-adv-x="1139" 
d="M602 0h-478v1443h464q188 0 305 -96.5t117 -252.5q0 -133 -78.5 -225.5t-214.5 -119.5v-4q161 -16 265.5 -113.5t104.5 -252.5q0 -174 -130 -276.5t-355 -102.5zM174 1397v-632h401q174 0 279.5 89.5t105.5 238.5q0 137 -103 220.5t-273 83.5h-410zM174 46h426
q204 0 321 90.5t117 243.5q0 157 -123 248t-337 91h-404v-673z" />
    <glyph glyph-name="C" unicode="C" horiz-adv-x="1303" 
d="M692 -20q-287 0 -458 204t-171 548q0 337 169.5 534t459.5 197q215 0 377 -140.5t181 -343.5h-49q-20 184 -167 310.5t-342 126.5q-266 0 -422.5 -184.5t-156.5 -499.5q0 -324 157.5 -514.5t421.5 -190.5q203 0 347 115t162 298h49q-11 -134 -86.5 -239t-199 -163
t-272.5 -58z" />
    <glyph glyph-name="D" unicode="D" horiz-adv-x="1313" 
d="M124 1443h436q330 0 510 -188t180 -533q0 -346 -180 -534t-510 -188h-436v1443zM175 1396v-1349h384q308 0 474.5 175t166.5 500q0 324 -166.5 499t-474.5 175h-384z" />
    <glyph glyph-name="E" unicode="E" horiz-adv-x="1050" 
d="M950 47v-47h-826v1443h826v-47h-776v-632h740v-46h-740v-671h776z" />
    <glyph glyph-name="F" unicode="F" horiz-adv-x="1020" 
d="M174 0h-50v1443h817v-47h-767v-634h706v-47h-706v-715z" />
    <glyph glyph-name="G" unicode="G" horiz-adv-x="1332" 
d="M1259 564q0 -272 -153.5 -428t-420.5 -156q-182 0 -323.5 94.5t-220 265.5t-78.5 391q0 329 171 530.5t451 201.5q213 0 368.5 -118t195.5 -309h-49q-42 172 -183 276t-332 104q-258 0 -415 -188t-157 -497q0 -313 159 -508.5t413 -195.5q244 0 384.5 143t140.5 392v100
h-531v46h580v-144z" />
    <glyph glyph-name="H" unicode="H" horiz-adv-x="1296" 
d="M1172 0h-50v718h-948v-718h-50v1443h50v-678h948v678h50v-1443z" />
    <glyph glyph-name="I" unicode="I" horiz-adv-x="298" 
d="M174 0h-50v1443h50v-1443z" />
    <glyph glyph-name="J" unicode="J" horiz-adv-x="933" 
d="M41 315h49q7 -128 98.5 -208.5t229.5 -80.5q159 0 250 95t91 263v1059h50v-1062q0 -185 -104.5 -293.5t-286.5 -108.5q-160 0 -266 94t-111 242z" />
    <glyph glyph-name="K" unicode="K" horiz-adv-x="1107" 
d="M174 0h-50v1443h50v-836h4l784 836h64l-594 -635l664 -808h-64l-636 773l-222 -237v-536z" />
    <glyph glyph-name="L" unicode="L" horiz-adv-x="1009" 
d="M949 47v-47h-825v1443h50v-1396h775z" />
    <glyph glyph-name="M" unicode="M" horiz-adv-x="1576" 
d="M1451 0h-49v1328h-4l-584 -1327h-53l-584 1327h-4v-1328h-49v1443h53l609 -1380h4l606 1380h55v-1443z" />
    <glyph glyph-name="N" unicode="N" horiz-adv-x="1315" 
d="M174 0h-50v1443h55l958 -1348h4v1348h50v-1443h-46l-967 1359h-4v-1359z" />
    <glyph glyph-name="O" unicode="O" horiz-adv-x="1398" 
d="M699 1463q291 0 463.5 -200.5t172.5 -540.5q0 -341 -172 -541.5t-464 -200.5q-293 0 -464.5 200.5t-171.5 541.5q0 340 172 540.5t464 200.5zM699 1416q-269 0 -427.5 -188t-158.5 -506t159 -506.5t427 -188.5t427 188.5t159 506.5t-159 506t-427 188z" />
    <glyph glyph-name="P" unicode="P" horiz-adv-x="1087" 
d="M124 1443h448q212 0 337.5 -114t125.5 -307t-126 -307t-338 -114h-397v-601h-50v1443zM174 1396v-748h394q192 0 304.5 100.5t112.5 273.5q0 174 -112.5 274t-304.5 100h-394z" />
    <glyph glyph-name="Q" unicode="Q" horiz-adv-x="1398" 
d="M1215 -182h-59l-166 227q-130 -65 -291 -65q-293 0 -464.5 200.5t-171.5 541.5q0 340 172 540.5t464 200.5q291 0 463.5 -200.5t172.5 -540.5q0 -224 -79 -393.5t-224 -260.5zM699 27q145 0 263 58l-201 275h59l183 -252q136 84 208.5 243t72.5 371q0 317 -159 505.5
t-426 188.5q-268 0 -427 -188.5t-159 -505.5q0 -318 159 -506.5t427 -188.5z" />
    <glyph glyph-name="R" unicode="R" horiz-adv-x="1124" 
d="M174 1396v-720h397q193 0 303.5 96.5t110.5 263.5q0 170 -110 265t-305 95h-396zM174 630v-630h-50v1443h448q216 0 340 -108.5t124 -298.5q0 -158 -92 -263t-255 -133l381 -640h-57l-376 632q-36 -2 -66 -2h-397z" />
    <glyph glyph-name="S" unicode="S" horiz-adv-x="1114" 
d="M52 382h50q8 -156 139.5 -256t329.5 -100q193 0 316 99.5t123 251.5q0 120 -85 193t-277 121l-167 42q-202 50 -295.5 133.5t-93.5 215.5q0 163 135 272t326 109q200 0 336 -103.5t143 -257.5h-50q-7 135 -129 225t-300 90q-172 0 -291.5 -95.5t-119.5 -239.5
q0 -114 85 -185t270 -117l165 -41q207 -52 302.5 -136.5t95.5 -223.5q0 -175 -136.5 -287t-354.5 -112q-219 0 -364 113t-153 289z" />
    <glyph glyph-name="T" unicode="T" horiz-adv-x="1117" 
d="M583 0h-49v1396h-521v47h1091v-47h-521v-1396z" />
    <glyph glyph-name="U" unicode="U" horiz-adv-x="1307" 
d="M174 1443v-943q0 -218 129.5 -345.5t349.5 -127.5q221 0 350.5 127.5t129.5 345.5v943h50v-944q0 -237 -143.5 -378t-386.5 -141t-386 141t-143 378v944h50z" />
    <glyph glyph-name="V" unicode="V" horiz-adv-x="1203" 
d="M627 0h-51l-556 1443h55l524 -1372h4l525 1372h54z" />
    <glyph glyph-name="W" unicode="W" horiz-adv-x="1777" 
d="M886 1338l-398 -1338h-41l-406 1443h52l374 -1344h4l396 1344h43l395 -1344h5l374 1344h51l-406 -1443h-40l-398 1338h-5z" />
    <glyph glyph-name="X" unicode="X" horiz-adv-x="1190" 
d="M41 0l524 721v1l-523 721h60l493 -680h1l494 680h59l-523 -721l522 -722h-60l-492 680h-1l-495 -680h-59z" />
    <glyph glyph-name="Y" unicode="Y" horiz-adv-x="1148" 
d="M600 0h-50v631l-529 812h60l492 -758h4l491 758h59l-527 -812v-631z" />
    <glyph glyph-name="Z" unicode="Z" horiz-adv-x="1147" 
d="M64 0v42l954 1350v4h-925v47h989v-43l-953 -1349v-4h954v-47h-1019z" />
    <glyph glyph-name="bracketleft" unicode="[" horiz-adv-x="556" 
d="M149 1443h346v-45h-297v-1589h312v-44h-361v1678z" />
    <glyph glyph-name="backslash" unicode="\" horiz-adv-x="497" 
d="M449 -332l-449 1775h49l448 -1775h-48z" />
    <glyph glyph-name="bracketright" unicode="]" horiz-adv-x="556" 
d="M407 1443v-1678h-361v44h312v1589h-297v45h346z" />
    <glyph glyph-name="asciicircum" unicode="^" horiz-adv-x="749" 
d="M373 1329l-257 -531h-54l292 596h41l293 -596h-55l-257 531h-3z" />
    <glyph glyph-name="underscore" unicode="_" horiz-adv-x="801" 
d="M867 -196h-933v44h933v-44z" />
    <glyph glyph-name="grave" unicode="`" horiz-adv-x="686" 
d="M509 1254h-53l-246 303h63z" />
    <glyph glyph-name="a" unicode="a" horiz-adv-x="1021" 
d="M449 30q169 0 289.5 107.5t120.5 258.5v182l-381 -29q-165 -13 -251.5 -80t-86.5 -183q0 -111 87.5 -183.5t221.5 -72.5zM446 -16q-157 0 -256.5 84.5t-99.5 217.5q0 137 96 214t284 92l389 30v97q0 153 -86.5 240t-238.5 87q-151 0 -244 -74t-114 -209h-47
q17 153 126 241t279 88q173 0 273.5 -99.5t100.5 -270.5v-722h-49v245h-1q-39 -116 -153.5 -188.5t-258.5 -72.5z" />
    <glyph glyph-name="b" unicode="b" horiz-adv-x="1116" 
d="M600 -16q-151 0 -265.5 91t-153.5 244h-2v-319h-49v1506h49v-745h2q38 150 151.5 240.5t266.5 90.5q200 0 326 -153.5t126 -399.5t-126 -400.5t-325 -154.5zM595 1046q-182 0 -299 -143t-117 -366q0 -222 116.5 -364t298.5 -142q181 0 294.5 141t113.5 367
q0 225 -113 366t-294 141z" />
    <glyph glyph-name="c" unicode="c" horiz-adv-x="1019" 
d="M958 760h-50q-26 126 -128.5 206t-245.5 80q-193 0 -306 -137.5t-113 -370.5t112.5 -370t306.5 -137q145 0 246 76t126 200h50q-26 -145 -141 -234t-281 -89q-215 0 -342 149.5t-127 404.5q0 254 127 404t342 150q163 0 280 -93.5t144 -238.5z" />
    <glyph glyph-name="d" unicode="d" horiz-adv-x="1126" 
d="M524 -16q-202 0 -330.5 154.5t-128.5 399.5q0 246 128.5 400t330.5 154q156 0 272 -95t148 -236h2v745h50v-1506h-46v322h-2q-35 -146 -151.5 -242t-272.5 -96zM526 1046q-181 0 -296 -141t-115 -366q0 -226 115 -367t296 -141q184 0 302 141.5t118 365.5t-118 366
t-302 142z" />
    <glyph glyph-name="e" unicode="e" horiz-adv-x="1056" 
d="M533 1046q-180 0 -294 -127.5t-123 -337.5h825q0 207 -112.5 336t-295.5 129zM926 299h51q-28 -140 -144 -227.5t-292 -87.5q-219 0 -347.5 147t-128.5 407q0 250 128 402t340 152q205 0 331.5 -143t126.5 -375v-38h-876v-2q0 -237 116 -370.5t311 -133.5q156 0 257.5 75
t126.5 194z" />
    <glyph glyph-name="f" unicode="f" horiz-adv-x="509" 
d="M170 0v1031h-150v45h150v169q0 123 58.5 181.5t164.5 58.5q47 0 74 -10v-46q-30 10 -73 10q-174 0 -174 -201v-162h237v-45h-237v-1031h-50z" />
    <glyph glyph-name="g" unicode="g" horiz-adv-x="1106" 
d="M521 31q184 0 300 141.5t116 365.5t-116 366t-300 142q-181 0 -293.5 -141t-112.5 -368q0 -225 112.5 -365.5t293.5 -140.5zM549 -384q-167 0 -280.5 75.5t-136.5 187.5h52q28 -94 125.5 -155.5t241.5 -61.5q176 0 281 94.5t105 250.5v309h-2q-33 -142 -147 -236.5
t-269 -94.5q-202 0 -328 153.5t-126 399.5t126.5 400t327.5 154q156 0 270 -95.5t149 -241.5h2v321h46v-1067q0 -178 -118.5 -285.5t-318.5 -107.5z" />
    <glyph glyph-name="h" unicode="h" horiz-adv-x="1073" 
d="M130 0v1506h49v-684h2q35 121 139 195.5t243 74.5q178 0 287.5 -108.5t109.5 -288.5v-695h-49v693q0 163 -97.5 258t-256.5 95q-166 0 -272 -112t-106 -289v-645h-49z" />
    <glyph glyph-name="i" unicode="i" horiz-adv-x="309" 
d="M130 0v1076h49v-1076h-49zM155 1366q-20 0 -34.5 14t-14.5 34t14.5 34t34.5 14t34 -14t14 -34t-14.5 -34t-33.5 -14z" />
    <glyph glyph-name="j" unicode="j" horiz-adv-x="309" 
d="M179 1076v-1175q0 -139 -65 -200.5t-198 -61.5h-29v46h27q113 0 164.5 50t51.5 162v1179h49zM155 1366q-20 0 -34.5 14t-14.5 34t14.5 34t34.5 14t34 -14t14 -34t-14.5 -34t-33.5 -14z" />
    <glyph glyph-name="k" unicode="k" horiz-adv-x="913" 
d="M181 503l645 573h70l-517 -463l519 -613h-65l-493 583l-161 -142v-441h-49v1506h49v-1003h2z" />
    <glyph glyph-name="l" unicode="l" horiz-adv-x="309" 
d="M130 0v1506h49v-1506h-49z" />
    <glyph glyph-name="m" unicode="m" horiz-adv-x="1628" 
d="M120 0v1076h46v-254h2q29 119 115.5 194.5t214.5 75.5q129 0 218.5 -78t111.5 -193h2q25 113 118 192t225 79q154 0 248 -101t94 -270v-721h-49v710q0 156 -80.5 246t-219.5 90q-145 0 -234.5 -106t-89.5 -276v-664h-49v708q0 151 -84 244.5t-215 93.5
q-145 0 -235 -112.5t-90 -300.5v-633h-49z" />
    <glyph glyph-name="n" unicode="n" horiz-adv-x="1062" 
d="M120 0v1076h46v-254h2q35 121 138.5 195.5t242.5 74.5q179 0 289.5 -108t110.5 -288v-696h-49v694q0 162 -98.5 257t-258.5 95q-166 0 -270 -112t-104 -288v-646h-49z" />
    <glyph glyph-name="o" unicode="o" horiz-adv-x="1078" 
d="M539 -16q-214 0 -344 150.5t-130 403.5t130.5 403.5t343.5 150.5t343.5 -150.5t130.5 -403.5t-130.5 -403.5t-343.5 -150.5zM539 31q192 0 308.5 137.5t116.5 369.5q0 233 -116.5 370.5t-308.5 137.5t-308 -137.5t-116 -370.5t116 -370t308 -137z" />
    <glyph glyph-name="p" unicode="p" horiz-adv-x="1106" 
d="M587 1092q201 0 327.5 -154t126.5 -400q0 -247 -126 -400.5t-328 -153.5q-155 0 -269 94.5t-147 236.5h-2v-666h-49v1427h46v-321h2q34 145 148.5 241t270.5 96zM584 31q181 0 294.5 140.5t113.5 365.5q0 226 -113.5 367.5t-294.5 141.5q-183 0 -299 -142t-116 -366
t116 -365.5t299 -141.5z" />
    <glyph glyph-name="q" unicode="q" horiz-adv-x="1116" 
d="M524 1092q156 0 272.5 -96t151.5 -241h2v321h46v-1427h-50v666h-2q-32 -141 -148.5 -236t-271.5 -95q-202 0 -330.5 154t-128.5 400q0 245 128.5 399.5t330.5 154.5zM526 31q184 0 302 141.5t118 365.5t-118 366t-302 142q-181 0 -296 -142t-115 -367q0 -224 115 -365
t296 -141z" />
    <glyph glyph-name="r" unicode="r" horiz-adv-x="603" 
d="M120 0v1076h46v-223h2q35 117 110.5 178t186.5 61q59 0 108 -21v-51q-50 25 -116 25q-132 0 -210 -104.5t-78 -270.5v-670h-49z" />
    <glyph glyph-name="s" unicode="s" horiz-adv-x="905" 
d="M92 808q0 124 105 204t257 80q161 0 262.5 -88.5t115.5 -239.5h-48q-14 126 -101.5 204t-228.5 78q-129 0 -221 -67t-92 -170q0 -85 57 -133.5t182 -77.5l167 -40q160 -39 231 -104.5t71 -174.5q0 -131 -110 -213t-281 -82q-169 0 -281.5 92.5t-120.5 227.5h50
q10 -115 109 -194.5t242 -79.5q145 0 243.5 68.5t98.5 177.5q0 93 -62 148t-205 89l-169 39q-138 33 -204.5 94t-66.5 162z" />
    <glyph glyph-name="t" unicode="t" horiz-adv-x="527" 
d="M180 1364h49v-288h218v-45h-218v-796q0 -102 38.5 -146t124.5 -44l37 1h37v-46q-1 0 -38 -0.5t-39 -0.5q-110 0 -159.5 55t-49.5 180v797h-160v45h160v288z" />
    <glyph glyph-name="u" unicode="u" horiz-adv-x="1062" 
d="M942 1076v-1076h-46v251h-2q-33 -114 -143 -190.5t-245 -76.5q-176 0 -284.5 106.5t-108.5 284.5v701h49v-694q0 -164 96 -257.5t253 -93.5q163 0 272.5 109t109.5 287v649h49z" />
    <glyph glyph-name="v" unicode="v" horiz-adv-x="888" 
d="M886 1076l-408 -1076h-68l-408 1076h53l388 -1028h2l388 1028h53z" />
    <glyph glyph-name="w" unicode="w" horiz-adv-x="1406" 
d="M1404 1076l-317 -1076h-66l-317 1016h-2l-317 -1016h-66l-317 1076h55l294 -1021h2l317 1021h66l317 -1021h2l294 1021h55z" />
    <glyph glyph-name="x" unicode="x" horiz-adv-x="869" 
d="M436 506h-3l-370 -506h-61l403 548l-402 528h62l369 -489h2l369 489h62l-402 -527l401 -549h-60z" />
    <glyph glyph-name="y" unicode="y" horiz-adv-x="888" 
d="M171 -362q-26 0 -47 9v46q23 -9 52 -9q71 0 115.5 45t90.5 161l35 91l-415 1095h54l387 -1029h2l388 1029h54l-424 -1120q-51 -134 -89.5 -199t-84 -92t-118.5 -27z" />
    <glyph glyph-name="z" unicode="z" horiz-adv-x="910" 
d="M58 0v47l734 982v2h-734v45h794v-47l-736 -982v-2h736v-45h-794z" />
    <glyph glyph-name="braceleft" unicode="{" horiz-adv-x="682" 
d="M146 620q87 -8 126.5 -62.5t39.5 -165.5v-412q0 -242 255 -242h71v-45h-48q-176 0 -251.5 72.5t-75.5 242.5v349q0 126 -39 176t-135 50v91q96 0 135 51t39 178v292q0 167 74.5 236.5t252.5 69.5h48v-46h-71q-132 0 -193.5 -58.5t-61.5 -182.5v-347q0 -110 -39.5 -164.5
t-126.5 -62.5v-20z" />
    <glyph glyph-name="bar" unicode="|" horiz-adv-x="329" 
d="M188 -332h-47v1775h47v-1775z" />
    <glyph glyph-name="braceright" unicode="}" horiz-adv-x="683" 
d="M536 620v20q-87 8 -126.5 62.5t-39.5 164.5v347q0 124 -62 182.5t-193 58.5h-71v46h48q178 0 252.5 -69.5t74.5 -236.5v-292q0 -127 39 -178t135 -51v-91q-96 0 -135 -50t-39 -176v-349q0 -170 -75.5 -242.5t-251.5 -72.5h-48v45h71q255 0 255 242v412q0 111 39.5 165.5
t126.5 62.5z" />
    <glyph glyph-name="asciitilde" unicode="~" horiz-adv-x="1179" 
d="M560 678q-72 66 -113 89.5t-85 23.5q-75 0 -122.5 -64t-49.5 -167h-48q0 125 60.5 201.5t159.5 76.5q54 0 101 -25.5t128 -98.5q67 -61 116 -87t96 -26q75 0 128 70t57 174h49q0 -122 -68.5 -206.5t-166.5 -84.5q-64 0 -112 24.5t-130 99.5z" />
    <glyph glyph-name="nonbreakingspace" unicode="&#xa0;" horiz-adv-x="381" 
 />
    <glyph glyph-name="exclamdown" unicode="&#xa1;" horiz-adv-x="500" 
d="M223 -336l1 1031h52l1 -1031h-54zM250 1000q-24 0 -41 17.5t-17 41.5t17 41t41 17t41 -17t17 -41t-17 -41.5t-41 -17.5z" />
    <glyph glyph-name="cent" unicode="&#xa2;" horiz-adv-x="1179" 
d="M1071 461q-23 -142 -145.5 -229.5t-288.5 -94.5v-224h-49v225q-138 6 -246 72t-172 191t-64 291q0 247 136 396t346 157v207h49v-207q165 -7 288 -97.5t148 -234.5h-50q-26 129 -142.5 208t-269.5 79q-197 0 -326.5 -137.5t-129.5 -370.5q0 -234 129 -372t327 -138
q153 0 270 75.5t140 203.5h50z" />
    <glyph glyph-name="sterling" unicode="&#xa3;" horiz-adv-x="1179" 
d="M173 46h950v-46h-1066v48q80 21 142 49t115.5 70t82.5 102.5t29 136.5q0 105 -68 284h-257v46h240q-27 71 -42.5 116t-29.5 113t-14 129q0 171 117.5 275t327.5 104q105 0 193.5 -18.5t132.5 -41.5v-49q-47 26 -133 44.5t-191 18.5q-190 0 -293.5 -92t-103.5 -242
q0 -60 15.5 -129t29 -108t43.5 -120h468v-46h-451q64 -168 64 -284q0 -77 -28 -141t-75 -105.5t-95.5 -67.5t-102.5 -42v-4z" />
    <glyph glyph-name="currency" unicode="&#xa4;" horiz-adv-x="1179" 
d="M260 655q0 -136 96.5 -233t232.5 -97q137 0 233.5 97t96.5 233q0 137 -96.5 234t-233.5 97q-136 0 -232.5 -97t-96.5 -234zM1039 1070l-167 -167q93 -106 93 -248t-95 -248l169 -167l-35 -34l-167 168q-106 -95 -248 -95q-140 0 -247 94l-168 -167l-34 34l167 168
q-93 106 -93 247q0 143 94 248l-168 167l34 34l167 -167q107 94 248 94q142 0 248 -93l167 166z" />
    <glyph glyph-name="yen" unicode="&#xa5;" horiz-adv-x="1179" 
d="M973 391h-358v-391h-50v391h-359v45h359v220h-359v44h331l-500 743h60l491 -730h4l491 730h59l-499 -743h330v-44h-358v-220h358v-45z" />
    <glyph glyph-name="brokenbar" unicode="&#xa6;" horiz-adv-x="329" 
d="M188 746h-47v697h47v-697zM188 -332h-47v703h47v-703z" />
    <glyph glyph-name="section" unicode="&#xa7;" horiz-adv-x="943" 
d="M423 340l77 -17q139 2 226.5 71.5t87.5 176.5q0 94 -69.5 152t-223.5 93l-77 17q-139 -1 -226.5 -70.5t-87.5 -176.5q0 -94 70 -152.5t223 -93.5zM478 -235q-159 0 -264 72t-118 189h49q15 -97 106.5 -156t226.5 -59q134 0 222 64.5t88 164.5q0 88 -65 143.5t-205 86.5
l-106 24q-172 39 -252.5 108.5t-80.5 178.5q0 106 74 179t204 95v3q-128 34 -189 97t-61 161q0 120 101.5 197.5t257.5 77.5q158 0 263 -71t119 -189h-50q-14 97 -105.5 156t-226.5 59q-134 0 -221.5 -65t-87.5 -164q0 -89 65 -144t205 -86l106 -25q171 -38 251 -107
t80 -179q0 -106 -74.5 -179.5t-205.5 -95.5v-3q130 -34 191.5 -96.5t61.5 -160.5q0 -120 -101.5 -198t-257.5 -78z" />
    <glyph glyph-name="dieresis" unicode="&#xa8;" horiz-adv-x="686" 
d="M204 1254q-22 0 -38.5 16t-16.5 38t16 37.5t39 15.5q22 0 38 -15.5t16 -37.5t-16 -38t-38 -16zM482 1254q-22 0 -38 16t-16 38t16 37.5t38 15.5q23 0 39 -15.5t16 -37.5t-16.5 -38t-38.5 -16z" />
    <glyph glyph-name="copyright" unicode="&#xa9;" horiz-adv-x="1739" 
d="M870 -138q-159 0 -300 58.5t-242.5 159.5t-161 243.5t-59.5 302.5q0 161 59.5 303t161 243t242.5 159.5t300 58.5t300.5 -58.5t243 -159.5t160.5 -243t59 -303q0 -160 -59 -302t-160.5 -243.5t-243 -160t-300.5 -58.5zM870 -92q199 0 363 93t258.5 258t94.5 367
q0 203 -94.5 368t-258.5 257.5t-363 92.5q-149 0 -281.5 -54.5t-228 -149t-151 -228.5t-55.5 -286q0 -151 55.5 -285t151 -228.5t228 -149.5t281.5 -55zM1214 803h-47q-26 95 -106 155t-198 60q-152 0 -249 -103.5t-97 -281.5q0 -179 97 -285t249 -106q124 0 202.5 57
t99.5 147h48q-24 -112 -116 -180t-234 -68q-172 0 -282.5 118t-110.5 317q0 198 110 313.5t283 115.5q139 0 234.5 -75t116.5 -184z" />
    <glyph glyph-name="ordfeminine" unicode="&#xaa;" horiz-adv-x="670" 
d="M295 773q106 0 181 66.5t75 160.5v109l-237 -17q-211 -17 -211 -162q0 -68 54.5 -112.5t137.5 -44.5zM289 732q-103 0 -167.5 55t-64.5 143q0 89 63.5 140t186.5 60l244 18v63q0 94 -53.5 146.5t-149.5 52.5q-92 0 -149.5 -44.5t-70.5 -126.5h-45q10 98 81.5 156
t183.5 58q115 0 182.5 -64.5t67.5 -174.5v-473h-47v154q-26 -73 -98.5 -118t-163.5 -45z" />
    <glyph glyph-name="guillemotleft" unicode="&#xab;" horiz-adv-x="1150" 
d="M227 571v-6l370 -407h-63l-376 408v4l376 408h63zM623 571v-6l369 -407h-62l-377 408v4l377 408h62z" />
    <glyph glyph-name="logicalnot" unicode="&#xac;" horiz-adv-x="1179" 
d="M1072 723v-540h-48v494h-917v46h965z" />
    <glyph glyph-name="registered" unicode="&#xae;" horiz-adv-x="1076" 
d="M538 668q-172 0 -291.5 119.5t-119.5 291.5t119.5 291t291.5 119t291.5 -119t119.5 -291t-119.5 -291.5t-291.5 -119.5zM538 712q154 0 260 106.5t106 260.5q0 155 -106 261t-260 106t-260.5 -106.5t-106.5 -260.5t106.5 -260.5t260.5 -106.5zM423 869h-38v448h163
q66 0 105.5 -37t39.5 -99q0 -103 -107 -131l129 -181h-45l-127 178h-120v-178zM423 1280v-198h114q115 0 115 100q0 45 -31 71.5t-85 26.5h-113z" />
    <glyph glyph-name="macron" unicode="&#xaf;" horiz-adv-x="814" 
d="M699 1348v-43h-584v43h584z" />
    <glyph glyph-name="degree" unicode="&#xb0;" horiz-adv-x="721" 
d="M359 846q-107 0 -183.5 77t-76.5 185t76.5 185t183.5 77q109 0 186 -77t77 -185t-77 -185t-186 -77zM359 891q91 0 155 64t64 153q0 90 -64 154t-155 64q-89 0 -152.5 -64t-63.5 -154t63.5 -153.5t152.5 -63.5z" />
    <glyph glyph-name="plusminus" unicode="&#xb1;" horiz-adv-x="1179" 
d="M1074 113h-970v46h970v-46zM613 688v-367h-47v367h-462v45h462v344h47v-344h461v-45h-461z" />
    <glyph glyph-name="two.sups" unicode="&#xb2;" horiz-adv-x="550" 
d="M68 1588q1 83 59.5 137t146.5 54q89 0 146.5 -51t57.5 -130q0 -51 -29.5 -100.5t-108.5 -131.5l-202 -215v-2h362v-42h-430v35l239 253q70 75 95.5 116.5t25.5 83.5q0 62 -44.5 102t-112.5 40q-67 0 -111.5 -42t-46.5 -107v-1h-47v1z" />
    <glyph glyph-name="three.sups" unicode="&#xb3;" horiz-adv-x="552" 
d="M189 1430v40h76q71 0 115.5 38t44.5 98q0 55 -44.5 93t-111.5 38q-66 0 -110 -37t-48 -94h-46q4 76 61.5 124.5t144.5 48.5q86 0 144 -48.5t58 -120.5q0 -61 -37 -103t-102 -54v-2q77 -4 122.5 -49t45.5 -114q0 -82 -65.5 -136.5t-164.5 -54.5q-96 0 -158 51t-64 128h47
q2 -58 51 -97.5t124 -39.5q78 0 129 42.5t51 106.5q0 66 -49.5 104t-136.5 38h-77z" />
    <glyph glyph-name="acute" unicode="&#xb4;" horiz-adv-x="686" 
d="M230 1254h-53l236 303h63z" />
    <glyph glyph-name="mugreek" unicode="&#x3bc;" horiz-adv-x="1188" 
d="M120 -351v1427h49v-683q0 -169 91.5 -265.5t252.5 -96.5q165 0 271 113t106 288v644h50v-884q0 -82 27.5 -119t88.5 -37q37 0 67 10l5 -45q-23 -10 -78 -10q-80 0 -119 46t-40 142v66h-2q-38 -119 -141 -190t-237 -71q-130 0 -222.5 61t-117.5 163h-2v-559h-49z" />
    <glyph glyph-name="mugreek" unicode="&#xb5;" horiz-adv-x="1188" 
d="M120 -351v1427h49v-683q0 -169 91.5 -265.5t252.5 -96.5q165 0 271 113t106 288v644h50v-884q0 -82 27.5 -119t88.5 -37q37 0 67 10l5 -45q-23 -10 -78 -10q-80 0 -119 46t-40 142v66h-2q-38 -119 -141 -190t-237 -71q-130 0 -222.5 61t-117.5 163h-2v-559h-49z" />
    <glyph glyph-name="paragraph" unicode="&#xb6;" horiz-adv-x="1155" 
d="M733 -146h-50v721h-20q-210 0 -342 122.5t-132 309.5q0 197 128.5 316.5t346.5 119.5h69v-1589zM915 -146v1589h50v-1589h-50z" />
    <glyph glyph-name="periodcentered" unicode="&#xb7;" horiz-adv-x="488" 
d="M244 538q-23 0 -40 17t-17 41q0 23 17 40t40 17q24 0 41 -17t17 -40q0 -24 -17 -41t-41 -17z" />
    <glyph glyph-name="cedilla" unicode="&#xb8;" horiz-adv-x="686" 
d="M243 -182v33l65 155h44v-6l-59 -141q98 0 152 -40t54 -113q0 -74 -60 -120.5t-156 -47.5q-76 0 -122 17v43q45 -17 121 -17q72 0 121.5 36t49.5 88q0 54 -42.5 83.5t-121.5 29.5h-46z" />
    <glyph glyph-name="one.sups" unicode="&#xb9;" horiz-adv-x="416" 
d="M232 1107v614h-2l-179 -118v49l180 119h48v-664h-47z" />
    <glyph glyph-name="ordmasculine" unicode="&#xba;" horiz-adv-x="708" 
d="M354 731q-141 0 -226.5 98t-85.5 263t85.5 263t226.5 98t227 -98t86 -263t-86 -263t-227 -98zM354 774q120 0 192.5 86t72.5 232t-72.5 232t-192.5 86t-192 -86t-72 -232t72 -232t192 -86z" />
    <glyph glyph-name="guillemotright" unicode="&#xbb;" horiz-adv-x="1150" 
d="M528 571l-370 407h63l376 -408v-4l-376 -408h-63l370 407v6zM923 571l-370 407h63l376 -408v-4l-376 -408h-63l370 407v6z" />
    <glyph glyph-name="onequarter" unicode="&#xbc;" horiz-adv-x="1374" 
d="M1184 0v160h-339v44q122 192 318 460h69v-462h102v-42h-102v-160h-48zM895 203v-1h290v418h-2q-173 -236 -288 -417zM233 779v614h-2l-179 -118v49l180 119h48v-664h-47zM148 1h-59l1081 1443h59z" />
    <glyph glyph-name="onehalf" unicode="&#xbd;" horiz-adv-x="1393" 
d="M912 481q1 83 59.5 137t146.5 54q89 0 146.5 -51t57.5 -130q0 -51 -29.5 -100.5t-108.5 -131.5l-202 -215v-2h362v-42h-430v35l239 253q70 75 95.5 116.5t25.5 83.5q0 62 -44.5 102t-112.5 40q-67 0 -111.5 -42t-46.5 -107v-1h-47v1zM233 779v614h-2l-179 -118v49
l180 119h48v-664h-47zM148 1h-59l1081 1443h59z" />
    <glyph glyph-name="threequarters" unicode="&#xbe;" horiz-adv-x="1428" 
d="M180 1102v40h76q71 0 115.5 38t44.5 98q0 55 -44.5 93t-111.5 38q-66 0 -110 -37t-48 -94h-46q4 76 61.5 124.5t144.5 48.5q86 0 144 -48.5t58 -120.5q0 -61 -37 -103t-102 -54v-2q77 -4 122.5 -49t45.5 -114q0 -82 -65.5 -136.5t-164.5 -54.5q-96 0 -158 51t-64 128h47
q2 -58 51 -97.5t124 -39.5q78 0 129 42.5t51 106.5q0 66 -49.5 104t-136.5 38h-77zM1238 0v160h-339v44q122 192 318 460h69v-462h102v-42h-102v-160h-48zM949 203v-1h290v418h-2q-173 -236 -288 -417zM239 1h-59l1081 1443h59z" />
    <glyph glyph-name="questiondown" unicode="&#xbf;" horiz-adv-x="911" 
d="M849 -7q-10 -154 -118.5 -255.5t-266.5 -101.5q-164 0 -273 100.5t-109 250.5q0 98 49 175t165 160q105 75 141.5 132.5t36.5 148.5v97h49v-99q0 -99 -40 -165t-151 -148q-107 -79 -153 -148t-46 -151q0 -134 95.5 -220.5t235.5 -86.5q136 0 230 85.5t107 225.5h48z
M492 1000q-23 0 -40 17.5t-17 41.5t17 41t40 17q24 0 41 -17t17 -41t-17 -41.5t-41 -17.5z" />
    <glyph glyph-name="Agrave" unicode="&#xc0;" horiz-adv-x="1201" 
d="M1125 0l-189 501h-671l-190 -501h-55l555 1443h51l555 -1443h-56zM598 1374l-315 -827h635l-315 827h-5zM582 1554l-303 287h66l294 -287h-57z" />
    <glyph glyph-name="Aacute" unicode="&#xc1;" horiz-adv-x="1201" 
d="M1125 0l-189 501h-671l-190 -501h-55l555 1443h51l555 -1443h-56zM598 1374l-315 -827h635l-315 827h-5zM618 1554h-56l293 287h66z" />
    <glyph glyph-name="Acircumflex" unicode="&#xc2;" horiz-adv-x="1201" 
d="M1125 0l-189 501h-671l-190 -501h-55l555 1443h51l555 -1443h-56zM598 1374l-315 -827h635l-315 827h-5zM577 1841h46l266 -287h-59l-229 249h-2l-229 -249h-59z" />
    <glyph glyph-name="Atilde" unicode="&#xc3;" horiz-adv-x="1201" 
d="M1125 0l-189 501h-671l-190 -501h-55l555 1443h51l555 -1443h-56zM598 1374l-315 -827h635l-315 827h-5zM737 1552q-36 0 -68 17.5t-55.5 42t-46 49t-49 42t-55.5 17.5q-97 0 -97 -158h-45q0 92 36 146.5t106 54.5q36 0 68 -17t55.5 -41.5t46 -49.5t49.5 -42t55 -17
q97 0 97 158h45q0 -93 -36 -147.5t-106 -54.5z" />
    <glyph glyph-name="Adieresis" unicode="&#xc4;" horiz-adv-x="1201" 
d="M1125 0l-189 501h-671l-190 -501h-55l555 1443h51l555 -1443h-56zM598 1374l-315 -827h635l-315 827h-5zM461 1556q-22 0 -38.5 16t-16.5 38t16 37.5t39 15.5q22 0 38 -15.5t16 -37.5t-16 -38t-38 -16zM739 1556q-22 0 -38 16t-16 38t16 37.5t38 15.5q23 0 39 -15.5
t16 -37.5t-16.5 -38t-38.5 -16z" />
    <glyph glyph-name="Aring" unicode="&#xc5;" horiz-adv-x="1201" 
d="M1125 0l-189 501h-671l-190 -501h-55l555 1443h51l555 -1443h-56zM598 1374l-315 -827h635l-315 827h-5zM600 1506q-68 0 -116.5 49t-48.5 117t48.5 116.5t116.5 48.5t116.5 -48.5t48.5 -116.5t-48.5 -117t-116.5 -49zM600 1544q53 0 89.5 37.5t36.5 90.5t-36.5 90
t-89.5 37t-89.5 -37t-36.5 -90t36.5 -90.5t89.5 -37.5z" />
    <glyph glyph-name="AE" unicode="&#xc6;" horiz-adv-x="1878" 
d="M819 1397l-476 -939h667v939h-191zM1010 0v411h-689l-208 -411h-55l733 1443h985v-47h-718v-633h681v-46h-681v-670h718v-47h-766z" />
    <glyph glyph-name="Ccedilla" unicode="&#xc7;" horiz-adv-x="1303" 
d="M1250 979h-49q-20 184 -167 310.5t-342 126.5q-266 0 -422.5 -184.5t-156.5 -499.5q0 -324 157.5 -514.5t421.5 -190.5q203 0 347 115t162 298h49q-11 -131 -84.5 -235t-193 -163t-264.5 -62l-51 -121q98 0 152 -40t54 -113q0 -74 -60 -120.5t-156 -47.5q-76 0 -122 17
v43q45 -17 121 -17q72 0 121.5 36t49.5 88q0 54 -42.5 83.5t-121.5 29.5h-46v33l54 130q-274 11 -436 213.5t-162 537.5q0 337 169.5 534t459.5 197q215 0 377 -140.5t181 -343.5z" />
    <glyph glyph-name="Egrave" unicode="&#xc8;" horiz-adv-x="1050" 
d="M519 1554l-303 287h66l294 -287h-57zM950 47v-47h-826v1443h826v-47h-776v-632h740v-46h-740v-671h776z" />
    <glyph glyph-name="Eacute" unicode="&#xc9;" horiz-adv-x="1050" 
d="M555 1554h-56l293 287h66zM950 47v-47h-826v1443h826v-47h-776v-632h740v-46h-740v-671h776z" />
    <glyph glyph-name="Ecircumflex" unicode="&#xca;" horiz-adv-x="1050" 
d="M514 1841h46l266 -287h-59l-229 249h-2l-229 -249h-59zM950 47v-47h-826v1443h826v-47h-776v-632h740v-46h-740v-671h776z" />
    <glyph glyph-name="Edieresis" unicode="&#xcb;" horiz-adv-x="1050" 
d="M398 1556q-22 0 -38.5 16t-16.5 38t16 37.5t39 15.5q22 0 38 -15.5t16 -37.5t-16 -38t-38 -16zM676 1556q-22 0 -38 16t-16 38t16 37.5t38 15.5q23 0 39 -15.5t16 -37.5t-16.5 -38t-38.5 -16zM950 47v-47h-826v1443h826v-47h-776v-632h740v-46h-740v-671h776z" />
    <glyph glyph-name="Igrave" unicode="&#xcc;" horiz-adv-x="298" 
d="M174 0h-50v1443h50v-1443zM131 1554l-303 287h66l294 -287h-57z" />
    <glyph glyph-name="Iacute" unicode="&#xcd;" horiz-adv-x="298" 
d="M174 0h-50v1443h50v-1443zM167 1554h-56l293 287h66z" />
    <glyph glyph-name="Icircumflex" unicode="&#xce;" horiz-adv-x="298" 
d="M174 0h-50v1443h50v-1443zM126 1841h46l266 -287h-59l-229 249h-2l-229 -249h-59z" />
    <glyph glyph-name="Idieresis" unicode="&#xcf;" horiz-adv-x="298" 
d="M174 0h-50v1443h50v-1443zM10 1556q-22 0 -38.5 16t-16.5 38t16 37.5t39 15.5q22 0 38 -15.5t16 -37.5t-16 -38t-38 -16zM288 1556q-22 0 -38 16t-16 38t16 37.5t38 15.5q23 0 39 -15.5t16 -37.5t-16.5 -38t-38.5 -16z" />
    <glyph glyph-name="Eth" unicode="&#xd0;" horiz-adv-x="1332" 
d="M195 47h384q308 0 474.5 175t166.5 500q0 324 -166.5 499t-474.5 175h-384v-632h382v-47h-382v-670zM144 1443h436q330 0 510 -188t180 -533q0 -346 -180 -534t-510 -188h-436v717h-121v47h121v679z" />
    <glyph glyph-name="Ntilde" unicode="&#xd1;" horiz-adv-x="1315" 
d="M794 1552q-36 0 -68 17.5t-55.5 42t-46 49t-49 42t-55.5 17.5q-97 0 -97 -158h-45q0 92 36 146.5t106 54.5q36 0 68 -17t55.5 -41.5t46 -49.5t49.5 -42t55 -17q97 0 97 158h45q0 -93 -36 -147.5t-106 -54.5zM174 0h-50v1443h55l958 -1348h4v1348h50v-1443h-46l-967 1359
h-4v-1359z" />
    <glyph glyph-name="Ograve" unicode="&#xd2;" horiz-adv-x="1398" 
d="M681 1554l-303 287h66l294 -287h-57zM699 1463q291 0 463.5 -200.5t172.5 -540.5q0 -341 -172 -541.5t-464 -200.5q-293 0 -464.5 200.5t-171.5 541.5q0 340 172 540.5t464 200.5zM699 1416q-269 0 -427.5 -188t-158.5 -506t159 -506.5t427 -188.5t427 188.5t159 506.5
t-159 506t-427 188z" />
    <glyph glyph-name="Oacute" unicode="&#xd3;" horiz-adv-x="1398" 
d="M717 1554h-56l293 287h66zM699 1463q291 0 463.5 -200.5t172.5 -540.5q0 -341 -172 -541.5t-464 -200.5q-293 0 -464.5 200.5t-171.5 541.5q0 340 172 540.5t464 200.5zM699 1416q-269 0 -427.5 -188t-158.5 -506t159 -506.5t427 -188.5t427 188.5t159 506.5t-159 506
t-427 188z" />
    <glyph glyph-name="Ocircumflex" unicode="&#xd4;" horiz-adv-x="1398" 
d="M676 1841h46l266 -287h-59l-229 249h-2l-229 -249h-59zM699 1463q291 0 463.5 -200.5t172.5 -540.5q0 -341 -172 -541.5t-464 -200.5q-293 0 -464.5 200.5t-171.5 541.5q0 340 172 540.5t464 200.5zM699 1416q-269 0 -427.5 -188t-158.5 -506t159 -506.5t427 -188.5
t427 188.5t159 506.5t-159 506t-427 188z" />
    <glyph glyph-name="Otilde" unicode="&#xd5;" horiz-adv-x="1398" 
d="M699 1463q291 0 463.5 -200.5t172.5 -540.5q0 -341 -172 -541.5t-464 -200.5q-293 0 -464.5 200.5t-171.5 541.5q0 340 172 540.5t464 200.5zM699 1416q-269 0 -427.5 -188t-158.5 -506t159 -506.5t427 -188.5t427 188.5t159 506.5t-159 506t-427 188zM836 1552
q-36 0 -68 17.5t-55.5 42t-46 49t-49 42t-55.5 17.5q-97 0 -97 -158h-45q0 92 36 146.5t106 54.5q36 0 68 -17t55.5 -41.5t46 -49.5t49.5 -42t55 -17q97 0 97 158h45q0 -93 -36 -147.5t-106 -54.5z" />
    <glyph glyph-name="Odieresis" unicode="&#xd6;" horiz-adv-x="1398" 
d="M560 1556q-22 0 -38.5 16t-16.5 38t16 37.5t39 15.5q22 0 38 -15.5t16 -37.5t-16 -38t-38 -16zM838 1556q-22 0 -38 16t-16 38t16 37.5t38 15.5q23 0 39 -15.5t16 -37.5t-16.5 -38t-38.5 -16zM699 1463q291 0 463.5 -200.5t172.5 -540.5q0 -341 -172 -541.5t-464 -200.5
q-293 0 -464.5 200.5t-171.5 541.5q0 340 172 540.5t464 200.5zM699 1416q-269 0 -427.5 -188t-158.5 -506t159 -506.5t427 -188.5t427 188.5t159 506.5t-159 506t-427 188z" />
    <glyph glyph-name="multiply" unicode="&#xd7;" horiz-adv-x="1179" 
d="M590 546l-326 -326l-34 32l326 327l-327 327l35 34l325 -328l327 326l33 -32l-325 -327l325 -325l-34 -34z" />
    <glyph glyph-name="Oslash" unicode="&#xd8;" horiz-adv-x="1398" 
d="M1136 1216l-818 -1049q152 -140 381 -140q268 0 427 188.5t159 506.5q0 308 -149 494zM287 199l820 1050q-158 167 -408 167q-269 0 -427.5 -188t-158.5 -506q0 -333 174 -523zM1325 1458l-157 -202q167 -200 167 -534q0 -341 -172 -541.5t-464 -200.5q-248 0 -412 147
l-173 -222l-37 25l178 228q-192 201 -192 564q0 340 172 540.5t464 200.5q270 0 439 -174l151 194z" />
    <glyph glyph-name="Ugrave" unicode="&#xd9;" horiz-adv-x="1305" 
d="M635 1554l-303 287h66l294 -287h-57zM174 1443v-943q0 -218 129.5 -345.5t349.5 -127.5q221 0 350.5 127.5t129.5 345.5v943h50v-944q0 -237 -143.5 -378t-386.5 -141t-386 141t-143 378v944h50z" />
    <glyph glyph-name="Uacute" unicode="&#xda;" horiz-adv-x="1305" 
d="M671 1554h-56l293 287h66zM174 1443v-943q0 -218 129.5 -345.5t349.5 -127.5q221 0 350.5 127.5t129.5 345.5v943h50v-944q0 -237 -143.5 -378t-386.5 -141t-386 141t-143 378v944h50z" />
    <glyph glyph-name="Ucircumflex" unicode="&#xdb;" horiz-adv-x="1305" 
d="M630 1841h46l266 -287h-59l-229 249h-2l-229 -249h-59zM174 1443v-943q0 -218 129.5 -345.5t349.5 -127.5q221 0 350.5 127.5t129.5 345.5v943h50v-944q0 -237 -143.5 -378t-386.5 -141t-386 141t-143 378v944h50z" />
    <glyph glyph-name="Udieresis" unicode="&#xdc;" horiz-adv-x="1305" 
d="M514 1556q-22 0 -38.5 16t-16.5 38t16 37.5t39 15.5q22 0 38 -15.5t16 -37.5t-16 -38t-38 -16zM792 1556q-22 0 -38 16t-16 38t16 37.5t38 15.5q23 0 39 -15.5t16 -37.5t-16.5 -38t-38.5 -16zM174 1443v-943q0 -218 129.5 -345.5t349.5 -127.5q221 0 350.5 127.5
t129.5 345.5v943h50v-944q0 -237 -143.5 -378t-386.5 -141t-386 141t-143 378v944h50z" />
    <glyph glyph-name="Yacute" unicode="&#xdd;" horiz-adv-x="1148" 
d="M600 0h-50v631l-529 812h60l492 -758h4l491 758h59l-527 -812v-631zM592 1554h-56l293 287h66z" />
    <glyph glyph-name="Thorn" unicode="&#xde;" horiz-adv-x="1202" 
d="M164 1443h50v-291h413q205 0 326 -107t121 -293t-120 -292t-327 -106h-413v-354h-50v1443zM214 1105v-704h411q188 0 293.5 94.5t105.5 256.5t-106 257.5t-293 95.5h-411z" />
    <glyph glyph-name="germandbls" unicode="&#xdf;" horiz-adv-x="1047" 
d="M169 0h-49v1064q0 177 96.5 274.5t271.5 97.5q168 0 271.5 -91.5t103.5 -240.5q0 -125 -78.5 -221t-190.5 -121v-3q170 -14 280 -115.5t110 -254.5q0 -174 -127 -291.5t-316 -117.5q-87 0 -179 17v49q77 -20 178 -20q165 0 280 104.5t115 258.5q0 150 -123.5 245.5
t-318.5 95.5h-109v47h108q131 0 226 97t95 229q0 127 -90 207t-233 80q-151 0 -236 -87t-85 -240v-1063z" />
    <glyph glyph-name="agrave" unicode="&#xe0;" horiz-adv-x="1021" 
d="M449 30q169 0 289.5 107.5t120.5 258.5v182l-381 -29q-165 -13 -251.5 -80t-86.5 -183q0 -111 87.5 -183.5t221.5 -72.5zM446 -16q-157 0 -256.5 84.5t-99.5 217.5q0 137 96 214t284 92l389 30v97q0 153 -86.5 240t-238.5 87q-151 0 -244 -74t-114 -209h-47
q17 153 126 241t279 88q173 0 273.5 -99.5t100.5 -270.5v-722h-49v245h-1q-39 -116 -153.5 -188.5t-258.5 -72.5zM581 1254h-53l-246 303h63z" />
    <glyph glyph-name="aacute" unicode="&#xe1;" horiz-adv-x="1021" 
d="M449 30q169 0 289.5 107.5t120.5 258.5v182l-381 -29q-165 -13 -251.5 -80t-86.5 -183q0 -111 87.5 -183.5t221.5 -72.5zM446 -16q-157 0 -256.5 84.5t-99.5 217.5q0 137 96 214t284 92l389 30v97q0 153 -86.5 240t-238.5 87q-151 0 -244 -74t-114 -209h-47
q17 153 126 241t279 88q173 0 273.5 -99.5t100.5 -270.5v-722h-49v245h-1q-39 -116 -153.5 -188.5t-258.5 -72.5zM538 1254h-53l236 303h63z" />
    <glyph glyph-name="acircumflex" unicode="&#xe2;" horiz-adv-x="1021" 
d="M449 30q169 0 289.5 107.5t120.5 258.5v182l-381 -29q-165 -13 -251.5 -80t-86.5 -183q0 -111 87.5 -183.5t221.5 -72.5zM446 -16q-157 0 -256.5 84.5t-99.5 217.5q0 137 96 214t284 92l389 30v97q0 153 -86.5 240t-238.5 87q-151 0 -244 -74t-114 -209h-47
q17 153 126 241t279 88q173 0 273.5 -99.5t100.5 -270.5v-722h-49v245h-1q-39 -116 -153.5 -188.5t-258.5 -72.5zM555 1557l265 -303h-56l-230 264h-2l-230 -264h-56l265 303h44z" />
    <glyph glyph-name="atilde" unicode="&#xe3;" horiz-adv-x="1021" 
d="M449 30q169 0 289.5 107.5t120.5 258.5v182l-381 -29q-165 -13 -251.5 -80t-86.5 -183q0 -111 87.5 -183.5t221.5 -72.5zM446 -16q-157 0 -256.5 84.5t-99.5 217.5q0 137 96 214t284 92l389 30v97q0 153 -86.5 240t-238.5 87q-151 0 -244 -74t-114 -209h-47
q17 153 126 241t279 88q173 0 273.5 -99.5t100.5 -270.5v-722h-49v245h-1q-39 -116 -153.5 -188.5t-258.5 -72.5zM670 1254q-36 0 -68 17.5t-55.5 42t-46 49t-49 42t-55.5 17.5q-97 0 -97 -158h-45q0 92 36 146.5t106 54.5q36 0 68 -17t55.5 -41.5t46 -49.5t49.5 -42t55 -17
q97 0 97 158h45q0 -93 -36 -147.5t-106 -54.5z" />
    <glyph glyph-name="adieresis" unicode="&#xe4;" horiz-adv-x="1021" 
d="M449 30q169 0 289.5 107.5t120.5 258.5v182l-381 -29q-165 -13 -251.5 -80t-86.5 -183q0 -111 87.5 -183.5t221.5 -72.5zM446 -16q-157 0 -256.5 84.5t-99.5 217.5q0 137 96 214t284 92l389 30v97q0 153 -86.5 240t-238.5 87q-151 0 -244 -74t-114 -209h-47
q17 153 126 241t279 88q173 0 273.5 -99.5t100.5 -270.5v-722h-49v245h-1q-39 -116 -153.5 -188.5t-258.5 -72.5zM394 1254q-22 0 -38.5 16t-16.5 38t16 37.5t39 15.5q22 0 38 -15.5t16 -37.5t-16 -38t-38 -16zM672 1254q-22 0 -38 16t-16 38t16 37.5t38 15.5q23 0 39 -15.5
t16 -37.5t-16.5 -38t-38.5 -16z" />
    <glyph glyph-name="aring" unicode="&#xe5;" horiz-adv-x="1021" 
d="M449 30q169 0 289.5 107.5t120.5 258.5v182l-381 -29q-165 -13 -251.5 -80t-86.5 -183q0 -111 87.5 -183.5t221.5 -72.5zM446 -16q-157 0 -256.5 84.5t-99.5 217.5q0 137 96 214t284 92l389 30v97q0 153 -86.5 240t-238.5 87q-151 0 -244 -74t-114 -209h-47
q17 153 126 241t279 88q173 0 273.5 -99.5t100.5 -270.5v-722h-49v245h-1q-39 -116 -153.5 -188.5t-258.5 -72.5zM533 1249q-68 0 -116.5 49t-48.5 117t48.5 116.5t116.5 48.5q67 0 115.5 -48.5t48.5 -116.5t-48.5 -117t-115.5 -49zM533 1288q53 0 89.5 37t36.5 90t-36.5 90
t-89.5 37q-54 0 -90.5 -37t-36.5 -90t36.5 -90t90.5 -37z" />
    <glyph glyph-name="ae" unicode="&#xe6;" horiz-adv-x="1848" 
d="M1335 -16q-161 0 -275 84t-163 243h-4q-38 -150 -158.5 -238.5t-283.5 -88.5q-161 0 -261 83t-100 215q0 129 95 202t280 85l394 27v141q0 146 -88 227.5t-242 81.5q-148 0 -243 -75t-114 -208h-48q16 150 126.5 239.5t278.5 89.5q159 0 261 -82.5t109 -225.5h5
q44 137 156 222.5t272 85.5q206 0 328.5 -138.5t122.5 -370.5v-40h-875v-7q0 -230 117 -368t311 -138q153 0 253 75t125 194h51q-28 -140 -143 -227.5t-287 -87.5zM1331 1046q-183 0 -298 -126t-124 -332h824q0 206 -110 332t-292 126zM452 30q169 0 288 108t119 263v150
l-384 -26q-165 -10 -250 -72.5t-85 -170.5q0 -110 87 -181t225 -71z" />
    <glyph glyph-name="ccedilla" unicode="&#xe7;" horiz-adv-x="1019" 
d="M958 760h-50q-26 126 -128.5 206t-245.5 80q-193 0 -306 -137.5t-113 -370.5t112.5 -370t306.5 -137q145 0 246 76t126 200h50q-25 -141 -135 -229.5t-271 -93.5l-52 -125q98 0 152 -40t54 -113q0 -74 -60 -120.5t-156 -47.5q-76 0 -122 17v43q45 -17 121 -17
q72 0 121.5 36t49.5 88q0 54 -42.5 83.5t-121.5 29.5h-46v33l56 134q-203 11 -321 159t-118 394q0 254 127 404t342 150q163 0 280 -93.5t144 -238.5z" />
    <glyph glyph-name="egrave" unicode="&#xe8;" horiz-adv-x="1056" 
d="M581 1254h-53l-246 303h63zM533 1046q-180 0 -294 -127.5t-123 -337.5h825q0 207 -112.5 336t-295.5 129zM926 299h51q-28 -140 -144 -227.5t-292 -87.5q-219 0 -347.5 147t-128.5 407q0 250 128 402t340 152q205 0 331.5 -143t126.5 -375v-38h-876v-2q0 -237 116 -370.5
t311 -133.5q156 0 257.5 75t126.5 194z" />
    <glyph glyph-name="eacute" unicode="&#xe9;" horiz-adv-x="1056" 
d="M538 1254h-53l236 303h63zM533 1046q-180 0 -294 -127.5t-123 -337.5h825q0 207 -112.5 336t-295.5 129zM926 299h51q-28 -140 -144 -227.5t-292 -87.5q-219 0 -347.5 147t-128.5 407q0 250 128 402t340 152q205 0 331.5 -143t126.5 -375v-38h-876v-2q0 -237 116 -370.5
t311 -133.5q156 0 257.5 75t126.5 194z" />
    <glyph glyph-name="ecircumflex" unicode="&#xea;" horiz-adv-x="1056" 
d="M555 1557l265 -303h-56l-230 264h-2l-230 -264h-56l265 303h44zM533 1046q-180 0 -294 -127.5t-123 -337.5h825q0 207 -112.5 336t-295.5 129zM926 299h51q-28 -140 -144 -227.5t-292 -87.5q-219 0 -347.5 147t-128.5 407q0 250 128 402t340 152q205 0 331.5 -143
t126.5 -375v-38h-876v-2q0 -237 116 -370.5t311 -133.5q156 0 257.5 75t126.5 194z" />
    <glyph glyph-name="edieresis" unicode="&#xeb;" horiz-adv-x="1056" 
d="M533 1046q-180 0 -294 -127.5t-123 -337.5h825q0 207 -112.5 336t-295.5 129zM926 299h51q-28 -140 -144 -227.5t-292 -87.5q-219 0 -347.5 147t-128.5 407q0 250 128 402t340 152q205 0 331.5 -143t126.5 -375v-38h-876v-2q0 -237 116 -370.5t311 -133.5q156 0 257.5 75
t126.5 194zM394 1254q-22 0 -38.5 16t-16.5 38t16 37.5t39 15.5q22 0 38 -15.5t16 -37.5t-16 -38t-38 -16zM672 1254q-22 0 -38 16t-16 38t16 37.5t38 15.5q23 0 39 -15.5t16 -37.5t-16.5 -38t-38.5 -16z" />
    <glyph glyph-name="igrave" unicode="&#xec;" horiz-adv-x="309" 
d="M203 1254h-53l-246 303h63zM130 0v1076h49v-1076h-49z" />
    <glyph glyph-name="iacute" unicode="&#xed;" horiz-adv-x="309" 
d="M160 1254h-53l236 303h63zM130 0v1076h49v-1076h-49z" />
    <glyph glyph-name="icircumflex" unicode="&#xee;" horiz-adv-x="309" 
d="M177 1557l265 -303h-56l-230 264h-2l-230 -264h-56l265 303h44zM130 0v1076h49v-1076h-49z" />
    <glyph glyph-name="idieresis" unicode="&#xef;" horiz-adv-x="309" 
d="M130 0v1076h49v-1076h-49zM16 1254q-22 0 -38.5 16t-16.5 38t16 37.5t39 15.5q22 0 38 -15.5t16 -37.5t-16 -38t-38 -16zM294 1254q-22 0 -38 16t-16 38t16 37.5t38 15.5q23 0 39 -15.5t16 -37.5t-16.5 -38t-38.5 -16z" />
    <glyph glyph-name="eth" unicode="&#xf0;" horiz-adv-x="1114" 
d="M539 -16q-209 0 -341 153.5t-132 398.5q0 224 131.5 370t333.5 146q132 0 235.5 -63.5t160.5 -179.5h4q-59 297 -236 477l-292 -126l-16 40l277 118q-82 75 -243 160h79q136 -73 208 -142l272 115l16 -39l-256 -108q257 -275 257 -749q0 -261 -124.5 -416t-333.5 -155z
M532 1006q-181 0 -298.5 -132.5t-117.5 -336.5q0 -224 118 -365.5t305 -141.5q181 0 295 138t114 358t-113 350t-303 130z" />
    <glyph glyph-name="ntilde" unicode="&#xf1;" horiz-adv-x="1062" 
d="M674 1254q-36 0 -68 17.5t-55.5 42t-46 49t-49 42t-55.5 17.5q-97 0 -97 -158h-45q0 92 36 146.5t106 54.5q36 0 68 -17t55.5 -41.5t46 -49.5t49.5 -42t55 -17q97 0 97 158h45q0 -93 -36 -147.5t-106 -54.5zM120 0v1076h46v-254h2q35 121 138.5 195.5t242.5 74.5
q179 0 289.5 -108t110.5 -288v-696h-49v694q0 162 -98.5 257t-258.5 95q-166 0 -270 -112t-104 -288v-646h-49z" />
    <glyph glyph-name="ograve" unicode="&#xf2;" horiz-adv-x="1078" 
d="M587 1253h-53l-246 303h63zM539 -16q-214 0 -344 150.5t-130 403.5t130.5 403.5t343.5 150.5t343.5 -150.5t130.5 -403.5t-130.5 -403.5t-343.5 -150.5zM539 31q192 0 308.5 137.5t116.5 369.5q0 233 -116.5 370.5t-308.5 137.5t-308 -137.5t-116 -370.5t116 -370
t308 -137z" />
    <glyph glyph-name="oacute" unicode="&#xf3;" horiz-adv-x="1078" 
d="M544 1253h-53l236 303h63zM539 -16q-214 0 -344 150.5t-130 403.5t130.5 403.5t343.5 150.5t343.5 -150.5t130.5 -403.5t-130.5 -403.5t-343.5 -150.5zM539 31q192 0 308.5 137.5t116.5 369.5q0 233 -116.5 370.5t-308.5 137.5t-308 -137.5t-116 -370.5t116 -370
t308 -137z" />
    <glyph glyph-name="ocircumflex" unicode="&#xf4;" horiz-adv-x="1078" 
d="M561 1556l265 -303h-56l-230 264h-2l-230 -264h-56l265 303h44zM539 -16q-214 0 -344 150.5t-130 403.5t130.5 403.5t343.5 150.5t343.5 -150.5t130.5 -403.5t-130.5 -403.5t-343.5 -150.5zM539 31q192 0 308.5 137.5t116.5 369.5q0 233 -116.5 370.5t-308.5 137.5
t-308 -137.5t-116 -370.5t116 -370t308 -137z" />
    <glyph glyph-name="otilde" unicode="&#xf5;" horiz-adv-x="1078" 
d="M675 1253q-36 0 -68 17.5t-55.5 42t-46 49t-49 42t-55.5 17.5q-97 0 -97 -158h-45q0 92 36 146.5t106 54.5q36 0 68 -17t55.5 -42t46 -49.5t49.5 -41.5t55 -17q97 0 97 158h45q0 -93 -36 -147.5t-106 -54.5zM539 -16q-214 0 -344 150.5t-130 403.5t130.5 403.5
t343.5 150.5t343.5 -150.5t130.5 -403.5t-130.5 -403.5t-343.5 -150.5zM539 31q192 0 308.5 137.5t116.5 369.5q0 233 -116.5 370.5t-308.5 137.5t-308 -137.5t-116 -370.5t116 -370t308 -137z" />
    <glyph glyph-name="odieresis" unicode="&#xf6;" horiz-adv-x="1078" 
d="M400 1253q-22 0 -38.5 16t-16.5 38t16 37.5t39 15.5q22 0 38 -15.5t16 -37.5t-16 -38t-38 -16zM678 1253q-22 0 -38 16t-16 38t16 37.5t38 15.5q23 0 39 -15.5t16 -37.5t-16.5 -38t-38.5 -16zM539 -16q-214 0 -344 150.5t-130 403.5t130.5 403.5t343.5 150.5
t343.5 -150.5t130.5 -403.5t-130.5 -403.5t-343.5 -150.5zM539 31q192 0 308.5 137.5t116.5 369.5q0 233 -116.5 370.5t-308.5 137.5t-308 -137.5t-116 -370.5t116 -370t308 -137z" />
    <glyph glyph-name="divide" unicode="&#xf7;" horiz-adv-x="1179" 
d="M590 841q-28 0 -49 20.5t-21 49.5q0 30 20.5 50t49.5 20t49.5 -20t20.5 -50q0 -29 -20.5 -49.5t-49.5 -20.5zM590 152q-28 0 -49 21t-21 49q0 30 20.5 50t49.5 20t49.5 -20t20.5 -50q0 -29 -20.5 -49.5t-49.5 -20.5zM1074 555h-970v45h970v-45z" />
    <glyph glyph-name="oslash" unicode="&#xf8;" horiz-adv-x="1078" 
d="M850 905l-566 -788q104 -86 255 -86q192 0 308.5 137.5t116.5 369.5q0 230 -114 367zM250 147l569 791q-111 108 -280 108q-192 0 -308 -137.5t-116 -370.5q0 -251 135 -391zM999 1112l-120 -167q134 -151 134 -407q0 -253 -130.5 -403.5t-343.5 -150.5q-165 0 -284 93
l-125 -174l-37 26l128 178q-156 151 -156 431q0 253 130.5 403.5t343.5 150.5q185 0 308 -114l115 159z" />
    <glyph glyph-name="ugrave" unicode="&#xf9;" horiz-adv-x="1062" 
d="M576 1253h-53l-246 303h63zM942 1076v-1076h-46v251h-2q-33 -114 -143 -190.5t-245 -76.5q-176 0 -284.5 106.5t-108.5 284.5v701h49v-694q0 -164 96 -257.5t253 -93.5q163 0 272.5 109t109.5 287v649h49z" />
    <glyph glyph-name="uacute" unicode="&#xfa;" horiz-adv-x="1062" 
d="M533 1253h-53l236 303h63zM942 1076v-1076h-46v251h-2q-33 -114 -143 -190.5t-245 -76.5q-176 0 -284.5 106.5t-108.5 284.5v701h49v-694q0 -164 96 -257.5t253 -93.5q163 0 272.5 109t109.5 287v649h49z" />
    <glyph glyph-name="ucircumflex" unicode="&#xfb;" horiz-adv-x="1062" 
d="M550 1556l265 -303h-56l-230 264h-2l-230 -264h-56l265 303h44zM942 1076v-1076h-46v251h-2q-33 -114 -143 -190.5t-245 -76.5q-176 0 -284.5 106.5t-108.5 284.5v701h49v-694q0 -164 96 -257.5t253 -93.5q163 0 272.5 109t109.5 287v649h49z" />
    <glyph glyph-name="udieresis" unicode="&#xfc;" horiz-adv-x="1062" 
d="M942 1076v-1076h-46v251h-2q-33 -114 -143 -190.5t-245 -76.5q-176 0 -284.5 106.5t-108.5 284.5v701h49v-694q0 -164 96 -257.5t253 -93.5q163 0 272.5 109t109.5 287v649h49zM389 1253q-22 0 -38.5 16t-16.5 38t16 37.5t39 15.5q22 0 38 -15.5t16 -37.5t-16 -38
t-38 -16zM667 1253q-22 0 -38 16t-16 38t16 37.5t38 15.5q23 0 39 -15.5t16 -37.5t-16.5 -38t-38.5 -16z" />
    <glyph glyph-name="yacute" unicode="&#xfd;" horiz-adv-x="888" 
d="M171 -362q-26 0 -47 9v46q23 -9 52 -9q71 0 115.5 45t90.5 161l35 91l-415 1095h54l387 -1029h2l388 1029h54l-424 -1120q-51 -134 -89.5 -199t-84 -92t-118.5 -27zM449 1253h-53l236 303h63z" />
    <glyph glyph-name="thorn" unicode="&#xfe;" horiz-adv-x="1116" 
d="M597 1092q202 0 328 -153.5t126 -400.5t-126 -400.5t-328 -153.5q-144 0 -255.5 82.5t-157.5 223.5h-5v-683h-49v1869h47v-701h5q44 145 156 231t259 86zM594 30q182 0 294.5 140.5t112.5 366.5t-113 367.5t-294 141.5q-183 0 -299 -142t-116 -366q0 -223 116.5 -365.5
t298.5 -142.5z" />
    <glyph glyph-name="ydieresis" unicode="&#xff;" horiz-adv-x="888" 
d="M171 -362q-26 0 -47 9v46q23 -9 52 -9q71 0 115.5 45t90.5 161l35 91l-415 1095h54l387 -1029h2l388 1029h54l-424 -1120q-51 -134 -89.5 -199t-84 -92t-118.5 -27zM305 1253q-22 0 -38.5 16t-16.5 38t16 37.5t39 15.5q22 0 38 -15.5t16 -37.5t-16 -38t-38 -16zM583 1253
q-22 0 -38 16t-16 38t16 37.5t38 15.5q23 0 39 -15.5t16 -37.5t-16.5 -38t-38.5 -16z" />
    <glyph glyph-name="Amacron" unicode="&#x100;" horiz-adv-x="1201" 
d="M1125 0l-189 501h-671l-190 -501h-55l555 1443h51l555 -1443h-56zM598 1374l-315 -827h635l-315 827h-5zM882 1659v-43h-564v43h564z" />
    <glyph glyph-name="amacron" unicode="&#x101;" horiz-adv-x="1021" 
d="M449 30q169 0 289.5 107.5t120.5 258.5v182l-381 -29q-165 -13 -251.5 -80t-86.5 -183q0 -111 87.5 -183.5t221.5 -72.5zM446 -16q-157 0 -256.5 84.5t-99.5 217.5q0 137 96 214t284 92l389 30v97q0 153 -86.5 240t-238.5 87q-151 0 -244 -74t-114 -209h-47
q17 153 126 241t279 88q173 0 273.5 -99.5t100.5 -270.5v-722h-49v245h-1q-39 -116 -153.5 -188.5t-258.5 -72.5zM818 1348v-43h-584v43h584z" />
    <glyph glyph-name="Abreve" unicode="&#x102;" horiz-adv-x="1201" 
d="M1125 0l-189 501h-671l-190 -501h-55l555 1443h51l555 -1443h-56zM598 1374l-315 -827h635l-315 827h-5zM343 1771h45q0 -75 58.5 -125t153.5 -50t153.5 50t58.5 125h45q0 -99 -71.5 -158t-185.5 -59t-185.5 59t-71.5 158z" />
    <glyph glyph-name="abreve" unicode="&#x103;" horiz-adv-x="1021" 
d="M449 30q169 0 289.5 107.5t120.5 258.5v182l-381 -29q-165 -13 -251.5 -80t-86.5 -183q0 -111 87.5 -183.5t221.5 -72.5zM446 -16q-157 0 -256.5 84.5t-99.5 217.5q0 137 96 214t284 92l389 30v97q0 153 -86.5 240t-238.5 87q-151 0 -244 -74t-114 -209h-47
q17 153 126 241t279 88q173 0 273.5 -99.5t100.5 -270.5v-722h-49v245h-1q-39 -116 -153.5 -188.5t-258.5 -72.5zM275 1490h45q0 -88 58 -141t155 -53t155 53t58 141h45q0 -112 -72 -174.5t-186 -62.5t-186 62.5t-72 174.5z" />
    <glyph glyph-name="Aogonek" unicode="&#x104;" horiz-adv-x="1201" 
d="M598 1374l-315 -827h635l-315 827h-5zM1162 -374q-23 -10 -72 -10q-85 0 -139 47.5t-54 121.5q0 73 57.5 133.5t165.5 97.5l-184 485h-671l-190 -501h-55l555 1443h51l555 -1443l-6 -2q-112 -37 -170.5 -90t-58.5 -118q0 -56 41 -92t105 -36q49 0 70 7v-43z" />
    <glyph glyph-name="aogonek" unicode="&#x105;" horiz-adv-x="1021" 
d="M449 30q169 0 289.5 107.5t120.5 258.5v182l-381 -29q-165 -13 -251.5 -80t-86.5 -183q0 -111 87.5 -183.5t221.5 -72.5zM908 -374q-27 -10 -73 -10q-84 0 -138.5 47.5t-54.5 121.5q0 144 217 233v227h-1q-39 -116 -153.5 -188.5t-258.5 -72.5q-157 0 -256.5 84.5
t-99.5 217.5q0 137 96 214t284 92l389 30v97q0 153 -86.5 240t-238.5 87q-151 0 -244 -74t-114 -209h-47q17 153 126 241t279 88q173 0 273.5 -99.5t100.5 -270.5v-722l-7 -3q-107 -46 -158.5 -96t-51.5 -111q0 -56 41 -92t106 -36q47 0 70 7v-43z" />
    <glyph glyph-name="Cacute" unicode="&#x106;" horiz-adv-x="1303" 
d="M711 1554h-56l293 287h66zM692 -20q-287 0 -458 204t-171 548q0 337 169.5 534t459.5 197q215 0 377 -140.5t181 -343.5h-49q-20 184 -167 310.5t-342 126.5q-266 0 -422.5 -184.5t-156.5 -499.5q0 -324 157.5 -514.5t421.5 -190.5q203 0 347 115t162 298h49
q-11 -134 -86.5 -239t-199 -163t-272.5 -58z" />
    <glyph glyph-name="cacute" unicode="&#x107;" horiz-adv-x="1019" 
d="M958 760h-50q-26 126 -128.5 206t-245.5 80q-193 0 -306 -137.5t-113 -370.5t112.5 -370t306.5 -137q145 0 246 76t126 200h50q-26 -145 -141 -234t-281 -89q-215 0 -342 149.5t-127 404.5q0 254 127 404t342 150q163 0 280 -93.5t144 -238.5zM539 1254h-53l236 303h63z
" />
    <glyph glyph-name="Ccircumflex" unicode="&#x108;" horiz-adv-x="1303" 
d="M692 -20q-287 0 -458 204t-171 548q0 337 169.5 534t459.5 197q215 0 377 -140.5t181 -343.5h-49q-20 184 -167 310.5t-342 126.5q-266 0 -422.5 -184.5t-156.5 -499.5q0 -324 157.5 -514.5t421.5 -190.5q203 0 347 115t162 298h49q-11 -134 -86.5 -239t-199 -163
t-272.5 -58zM670 1841h46l266 -287h-59l-229 249h-2l-229 -249h-59z" />
    <glyph glyph-name="ccircumflex" unicode="&#x109;" horiz-adv-x="1019" 
d="M556 1557l265 -303h-56l-230 264h-2l-230 -264h-56l265 303h44zM958 760h-50q-26 126 -128.5 206t-245.5 80q-193 0 -306 -137.5t-113 -370.5t112.5 -370t306.5 -137q145 0 246 76t126 200h50q-26 -145 -141 -234t-281 -89q-215 0 -342 149.5t-127 404.5q0 254 127 404
t342 150q163 0 280 -93.5t144 -238.5z" />
    <glyph glyph-name="Cdotaccent" unicode="&#x10a;" horiz-adv-x="1303" 
d="M693 1556q-26 0 -45 19t-19 45q0 25 19 44t45 19t45 -19t19 -44q0 -26 -19 -45t-45 -19zM692 -20q-287 0 -458 204t-171 548q0 337 169.5 534t459.5 197q215 0 377 -140.5t181 -343.5h-49q-20 184 -167 310.5t-342 126.5q-266 0 -422.5 -184.5t-156.5 -499.5
q0 -324 157.5 -514.5t421.5 -190.5q203 0 347 115t162 298h49q-11 -134 -86.5 -239t-199 -163t-272.5 -58z" />
    <glyph glyph-name="cdotaccent" unicode="&#x10b;" horiz-adv-x="1019" 
d="M958 760h-50q-26 126 -128.5 206t-245.5 80q-193 0 -306 -137.5t-113 -370.5t112.5 -370t306.5 -137q145 0 246 76t126 200h50q-26 -145 -141 -234t-281 -89q-215 0 -342 149.5t-127 404.5q0 254 127 404t342 150q163 0 280 -93.5t144 -238.5zM534 1254q-26 0 -45 19
t-19 45t19 45t45 19t45.5 -19t19.5 -45t-19.5 -45t-45.5 -19z" />
    <glyph glyph-name="Ccaron" unicode="&#x10c;" horiz-adv-x="1303" 
d="M692 -20q-287 0 -458 204t-171 548q0 337 169.5 534t459.5 197q215 0 377 -140.5t181 -343.5h-49q-20 184 -167 310.5t-342 126.5q-266 0 -422.5 -184.5t-156.5 -499.5q0 -324 157.5 -514.5t421.5 -190.5q203 0 347 115t162 298h49q-11 -134 -86.5 -239t-199 -163
t-272.5 -58zM670 1554l-266 287h59l229 -250h2l229 250h59l-266 -287h-46z" />
    <glyph glyph-name="ccaron" unicode="&#x10d;" horiz-adv-x="1019" 
d="M556 1254h-44l-265 303h56l230 -264h2l230 264h56zM958 760h-50q-26 126 -128.5 206t-245.5 80q-193 0 -306 -137.5t-113 -370.5t112.5 -370t306.5 -137q145 0 246 76t126 200h50q-26 -145 -141 -234t-281 -89q-215 0 -342 149.5t-127 404.5q0 254 127 404t342 150
q163 0 280 -93.5t144 -238.5z" />
    <glyph glyph-name="Dcaron" unicode="&#x10e;" horiz-adv-x="1313" 
d="M530 1554l-266 287h59l229 -250h2l229 250h59l-266 -287h-46zM124 1443h436q330 0 510 -188t180 -533q0 -346 -180 -534t-510 -188h-436v1443zM175 1396v-1349h384q308 0 474.5 175t166.5 500q0 324 -166.5 499t-474.5 175h-384z" />
    <glyph glyph-name="dcaron" unicode="&#x10f;" horiz-adv-x="1209" 
d="M1192 1476h47l-10 -355h-37v355zM524 -16q-202 0 -330.5 154.5t-128.5 399.5q0 246 128.5 400t330.5 154q156 0 272 -95t148 -236h2v745h50v-1506h-46v322h-2q-35 -146 -151.5 -242t-272.5 -96zM526 1046q-181 0 -296 -141t-115 -366q0 -226 115 -367t296 -141
q184 0 302 141.5t118 365.5t-118 366t-302 142z" />
    <glyph glyph-name="Dcroat" unicode="&#x110;" horiz-adv-x="1332" 
d="M195 47h384q308 0 474.5 175t166.5 500q0 324 -166.5 499t-474.5 175h-384v-632h382v-47h-382v-670zM144 1443h436q330 0 510 -188t180 -533q0 -346 -180 -534t-510 -188h-436v717h-121v47h121v679z" />
    <glyph glyph-name="dcroat" unicode="&#x111;" horiz-adv-x="1148" 
d="M526 31q184 0 302 141.5t118 365.5t-118 366t-302 142q-181 0 -296 -141t-115 -366q0 -226 115 -367t296 -141zM1135 1325v-44h-139v-1281h-46v322h-2q-35 -146 -151.5 -242t-272.5 -96q-202 0 -330.5 154.5t-128.5 399.5q0 246 128.5 400t330.5 154q156 0 272 -95
t148 -236h2v520h-287v44h287v181h50v-181h139z" />
    <glyph glyph-name="Emacron" unicode="&#x112;" horiz-adv-x="1050" 
d="M950 47v-47h-826v1443h826v-47h-776v-632h740v-46h-740v-671h776zM819 1659v-43h-564v43h564z" />
    <glyph glyph-name="emacron" unicode="&#x113;" horiz-adv-x="1056" 
d="M533 1046q-180 0 -294 -127.5t-123 -337.5h825q0 207 -112.5 336t-295.5 129zM926 299h51q-28 -140 -144 -227.5t-292 -87.5q-219 0 -347.5 147t-128.5 407q0 250 128 402t340 152q205 0 331.5 -143t126.5 -375v-38h-876v-2q0 -237 116 -370.5t311 -133.5q156 0 257.5 75
t126.5 194zM818 1348v-43h-584v43h584z" />
    <glyph glyph-name="Ebreve" unicode="&#x114;" horiz-adv-x="1050" 
d="M950 47v-47h-826v1443h826v-47h-776v-632h740v-46h-740v-671h776zM280 1771h45q0 -75 58.5 -125t153.5 -50t153.5 50t58.5 125h45q0 -99 -71.5 -158t-185.5 -59t-185.5 59t-71.5 158z" />
    <glyph glyph-name="ebreve" unicode="&#x115;" horiz-adv-x="1056" 
d="M533 1046q-180 0 -294 -127.5t-123 -337.5h825q0 207 -112.5 336t-295.5 129zM926 299h51q-28 -140 -144 -227.5t-292 -87.5q-219 0 -347.5 147t-128.5 407q0 250 128 402t340 152q205 0 331.5 -143t126.5 -375v-38h-876v-2q0 -237 116 -370.5t311 -133.5q156 0 257.5 75
t126.5 194zM275 1490h45q0 -88 58 -141t155 -53t155 53t58 141h45q0 -112 -72 -174.5t-186 -62.5t-186 62.5t-72 174.5z" />
    <glyph glyph-name="Edotaccent" unicode="&#x116;" horiz-adv-x="1050" 
d="M537 1556q-26 0 -45 19t-19 45q0 25 19 44t45 19t45 -19t19 -44q0 -26 -19 -45t-45 -19zM950 47v-47h-826v1443h826v-47h-776v-632h740v-46h-740v-671h776z" />
    <glyph glyph-name="edotaccent" unicode="&#x117;" horiz-adv-x="1056" 
d="M533 1254q-25 0 -44.5 19t-19.5 45t19 45t45 19t45.5 -19t19.5 -45t-19.5 -45t-45.5 -19zM533 1046q-180 0 -294 -127.5t-123 -337.5h825q0 207 -112.5 336t-295.5 129zM926 299h51q-28 -140 -144 -227.5t-292 -87.5q-219 0 -347.5 147t-128.5 407q0 250 128 402t340 152
q205 0 331.5 -143t126.5 -375v-38h-876v-2q0 -237 116 -370.5t311 -133.5q156 0 257.5 75t126.5 194z" />
    <glyph glyph-name="Eogonek" unicode="&#x118;" horiz-adv-x="1050" 
d="M851 -384q-84 0 -138.5 47.5t-54.5 121.5q0 65 49.5 121.5t131.5 89.5v4h-715v1443h826v-47h-776v-632h740v-46h-740v-671h776v-44l-14 -5q-106 -35 -167.5 -90t-61.5 -118q0 -56 41 -92t106 -36q47 0 70 7v-43q-25 -10 -73 -10z" />
    <glyph glyph-name="eogonek" unicode="&#x119;" horiz-adv-x="1056" 
d="M722 -384q-85 0 -139 47.5t-54 121.5q0 125 149 221v4q-24 -10 -65.5 -18t-71.5 -8q-219 0 -347.5 147t-128.5 407q0 250 128 402t340 152q205 0 331.5 -143t126.5 -375v-38h-876v-2q0 -237 116 -370.5t311 -133.5q156 0 257.5 75t126.5 194h51q-15 -79 -64 -146.5
t-125 -112.5q-110 -66 -160 -125.5t-50 -124.5q0 -56 41 -92t105 -36q49 0 70 7v-43q-28 -10 -72 -10zM533 1046q-180 0 -294 -127.5t-123 -337.5h825q0 207 -112.5 336t-295.5 129z" />
    <glyph glyph-name="Ecaron" unicode="&#x11a;" horiz-adv-x="1050" 
d="M514 1554l-266 287h59l229 -250h2l229 250h59l-266 -287h-46zM950 47v-47h-826v1443h826v-47h-776v-632h740v-46h-740v-671h776z" />
    <glyph glyph-name="ecaron" unicode="&#x11b;" horiz-adv-x="1056" 
d="M555 1254h-44l-265 303h56l230 -264h2l230 264h56zM533 1046q-180 0 -294 -127.5t-123 -337.5h825q0 207 -112.5 336t-295.5 129zM926 299h51q-28 -140 -144 -227.5t-292 -87.5q-219 0 -347.5 147t-128.5 407q0 250 128 402t340 152q205 0 331.5 -143t126.5 -375v-38
h-876v-2q0 -237 116 -370.5t311 -133.5q156 0 257.5 75t126.5 194z" />
    <glyph glyph-name="Gcircumflex" unicode="&#x11c;" horiz-adv-x="1332" 
d="M662 1841h46l266 -287h-59l-229 249h-2l-229 -249h-59zM1259 564q0 -272 -153.5 -428t-420.5 -156q-182 0 -323.5 94.5t-220 265.5t-78.5 391q0 329 171 530.5t451 201.5q213 0 368.5 -118t195.5 -309h-49q-42 172 -183 276t-332 104q-258 0 -415 -188t-157 -497
q0 -313 159 -508.5t413 -195.5q244 0 384.5 143t140.5 392v100h-531v46h580v-144z" />
    <glyph glyph-name="gcircumflex" unicode="&#x11d;" horiz-adv-x="1106" 
d="M581 1557l265 -303h-56l-230 264h-2l-230 -264h-56l265 303h44zM521 31q184 0 300 141.5t116 365.5t-116 366t-300 142q-181 0 -293.5 -141t-112.5 -368q0 -225 112.5 -365.5t293.5 -140.5zM549 -384q-167 0 -280.5 75.5t-136.5 187.5h52q28 -94 125.5 -155.5
t241.5 -61.5q176 0 281 94.5t105 250.5v309h-2q-33 -142 -147 -236.5t-269 -94.5q-202 0 -328 153.5t-126 399.5t126.5 400t327.5 154q156 0 270 -95.5t149 -241.5h2v321h46v-1067q0 -178 -118.5 -285.5t-318.5 -107.5z" />
    <glyph glyph-name="Gbreve" unicode="&#x11e;" horiz-adv-x="1332" 
d="M1259 564q0 -272 -153.5 -428t-420.5 -156q-182 0 -323.5 94.5t-220 265.5t-78.5 391q0 329 171 530.5t451 201.5q213 0 368.5 -118t195.5 -309h-49q-42 172 -183 276t-332 104q-258 0 -415 -188t-157 -497q0 -313 159 -508.5t413 -195.5q244 0 384.5 143t140.5 392v100
h-531v46h580v-144zM428 1771h45q0 -75 58.5 -125t153.5 -50t153.5 50t58.5 125h45q0 -99 -71.5 -158t-185.5 -59t-185.5 59t-71.5 158z" />
    <glyph glyph-name="gbreve" unicode="&#x11f;" horiz-adv-x="1106" 
d="M301 1490h45q0 -88 58 -141t155 -53t155 53t58 141h45q0 -112 -72 -174.5t-186 -62.5t-186 62.5t-72 174.5zM521 31q184 0 300 141.5t116 365.5t-116 366t-300 142q-181 0 -293.5 -141t-112.5 -368q0 -225 112.5 -365.5t293.5 -140.5zM549 -384q-167 0 -280.5 75.5
t-136.5 187.5h52q28 -94 125.5 -155.5t241.5 -61.5q176 0 281 94.5t105 250.5v309h-2q-33 -142 -147 -236.5t-269 -94.5q-202 0 -328 153.5t-126 399.5t126.5 400t327.5 154q156 0 270 -95.5t149 -241.5h2v321h46v-1067q0 -178 -118.5 -285.5t-318.5 -107.5z" />
    <glyph glyph-name="Gdotaccent" unicode="&#x120;" horiz-adv-x="1332" 
d="M685 1556q-26 0 -45 19t-19 45q0 25 19 44t45 19t45 -19t19 -44q0 -26 -19 -45t-45 -19zM1259 564q0 -272 -153.5 -428t-420.5 -156q-182 0 -323.5 94.5t-220 265.5t-78.5 391q0 329 171 530.5t451 201.5q213 0 368.5 -118t195.5 -309h-49q-42 172 -183 276t-332 104
q-258 0 -415 -188t-157 -497q0 -313 159 -508.5t413 -195.5q244 0 384.5 143t140.5 392v100h-531v46h580v-144z" />
    <glyph glyph-name="gdotaccent" unicode="&#x121;" horiz-adv-x="1106" 
d="M559 1254q-25 0 -44.5 19t-19.5 45t19 45t45 19t45.5 -19t19.5 -45t-19.5 -45t-45.5 -19zM521 31q184 0 300 141.5t116 365.5t-116 366t-300 142q-181 0 -293.5 -141t-112.5 -368q0 -225 112.5 -365.5t293.5 -140.5zM549 -384q-167 0 -280.5 75.5t-136.5 187.5h52
q28 -94 125.5 -155.5t241.5 -61.5q176 0 281 94.5t105 250.5v309h-2q-33 -142 -147 -236.5t-269 -94.5q-202 0 -328 153.5t-126 399.5t126.5 400t327.5 154q156 0 270 -95.5t149 -241.5h2v321h46v-1067q0 -178 -118.5 -285.5t-318.5 -107.5z" />
    <glyph glyph-name="Gcommaaccent" unicode="&#x122;" horiz-adv-x="1332" 
d="M616 -480h-46l102 338h57zM1259 564q0 -272 -153.5 -428t-420.5 -156q-182 0 -323.5 94.5t-220 265.5t-78.5 391q0 329 171 530.5t451 201.5q213 0 368.5 -118t195.5 -309h-49q-42 172 -183 276t-332 104q-258 0 -415 -188t-157 -497q0 -313 159 -508.5t413 -195.5
q244 0 384.5 143t140.5 392v100h-531v46h580v-144z" />
    <glyph glyph-name="gcommaaccent" unicode="&#x123;" horiz-adv-x="1106" 
d="M638 1591h46l-102 -338h-57zM521 31q184 0 300 141.5t116 365.5t-116 366t-300 142q-181 0 -293.5 -141t-112.5 -368q0 -225 112.5 -365.5t293.5 -140.5zM549 -384q-167 0 -280.5 75.5t-136.5 187.5h52q28 -94 125.5 -155.5t241.5 -61.5q176 0 281 94.5t105 250.5v309h-2
q-33 -142 -147 -236.5t-269 -94.5q-202 0 -328 153.5t-126 399.5t126.5 400t327.5 154q156 0 270 -95.5t149 -241.5h2v321h46v-1067q0 -178 -118.5 -285.5t-318.5 -107.5z" />
    <glyph glyph-name="Hcircumflex" unicode="&#x124;" horiz-adv-x="1296" 
d="M1172 0h-50v718h-948v-718h-50v1443h50v-678h948v678h50v-1443zM625 1841h46l266 -287h-59l-229 249h-2l-229 -249h-59z" />
    <glyph glyph-name="hcircumflex" unicode="&#x125;" horiz-adv-x="1073" 
d="M130 0v1506h49v-684h2q35 121 139 195.5t243 74.5q178 0 287.5 -108.5t109.5 -288.5v-695h-49v693q0 163 -97.5 258t-256.5 95q-166 0 -272 -112t-106 -289v-645h-49zM132 1904h46l266 -287h-59l-229 249h-2l-229 -249h-59z" />
    <glyph glyph-name="Hbar" unicode="&#x126;" horiz-adv-x="1339" 
d="M1143 765v370h-948v-370h948zM1317 1181v-46h-124v-1135h-50v718h-948v-718h-50v1135h-123v46h123v262h50v-262h948v262h50v-262h124z" />
    <glyph glyph-name="hbar" unicode="&#x127;" horiz-adv-x="1095" 
d="M201 822h2q34 121 138 195.5t244 74.5q178 0 287.5 -108.5t109.5 -288.5v-695h-50v693q0 163 -97.5 258t-256.5 95q-166 0 -271.5 -112t-105.5 -289v-645h-50v1281h-138v44h138v181h50v-181h288v-44h-288v-459z" />
    <glyph glyph-name="Itilde" unicode="&#x128;" horiz-adv-x="298" 
d="M174 0h-50v1443h50v-1443zM286 1552q-36 0 -68 17.5t-55.5 42t-46 49t-49 42t-55.5 17.5q-97 0 -97 -158h-45q0 92 36 146.5t106 54.5q36 0 68 -17t55.5 -41.5t46 -49.5t49.5 -42t55 -17q97 0 97 158h45q0 -93 -36 -147.5t-106 -54.5z" />
    <glyph glyph-name="itilde" unicode="&#x129;" horiz-adv-x="309" 
d="M130 0v1076h49v-1076h-49zM291 1254q-36 0 -68 17.5t-55.5 42t-46 49t-49 42t-55.5 17.5q-97 0 -97 -158h-45q0 92 36 146.5t106 54.5q36 0 68 -17t55.5 -41.5t46 -49.5t49.5 -42t55 -17q97 0 97 158h45q0 -93 -36 -147.5t-106 -54.5z" />
    <glyph glyph-name="Imacron" unicode="&#x12a;" horiz-adv-x="298" 
d="M174 0h-50v1443h50v-1443zM431 1659v-43h-564v43h564z" />
    <glyph glyph-name="imacron" unicode="&#x12b;" horiz-adv-x="309" 
d="M130 0v1076h49v-1076h-49zM440 1348v-43h-584v43h584z" />
    <glyph glyph-name="Ibreve" unicode="&#x12c;" horiz-adv-x="298" 
d="M174 0h-50v1443h50v-1443zM-108 1771h45q0 -75 58.5 -125t153.5 -50t153.5 50t58.5 125h45q0 -99 -71.5 -158t-185.5 -59t-185.5 59t-71.5 158z" />
    <glyph glyph-name="ibreve" unicode="&#x12d;" horiz-adv-x="309" 
d="M130 0v1076h49v-1076h-49zM-103 1490h45q0 -88 58 -141t155 -53t155 53t58 141h45q0 -112 -72 -174.5t-186 -62.5t-186 62.5t-72 174.5z" />
    <glyph glyph-name="Iogonek" unicode="&#x12e;" horiz-adv-x="298" 
d="M124 17v1426h50v-1443l-6 -3q-79 -40 -121.5 -93.5t-42.5 -113.5q0 -56 41 -92t106 -36q48 0 69 7v-43q-27 -10 -72 -10q-84 0 -138.5 47.5t-54.5 121.5q0 70 44.5 131.5t124.5 100.5z" />
    <glyph glyph-name="iogonek" unicode="&#x12f;" horiz-adv-x="309" 
d="M155 1366q-20 0 -34.5 14t-14.5 34t14.5 34t34.5 14t34 -14t14 -34t-14.5 -34t-33.5 -14zM130 17v1059h49v-1076l-6 -3q-79 -40 -121 -93.5t-42 -113.5q0 -56 41 -92t105 -36q47 0 70 7v-43q-27 -10 -73 -10q-84 0 -138 47.5t-54 121.5q0 71 45 132.5t124 99.5z" />
    <glyph glyph-name="Idotaccent" unicode="&#x130;" horiz-adv-x="298" 
d="M174 0h-50v1443h50v-1443zM149 1556q-26 0 -45 19t-19 45q0 25 19 44t45 19t45 -19t19 -44q0 -26 -19 -45t-45 -19z" />
    <glyph glyph-name="dotlessi" unicode="&#x131;" horiz-adv-x="309" 
d="M130 0v1076h49v-1076h-49z" />
    <glyph glyph-name="IJ" unicode="&#x132;" horiz-adv-x="1231" 
d="M174 0h-50v1443h50v-1443zM339 315h49q7 -128 98.5 -208.5t229.5 -80.5q159 0 250 95t91 263v1059h50v-1062q0 -185 -104.5 -293.5t-286.5 -108.5q-160 0 -266 94t-111 242z" />
    <glyph glyph-name="ij" unicode="&#x133;" horiz-adv-x="618" 
d="M130 0v1076h49v-1076h-49zM155 1366q-20 0 -34.5 14t-14.5 34t14.5 34t34.5 14t34 -14t14 -34t-14.5 -34t-33.5 -14zM488 1076v-1175q0 -139 -65 -200.5t-198 -61.5h-29v46h27q113 0 164.5 50t51.5 162v1179h49zM464 1366q-20 0 -34.5 14t-14.5 34t14.5 34t34.5 14
t34 -14t14 -34t-14 -34t-34 -14z" />
    <glyph glyph-name="Jcircumflex" unicode="&#x134;" horiz-adv-x="933" 
d="M41 315h49q7 -128 98.5 -208.5t229.5 -80.5q159 0 250 95t91 263v1059h50v-1062q0 -185 -104.5 -293.5t-286.5 -108.5q-160 0 -266 94t-111 242zM761 1841h46l266 -287h-59l-229 249h-2l-229 -249h-59z" />
    <glyph glyph-name="jcircumflex" unicode="&#x135;" horiz-adv-x="309" 
d="M179 1076v-1175q0 -135 -63.5 -198.5t-199.5 -63.5h-29v46h27q113 0 164.5 50.5t51.5 161.5v1179h49zM176 1557l265 -303h-56l-230 264h-2l-230 -264h-56l265 303h44z" />
    <glyph glyph-name="Kcommaaccent" unicode="&#x136;" horiz-adv-x="1107" 
d="M174 0h-50v1443h50v-836h4l784 836h64l-594 -635l664 -808h-64l-636 773l-222 -237v-536zM456 -480h-46l102 338h57z" />
    <glyph glyph-name="kcommaaccent" unicode="&#x137;" horiz-adv-x="913" 
d="M181 503l645 573h70l-517 -463l519 -613h-65l-493 583l-161 -142v-441h-49v1506h49v-1003h2zM398 -480h-46l102 338h57z" />
    <glyph glyph-name="Lacute" unicode="&#x139;" horiz-adv-x="1009" 
d="M167 1554h-56l293 287h66zM949 47v-47h-825v1443h50v-1396h775z" />
    <glyph glyph-name="lacute" unicode="&#x13a;" horiz-adv-x="309" 
d="M173 1617h-56l293 287h66zM130 0v1506h49v-1506h-49z" />
    <glyph glyph-name="Lcommaaccent" unicode="&#x13b;" horiz-adv-x="1009" 
d="M468 -480h-46l102 338h57zM949 47v-47h-825v1443h50v-1396h775z" />
    <glyph glyph-name="lcommaaccent" unicode="&#x13c;" horiz-adv-x="309" 
d="M86 -480h-46l102 338h57zM130 0v1506h49v-1506h-49z" />
    <glyph glyph-name="Lcaron" unicode="&#x13d;" horiz-adv-x="1009" 
d="M408 1443h49l-12 -355h-37v355zM949 47v-47h-825v1443h50v-1396h775z" />
    <glyph glyph-name="lcaron" unicode="&#x13e;" horiz-adv-x="365" 
d="M348 1506h47l-11 -355h-36v355zM130 0v1506h49v-1506h-49z" />
    <glyph glyph-name="Lslash" unicode="&#x141;" horiz-adv-x="1036" 
d="M201 47h775v-47h-825v721l-128 -71v47l128 71v675h50v-648l406 224v-47l-406 -224v-701z" />
    <glyph glyph-name="lslash" unicode="&#x142;" horiz-adv-x="311" 
d="M297 899v-51l-117 -72v-776h-49v746l-117 -72v51l117 72v709h49v-679z" />
    <glyph glyph-name="Nacute" unicode="&#x143;" horiz-adv-x="1315" 
d="M675 1554h-56l293 287h66zM174 0h-50v1443h55l958 -1348h4v1348h50v-1443h-46l-967 1359h-4v-1359z" />
    <glyph glyph-name="nacute" unicode="&#x144;" horiz-adv-x="1062" 
d="M543 1254h-53l236 303h63zM120 0v1076h46v-254h2q35 121 138.5 195.5t242.5 74.5q179 0 289.5 -108t110.5 -288v-696h-49v694q0 162 -98.5 257t-258.5 95q-166 0 -270 -112t-104 -288v-646h-49z" />
    <glyph glyph-name="Ncommaaccent" unicode="&#x145;" horiz-adv-x="1315" 
d="M588 -480h-46l102 338h57zM174 0h-50v1443h55l958 -1348h4v1348h50v-1443h-46l-967 1359h-4v-1359z" />
    <glyph glyph-name="ncommaaccent" unicode="&#x146;" horiz-adv-x="1062" 
d="M451 -480h-46l102 338h57zM120 0v1076h46v-254h2q35 121 138.5 195.5t242.5 74.5q179 0 289.5 -108t110.5 -288v-696h-49v694q0 162 -98.5 257t-258.5 95q-166 0 -270 -112t-104 -288v-646h-49z" />
    <glyph glyph-name="Ncaron" unicode="&#x147;" horiz-adv-x="1315" 
d="M634 1554l-266 287h59l229 -250h2l229 250h59l-266 -287h-46zM174 0h-50v1443h55l958 -1348h4v1348h50v-1443h-46l-967 1359h-4v-1359z" />
    <glyph glyph-name="ncaron" unicode="&#x148;" horiz-adv-x="1062" 
d="M560 1254h-44l-265 303h56l230 -264h2l230 264h56zM120 0v1076h46v-254h2q35 121 138.5 195.5t242.5 74.5q179 0 289.5 -108t110.5 -288v-696h-49v694q0 162 -98.5 257t-258.5 95q-166 0 -270 -112t-104 -288v-646h-49z" />
    <glyph glyph-name="Omacron" unicode="&#x14c;" horiz-adv-x="1398" 
d="M699 1463q291 0 463.5 -200.5t172.5 -540.5q0 -341 -172 -541.5t-464 -200.5q-293 0 -464.5 200.5t-171.5 541.5q0 340 172 540.5t464 200.5zM699 1416q-269 0 -427.5 -188t-158.5 -506t159 -506.5t427 -188.5t427 188.5t159 506.5t-159 506t-427 188zM981 1659v-43h-564
v43h564z" />
    <glyph glyph-name="omacron" unicode="&#x14d;" horiz-adv-x="1078" 
d="M824 1347v-43h-584v43h584zM539 -16q-214 0 -344 150.5t-130 403.5t130.5 403.5t343.5 150.5t343.5 -150.5t130.5 -403.5t-130.5 -403.5t-343.5 -150.5zM539 31q192 0 308.5 137.5t116.5 369.5q0 233 -116.5 370.5t-308.5 137.5t-308 -137.5t-116 -370.5t116 -370
t308 -137z" />
    <glyph glyph-name="Obreve" unicode="&#x14e;" horiz-adv-x="1398" 
d="M699 1463q291 0 463.5 -200.5t172.5 -540.5q0 -341 -172 -541.5t-464 -200.5q-293 0 -464.5 200.5t-171.5 541.5q0 340 172 540.5t464 200.5zM699 1416q-269 0 -427.5 -188t-158.5 -506t159 -506.5t427 -188.5t427 188.5t159 506.5t-159 506t-427 188zM442 1771h45
q0 -75 58.5 -125t153.5 -50t153.5 50t58.5 125h45q0 -99 -71.5 -158t-185.5 -59t-185.5 59t-71.5 158z" />
    <glyph glyph-name="obreve" unicode="&#x14f;" horiz-adv-x="1078" 
d="M281 1489h45q0 -88 58 -141t155 -53t155 53t58 141h45q0 -112 -72 -174.5t-186 -62.5t-186 62.5t-72 174.5zM539 -16q-214 0 -344 150.5t-130 403.5t130.5 403.5t343.5 150.5t343.5 -150.5t130.5 -403.5t-130.5 -403.5t-343.5 -150.5zM539 31q192 0 308.5 137.5
t116.5 369.5q0 233 -116.5 370.5t-308.5 137.5t-308 -137.5t-116 -370.5t116 -370t308 -137z" />
    <glyph glyph-name="Ohungarumlaut" unicode="&#x150;" horiz-adv-x="1398" 
d="M863 1554h-56l294 287h65zM609 1554h-56l293 287h66zM699 1463q291 0 463.5 -200.5t172.5 -540.5q0 -341 -172 -541.5t-464 -200.5q-293 0 -464.5 200.5t-171.5 541.5q0 340 172 540.5t464 200.5zM699 1416q-269 0 -427.5 -188t-158.5 -506t159 -506.5t427 -188.5
t427 188.5t159 506.5t-159 506t-427 188z" />
    <glyph glyph-name="ohungarumlaut" unicode="&#x151;" horiz-adv-x="1078" 
d="M623 1253l235 303h62l-245 -303h-52zM400 1253l235 303h62l-245 -303h-52zM539 -16q-214 0 -344 150.5t-130 403.5t130.5 403.5t343.5 150.5t343.5 -150.5t130.5 -403.5t-130.5 -403.5t-343.5 -150.5zM539 31q192 0 308.5 137.5t116.5 369.5q0 233 -116.5 370.5
t-308.5 137.5t-308 -137.5t-116 -370.5t116 -370t308 -137z" />
    <glyph glyph-name="OE" unicode="&#x152;" horiz-adv-x="2167" 
d="M705 1416q-271 0 -431.5 -188.5t-160.5 -505.5t160.5 -506t431.5 -189t431.5 188.5t160.5 506.5q0 317 -161 505.5t-431 188.5zM1297 0v414q-65 -208 -219.5 -321t-372.5 -113q-297 0 -469.5 199.5t-172.5 542.5t172.5 542t469.5 199q218 0 372.5 -113t219.5 -320v413
h797v-47h-747v-632h711v-46h-711v-671h747v-47h-797z" />
    <glyph glyph-name="oe" unicode="&#x153;" horiz-adv-x="1955" 
d="M1441 -16q-178 0 -302.5 109t-147.5 276h-5q-23 -172 -146 -280t-301 -108q-216 0 -345 149.5t-129 403.5q0 255 129.5 405t344.5 150q177 0 300 -107.5t147 -276.5h5q23 168 145.5 277.5t295.5 109.5q205 0 331.5 -142.5t126.5 -374.5v-40h-876v-2q0 -226 116.5 -364.5
t310.5 -138.5q155 0 256.5 75t127.5 194h51q-28 -140 -144 -227.5t-291 -87.5zM1840 580q0 206 -113.5 336t-294.5 130q-178 0 -293 -128.5t-124 -337.5h825zM115 534q0 -232 116 -369.5t308 -137.5t308.5 138t116.5 369q0 233 -116.5 371t-308.5 138t-308 -138t-116 -371z
" />
    <glyph glyph-name="Racute" unicode="&#x154;" horiz-adv-x="1124" 
d="M501 1554h-56l293 287h66zM174 1396v-720h397q193 0 303.5 96.5t110.5 263.5q0 170 -110 265t-305 95h-396zM174 630v-630h-50v1443h448q216 0 340 -108.5t124 -298.5q0 -158 -92 -263t-255 -133l381 -640h-57l-376 632q-36 -2 -66 -2h-397z" />
    <glyph glyph-name="racute" unicode="&#x155;" horiz-adv-x="603" 
d="M339 1254h-53l236 303h63zM120 0v1076h46v-223h2q35 117 110.5 178t186.5 61q59 0 108 -21v-51q-50 25 -116 25q-132 0 -210 -104.5t-78 -270.5v-670h-49z" />
    <glyph glyph-name="Rcommaaccent" unicode="&#x156;" horiz-adv-x="1124" 
d="M174 1396v-720h397q193 0 303.5 96.5t110.5 263.5q0 170 -110 265t-305 95h-396zM174 630v-630h-50v1443h448q216 0 340 -108.5t124 -298.5q0 -158 -92 -263t-255 -133l381 -640h-57l-376 632q-36 -2 -66 -2h-397zM414 -480h-46l102 338h57z" />
    <glyph glyph-name="rcommaaccent" unicode="&#x157;" horiz-adv-x="603" 
d="M120 0v1076h46v-223h2q35 117 110.5 178t186.5 61q59 0 108 -21v-51q-50 25 -116 25q-132 0 -210 -104.5t-78 -270.5v-670h-49zM76 -480h-46l102 338h57z" />
    <glyph glyph-name="Rcaron" unicode="&#x158;" horiz-adv-x="1124" 
d="M174 1396v-720h397q193 0 303.5 96.5t110.5 263.5q0 170 -110 265t-305 95h-396zM174 630v-630h-50v1443h448q216 0 340 -108.5t124 -298.5q0 -158 -92 -263t-255 -133l381 -640h-57l-376 632q-36 -2 -66 -2h-397zM460 1554l-266 287h59l229 -250h2l229 250h59l-266 -287
h-46z" />
    <glyph glyph-name="rcaron" unicode="&#x159;" horiz-adv-x="603" 
d="M356 1254h-44l-265 303h56l230 -264h2l230 264h56zM120 0v1076h46v-223h2q35 117 110.5 178t186.5 61q59 0 108 -21v-51q-50 25 -116 25q-132 0 -210 -104.5t-78 -270.5v-670h-49z" />
    <glyph glyph-name="Sacute" unicode="&#x15a;" horiz-adv-x="1114" 
d="M571 1554h-56l293 287h66zM52 382h50q8 -156 139.5 -256t329.5 -100q193 0 316 99.5t123 251.5q0 120 -85 193t-277 121l-167 42q-202 50 -295.5 133.5t-93.5 215.5q0 163 135 272t326 109q200 0 336 -103.5t143 -257.5h-50q-7 135 -129 225t-300 90q-172 0 -291.5 -95.5
t-119.5 -239.5q0 -114 85 -185t270 -117l165 -41q207 -52 302.5 -136.5t95.5 -223.5q0 -175 -136.5 -287t-354.5 -112q-219 0 -364 113t-153 289z" />
    <glyph glyph-name="sacute" unicode="&#x15b;" horiz-adv-x="905" 
d="M92 808q0 124 105 204t257 80q161 0 262.5 -88.5t115.5 -239.5h-48q-14 126 -101.5 204t-228.5 78q-129 0 -221 -67t-92 -170q0 -85 57 -133.5t182 -77.5l167 -40q160 -39 231 -104.5t71 -174.5q0 -131 -110 -213t-281 -82q-169 0 -281.5 92.5t-120.5 227.5h50
q10 -115 109 -194.5t242 -79.5q145 0 243.5 68.5t98.5 177.5q0 93 -62 148t-205 89l-169 39q-138 33 -204.5 94t-66.5 162zM459 1254h-53l236 303h63z" />
    <glyph glyph-name="Scircumflex" unicode="&#x15c;" horiz-adv-x="1114" 
d="M52 382h50q8 -156 139.5 -256t329.5 -100q193 0 316 99.5t123 251.5q0 120 -85 193t-277 121l-167 42q-202 50 -295.5 133.5t-93.5 215.5q0 163 135 272t326 109q200 0 336 -103.5t143 -257.5h-50q-7 135 -129 225t-300 90q-172 0 -291.5 -95.5t-119.5 -239.5
q0 -114 85 -185t270 -117l165 -41q207 -52 302.5 -136.5t95.5 -223.5q0 -175 -136.5 -287t-354.5 -112q-219 0 -364 113t-153 289zM530 1841h46l266 -287h-59l-229 249h-2l-229 -249h-59z" />
    <glyph glyph-name="scircumflex" unicode="&#x15d;" horiz-adv-x="905" 
d="M476 1557l265 -303h-56l-230 264h-2l-230 -264h-56l265 303h44zM92 808q0 124 105 204t257 80q161 0 262.5 -88.5t115.5 -239.5h-48q-14 126 -101.5 204t-228.5 78q-129 0 -221 -67t-92 -170q0 -85 57 -133.5t182 -77.5l167 -40q160 -39 231 -104.5t71 -174.5
q0 -131 -110 -213t-281 -82q-169 0 -281.5 92.5t-120.5 227.5h50q10 -115 109 -194.5t242 -79.5q145 0 243.5 68.5t98.5 177.5q0 93 -62 148t-205 89l-169 39q-138 33 -204.5 94t-66.5 162z" />
    <glyph glyph-name="Scedilla" unicode="&#x15e;" horiz-adv-x="1114" 
d="M497 780l165 -41q207 -52 302.5 -136.5t95.5 -223.5q0 -171 -131.5 -283t-343.5 -116l-51 -121q98 0 152 -40t54 -113q0 -74 -60 -120.5t-156 -47.5q-76 0 -122 17v43q45 -17 121 -17q72 0 121.5 36t49.5 88q0 54 -42.5 83.5t-121.5 29.5h-46v33l54 130
q-208 8 -343 119.5t-143 281.5h50q8 -156 139.5 -256t329.5 -100q193 0 316 99.5t123 251.5q0 120 -85 193t-277 121l-167 42q-202 50 -295.5 133.5t-93.5 215.5q0 163 135 272t326 109q200 0 336 -103.5t143 -257.5h-50q-7 135 -129 225t-300 90q-172 0 -291.5 -95.5
t-119.5 -239.5q0 -114 85 -185t270 -117z" />
    <glyph glyph-name="scedilla" unicode="&#x15f;" horiz-adv-x="905" 
d="M380 598l167 -40q160 -39 231 -104.5t71 -174.5q0 -127 -104.5 -208.5t-269.5 -86.5l-52 -125q98 0 152 -40t54 -113q0 -74 -60 -120.5t-156 -47.5q-76 0 -122 17v43q45 -17 121 -17q72 0 121.5 36t49.5 88q0 54 -42.5 83.5t-121.5 29.5h-46v33l56 134q-158 8 -261.5 99
t-111.5 220h50q10 -115 109 -194.5t242 -79.5q145 0 243.5 68.5t98.5 177.5q0 93 -62 148t-205 89l-169 39q-138 33 -204.5 94t-66.5 162q0 124 105 204t257 80q161 0 262.5 -88.5t115.5 -239.5h-48q-14 126 -101.5 204t-228.5 78q-129 0 -221 -67t-92 -170q0 -85 57 -133.5
t182 -77.5z" />
    <glyph glyph-name="Scaron" unicode="&#x160;" horiz-adv-x="1114" 
d="M52 382h50q8 -156 139.5 -256t329.5 -100q193 0 316 99.5t123 251.5q0 120 -85 193t-277 121l-167 42q-202 50 -295.5 133.5t-93.5 215.5q0 163 135 272t326 109q200 0 336 -103.5t143 -257.5h-50q-7 135 -129 225t-300 90q-172 0 -291.5 -95.5t-119.5 -239.5
q0 -114 85 -185t270 -117l165 -41q207 -52 302.5 -136.5t95.5 -223.5q0 -175 -136.5 -287t-354.5 -112q-219 0 -364 113t-153 289zM530 1554l-266 287h59l229 -250h2l229 250h59l-266 -287h-46z" />
    <glyph glyph-name="scaron" unicode="&#x161;" horiz-adv-x="905" 
d="M476 1254h-44l-265 303h56l230 -264h2l230 264h56zM92 808q0 124 105 204t257 80q161 0 262.5 -88.5t115.5 -239.5h-48q-14 126 -101.5 204t-228.5 78q-129 0 -221 -67t-92 -170q0 -85 57 -133.5t182 -77.5l167 -40q160 -39 231 -104.5t71 -174.5q0 -131 -110 -213
t-281 -82q-169 0 -281.5 92.5t-120.5 227.5h50q10 -115 109 -194.5t242 -79.5q145 0 243.5 68.5t98.5 177.5q0 93 -62 148t-205 89l-169 39q-138 33 -204.5 94t-66.5 162z" />
    <glyph glyph-name="Tcedilla" unicode="&#x162;" horiz-adv-x="1117" 
d="M583 6v-6l-59 -141q98 0 152 -40t54 -113q0 -74 -60 -120.5t-156 -47.5q-76 0 -122 17v43q45 -17 121 -17q72 0 121.5 36t49.5 88q0 54 -42.5 83.5t-121.5 29.5h-46v33l62 149h-2v1396h-521v47h1091v-47h-521v-1390z" />
    <glyph glyph-name="tcedilla" unicode="&#x163;" horiz-adv-x="527" 
d="M375 -1l-59 -140q98 0 152 -40t54 -113q0 -74 -60 -120.5t-156 -47.5q-76 0 -122 17v43q45 -17 121 -17q72 0 121.5 36t49.5 88q0 54 -42.5 83.5t-121.5 29.5h-46v33l64 153q-78 13 -114 68t-36 162v797h-160v45h160v288h49v-288h218v-45h-218v-796q0 -102 38.5 -146
t124.5 -44l37 1h37v-46q-1 0 -38 -0.5t-39 -0.5h-14z" />
    <glyph glyph-name="Tcaron" unicode="&#x164;" horiz-adv-x="1117" 
d="M536 1554l-266 287h59l229 -250h2l229 250h59l-266 -287h-46zM583 0h-49v1396h-521v47h1091v-47h-521v-1396z" />
    <glyph glyph-name="tcaron" unicode="&#x165;" horiz-adv-x="637" 
d="M370 1590h47l-11 -355h-36v355zM180 1364h49v-288h218v-45h-218v-796q0 -102 38.5 -146t124.5 -44l37 1h37v-46q-1 0 -38 -0.5t-39 -0.5q-110 0 -159.5 55t-49.5 180v797h-160v45h160v288z" />
    <glyph glyph-name="Tbar" unicode="&#x166;" horiz-adv-x="1120" 
d="M1104 1396h-521v-617h302v-45h-302v-734h-49v734h-299v45h299v617h-521v47h1091v-47z" />
    <glyph glyph-name="tbar" unicode="&#x167;" horiz-adv-x="527" 
d="M229 628v-393q0 -102 38.5 -146t124.5 -44l37 1h37v-46q-1 0 -38 -0.5t-39 -0.5q-110 0 -159.5 55t-49.5 180v394h-160v45h160v358h-160v45h160v288h49v-288h218v-45h-218v-358h228v-45h-228z" />
    <glyph glyph-name="Utilde" unicode="&#x168;" horiz-adv-x="1305" 
d="M174 1443v-943q0 -218 129.5 -345.5t349.5 -127.5q221 0 350.5 127.5t129.5 345.5v943h50v-944q0 -237 -143.5 -378t-386.5 -141t-386 141t-143 378v944h50zM790 1552q-36 0 -68 17.5t-55.5 42t-46 49t-49 42t-55.5 17.5q-97 0 -97 -158h-45q0 92 36 146.5t106 54.5
q36 0 68 -17t55.5 -41.5t46 -49.5t49.5 -42t55 -17q97 0 97 158h45q0 -93 -36 -147.5t-106 -54.5z" />
    <glyph glyph-name="utilde" unicode="&#x169;" horiz-adv-x="1062" 
d="M942 1076v-1076h-46v251h-2q-33 -114 -143 -190.5t-245 -76.5q-176 0 -284.5 106.5t-108.5 284.5v701h49v-694q0 -164 96 -257.5t253 -93.5q163 0 272.5 109t109.5 287v649h49zM664 1253q-36 0 -68 17.5t-55.5 42t-46 49t-49 42t-55.5 17.5q-97 0 -97 -158h-45
q0 92 36 146.5t106 54.5q36 0 68 -17t55.5 -42t46 -49.5t49.5 -41.5t55 -17q97 0 97 158h45q0 -93 -36 -147.5t-106 -54.5z" />
    <glyph glyph-name="Umacron" unicode="&#x16a;" horiz-adv-x="1305" 
d="M174 1443v-943q0 -218 129.5 -345.5t349.5 -127.5q221 0 350.5 127.5t129.5 345.5v943h50v-944q0 -237 -143.5 -378t-386.5 -141t-386 141t-143 378v944h50zM935 1659v-43h-564v43h564z" />
    <glyph glyph-name="umacron" unicode="&#x16b;" horiz-adv-x="1062" 
d="M942 1076v-1076h-46v251h-2q-33 -114 -143 -190.5t-245 -76.5q-176 0 -284.5 106.5t-108.5 284.5v701h49v-694q0 -164 96 -257.5t253 -93.5q163 0 272.5 109t109.5 287v649h49zM813 1347v-43h-584v43h584z" />
    <glyph glyph-name="Ubreve" unicode="&#x16c;" horiz-adv-x="1305" 
d="M174 1443v-943q0 -218 129.5 -345.5t349.5 -127.5q221 0 350.5 127.5t129.5 345.5v943h50v-944q0 -237 -143.5 -378t-386.5 -141t-386 141t-143 378v944h50zM396 1771h45q0 -75 58.5 -125t153.5 -50t153.5 50t58.5 125h45q0 -99 -71.5 -158t-185.5 -59t-185.5 59
t-71.5 158z" />
    <glyph glyph-name="ubreve" unicode="&#x16d;" horiz-adv-x="1062" 
d="M942 1076v-1076h-46v251h-2q-33 -114 -143 -190.5t-245 -76.5q-176 0 -284.5 106.5t-108.5 284.5v701h49v-694q0 -164 96 -257.5t253 -93.5q163 0 272.5 109t109.5 287v649h49zM270 1489h45q0 -88 58 -141t155 -53t155 53t58 141h45q0 -112 -72 -174.5t-186 -62.5
t-186 62.5t-72 174.5z" />
    <glyph glyph-name="Uring" unicode="&#x16e;" horiz-adv-x="1305" 
d="M653 1506q-68 0 -116.5 49t-48.5 117t49 116.5t116 48.5t116 -48.5t49 -116.5t-48.5 -117t-116.5 -49zM653 1544q53 0 89.5 37.5t36.5 90.5t-36.5 90t-89.5 37t-89.5 -37t-36.5 -90t36.5 -90.5t89.5 -37.5zM174 1443v-943q0 -218 129.5 -345.5t349.5 -127.5
q221 0 350.5 127.5t129.5 345.5v943h50v-944q0 -237 -143.5 -378t-386.5 -141t-386 141t-143 378v944h50z" />
    <glyph glyph-name="uring" unicode="&#x16f;" horiz-adv-x="1062" 
d="M942 1076v-1076h-46v251h-2q-33 -114 -143 -190.5t-245 -76.5q-176 0 -284.5 106.5t-108.5 284.5v701h49v-694q0 -164 96 -257.5t253 -93.5q163 0 272.5 109t109.5 287v649h49zM528 1248q-68 0 -116.5 49t-48.5 117t48.5 116.5t116.5 48.5q67 0 115.5 -48.5t48.5 -116.5
t-48.5 -117t-115.5 -49zM528 1287q53 0 89.5 37t36.5 90t-36.5 90t-89.5 37q-54 0 -90.5 -37t-36.5 -90t36.5 -90t90.5 -37z" />
    <glyph glyph-name="Uhungarumlaut" unicode="&#x170;" horiz-adv-x="1305" 
d="M174 1443v-943q0 -218 129.5 -345.5t349.5 -127.5q221 0 350.5 127.5t129.5 345.5v943h50v-944q0 -237 -143.5 -378t-386.5 -141t-386 141t-143 378v944h50zM817 1554h-56l294 287h65zM563 1554h-56l293 287h66z" />
    <glyph glyph-name="uhungarumlaut" unicode="&#x171;" horiz-adv-x="1062" 
d="M612 1253l235 303h62l-245 -303h-52zM389 1253l235 303h62l-245 -303h-52zM942 1076v-1076h-46v251h-2q-33 -114 -143 -190.5t-245 -76.5q-176 0 -284.5 106.5t-108.5 284.5v701h49v-694q0 -164 96 -257.5t253 -93.5q163 0 272.5 109t109.5 287v649h49z" />
    <glyph glyph-name="Uogonek" unicode="&#x172;" horiz-adv-x="1307" 
d="M878 -384q-85 0 -139 47.5t-54 121.5q0 129 154 227v4q-87 -36 -186 -36q-242 0 -385.5 140.5t-143.5 378.5v944h50v-943q0 -218 129.5 -345.5t349.5 -127.5t350 127.5t130 345.5v943h50v-944q0 -300 -230 -447q-111 -71 -165 -134.5t-54 -127.5q0 -56 41 -92t105 -36
q49 0 70 7v-43q-27 -10 -72 -10z" />
    <glyph glyph-name="uogonek" unicode="&#x173;" horiz-adv-x="1062" 
d="M942 -374q-27 -10 -73 -10q-84 0 -138.5 47.5t-54.5 121.5q0 72 56.5 132t163.5 102v232h-2q-33 -114 -143 -190.5t-245 -76.5q-176 0 -284.5 106.5t-108.5 284.5v701h49v-694q0 -164 96 -257.5t253 -93.5q163 0 272.5 109t109.5 287v649h49v-1076l-7 -3
q-107 -46 -158.5 -96t-51.5 -111q0 -56 41 -92t106 -36q47 0 70 7v-43z" />
    <glyph glyph-name="Wcircumflex" unicode="&#x174;" horiz-adv-x="1777" 
d="M865 1841h46l266 -287h-59l-229 249h-2l-229 -249h-59zM886 1338l-398 -1338h-41l-406 1443h52l374 -1344h4l396 1344h43l395 -1344h5l374 1344h51l-406 -1443h-40l-398 1338h-5z" />
    <glyph glyph-name="wcircumflex" unicode="&#x175;" horiz-adv-x="1406" 
d="M725 1557l265 -303h-56l-230 264h-2l-230 -264h-56l265 303h44zM1404 1076l-317 -1076h-66l-317 1016h-2l-317 -1016h-66l-317 1076h55l294 -1021h2l317 1021h66l317 -1021h2l294 1021h55z" />
    <glyph glyph-name="Ycircumflex" unicode="&#x176;" horiz-adv-x="1148" 
d="M600 0h-50v631l-529 812h60l492 -758h4l491 758h59l-527 -812v-631zM551 1841h46l266 -287h-59l-229 249h-2l-229 -249h-59z" />
    <glyph glyph-name="ycircumflex" unicode="&#x177;" horiz-adv-x="888" 
d="M171 -362q-26 0 -47 9v46q23 -9 52 -9q71 0 115.5 45t90.5 161l35 91l-415 1095h54l387 -1029h2l388 1029h54l-424 -1120q-51 -134 -89.5 -199t-84 -92t-118.5 -27zM466 1556l265 -303h-56l-230 264h-2l-230 -264h-56l265 303h44z" />
    <glyph glyph-name="Ydieresis" unicode="&#x178;" horiz-adv-x="1148" 
d="M600 0h-50v631l-529 812h60l492 -758h4l491 758h59l-527 -812v-631zM435 1556q-22 0 -38.5 16t-16.5 38t16 37.5t39 15.5q22 0 38 -15.5t16 -37.5t-16 -38t-38 -16zM713 1556q-22 0 -38 16t-16 38t16 37.5t38 15.5q23 0 39 -15.5t16 -37.5t-16.5 -38t-38.5 -16z" />
    <glyph glyph-name="Zacute" unicode="&#x179;" horiz-adv-x="1147" 
d="M591 1554h-56l293 287h66zM64 0v42l954 1350v4h-925v47h989v-43l-953 -1349v-4h954v-47h-1019z" />
    <glyph glyph-name="zacute" unicode="&#x17a;" horiz-adv-x="910" 
d="M460 1253h-53l236 303h63zM58 0v47l734 982v2h-734v45h794v-47l-736 -982v-2h736v-45h-794z" />
    <glyph glyph-name="Zdotaccent" unicode="&#x17b;" horiz-adv-x="1147" 
d="M573 1556q-26 0 -45 19t-19 45q0 25 19 44t45 19t45 -19t19 -44q0 -26 -19 -45t-45 -19zM64 0v42l954 1350v4h-925v47h989v-43l-953 -1349v-4h954v-47h-1019z" />
    <glyph glyph-name="zdotaccent" unicode="&#x17c;" horiz-adv-x="910" 
d="M455 1253q-25 0 -44.5 19.5t-19.5 44.5q0 26 19 45t45 19t45.5 -19t19.5 -45t-19.5 -45t-45.5 -19zM58 0v47l734 982v2h-734v45h794v-47l-736 -982v-2h736v-45h-794z" />
    <glyph glyph-name="Zcaron" unicode="&#x17d;" horiz-adv-x="1147" 
d="M64 0v42l954 1350v4h-925v47h989v-43l-953 -1349v-4h954v-47h-1019zM550 1554l-266 287h59l229 -250h2l229 250h59l-266 -287h-46z" />
    <glyph glyph-name="zcaron" unicode="&#x17e;" horiz-adv-x="910" 
d="M477 1253h-44l-265 303h56l230 -264h2l230 264h56zM58 0v47l734 982v2h-734v45h794v-47l-736 -982v-2h736v-45h-794z" />
    <glyph glyph-name="florin" unicode="&#x192;" horiz-adv-x="1179" 
d="M1133 1430v-49q-22 15 -67.5 25.5t-90.5 10.5q-124 0 -194.5 -72t-97.5 -228l-53 -308h431v-46h-439l-77 -441q-31 -176 -113 -258.5t-226 -82.5q-42 0 -89.5 10.5t-71.5 24.5v48q27 -15 73 -26t86 -11q124 0 193.5 72.5t97.5 229.5l76 434h-415v46h423l54 313
q31 177 113 259t226 82q45 0 92 -9.5t69 -23.5z" />
    <glyph glyph-name="Ohorn" unicode="&#x1a0;" horiz-adv-x="1398" 
d="M699 -20q-293 0 -464.5 200.5t-171.5 541.5q0 340 172 540.5t464 200.5q58 0 167.5 -10.5t210.5 -10.5q117 0 159.5 28t42.5 106v108h48v-119q0 -92 -55 -130t-187 -38h-97v-4q166 -83 256.5 -257.5t90.5 -413.5q0 -341 -172 -541.5t-464 -200.5zM699 27q268 0 427 188.5
t159 506.5t-159 506t-427 188q-269 0 -427.5 -188t-158.5 -506t159 -506.5t427 -188.5z" />
    <glyph glyph-name="ohorn" unicode="&#x1a1;" horiz-adv-x="1082" 
d="M539 31q193 0 309 138.5t116 368.5t-116 369t-309 139t-308.5 -138.5t-115.5 -369.5t115.5 -369t308.5 -138zM1013 538q0 -251 -129.5 -402.5t-344.5 -151.5t-344.5 151.5t-129.5 402.5t129.5 402.5t344.5 151.5q59 0 154 -9.5t144 -9.5q74 0 102.5 23.5t28.5 84.5v124
h49v-137q0 -72 -40.5 -105t-128.5 -33h-80v-4q113 -50 179 -181t66 -307z" />
    <glyph glyph-name="Uhorn" unicode="&#x1af;" horiz-adv-x="1446" 
d="M653 -20q-242 0 -385.5 140.5t-143.5 378.5v944h50v-943q0 -213 131.5 -343t347.5 -130q217 0 348.5 130t131.5 343v943h124q121 0 121 106v156h48v-168q0 -66 -42.5 -102t-120.5 -36h-80v-900q0 -238 -143.5 -378.5t-386.5 -140.5z" />
    <glyph glyph-name="uhorn" unicode="&#x1b0;" horiz-adv-x="1183" 
d="M894 251q-32 -114 -142 -190.5t-246 -76.5q-176 0 -284.5 106.5t-108.5 284.5v701h49v-694q0 -164 96 -257.5t253 -93.5q163 0 272.5 109t109.5 287v649h122q120 0 120 106v125h49v-137q0 -66 -42.5 -102t-120.5 -36h-79v-1032h-46v251h-2z" />
    <glyph glyph-name="uni01C4" unicode="&#x1c4;" horiz-adv-x="2459" 
d="M124 1443h436q330 0 510 -188t180 -533q0 -346 -180 -534t-510 -188h-436v1443zM175 1396v-1349h384q308 0 474.5 175t166.5 500q0 324 -166.5 499t-474.5 175h-384zM1377 0v42l954 1350v4h-925v47h989v-43l-953 -1349v-4h954v-47h-1019zM1863 1554l-266 287h59l229 -250
h2l229 250h59l-266 -287h-46z" />
    <glyph glyph-name="uni01C5" unicode="&#x1c5;" horiz-adv-x="2223" 
d="M124 1443h436q330 0 510 -188t180 -533q0 -346 -180 -534t-510 -188h-436v1443zM175 1396v-1349h384q308 0 474.5 175t166.5 500q0 324 -166.5 499t-474.5 175h-384zM1790 1253h-44l-265 303h56l230 -264h2l230 264h56zM1371 0v47l734 982v2h-734v45h794v-47l-736 -982
v-2h736v-45h-794z" />
    <glyph glyph-name="uni01C6" unicode="&#x1c6;" horiz-adv-x="2036" 
d="M524 -16q-202 0 -330.5 154.5t-128.5 399.5q0 246 128.5 400t330.5 154q156 0 272 -95t148 -236h2v745h50v-1506h-46v322h-2q-35 -146 -151.5 -242t-272.5 -96zM526 1046q-181 0 -296 -141t-115 -366q0 -226 115 -367t296 -141q184 0 302 141.5t118 365.5t-118 366
t-302 142zM1603 1253h-44l-265 303h56l230 -264h2l230 264h56zM1184 0v47l734 982v2h-734v45h794v-47l-736 -982v-2h736v-45h-794z" />
    <glyph glyph-name="uni01C7" unicode="&#x1c7;" horiz-adv-x="1934" 
d="M1042 315h49q7 -128 98.5 -208.5t229.5 -80.5q159 0 250 95t91 263v1059h50v-1062q0 -185 -104.5 -293.5t-286.5 -108.5q-160 0 -266 94t-111 242zM949 47v-47h-825v1443h50v-1396h775z" />
    <glyph glyph-name="uni01C8" unicode="&#x1c8;" horiz-adv-x="1310" 
d="M1180 1076v-1175q0 -139 -65 -200.5t-198 -61.5h-29v46h27q113 0 164.5 50t51.5 162v1179h49zM1156 1366q-20 0 -34.5 14t-14.5 34t14.5 34t34.5 14t34 -14t14 -34t-14 -34t-34 -14zM949 47v-47h-825v1443h50v-1396h775z" />
    <glyph glyph-name="uni01C9" unicode="&#x1c9;" horiz-adv-x="618" 
d="M488 1076v-1175q0 -139 -65 -200.5t-198 -61.5h-29v46h27q113 0 164.5 50t51.5 162v1179h49zM464 1366q-20 0 -34.5 14t-14.5 34t14.5 34t34.5 14t34 -14t14 -34t-14 -34t-34 -14zM130 0v1506h49v-1506h-49z" />
    <glyph glyph-name="uni01CA" unicode="&#x1ca;" horiz-adv-x="2248" 
d="M1356 315h49q7 -128 98.5 -208.5t229.5 -80.5q159 0 250 95t91 263v1059h50v-1062q0 -185 -104.5 -293.5t-286.5 -108.5q-160 0 -266 94t-111 242zM174 0h-50v1443h55l958 -1348h4v1348h50v-1443h-46l-967 1359h-4v-1359z" />
    <glyph glyph-name="uni01CB" unicode="&#x1cb;" horiz-adv-x="1624" 
d="M1494 1076v-1175q0 -139 -65 -200.5t-198 -61.5h-29v46h27q113 0 164.5 50t51.5 162v1179h49zM1470 1366q-20 0 -34.5 14t-14.5 34t14.5 34t34.5 14t34 -14t14 -34t-14 -34t-34 -14zM174 0h-50v1443h55l958 -1348h4v1348h50v-1443h-46l-967 1359h-4v-1359z" />
    <glyph glyph-name="uni01CC" unicode="&#x1cc;" horiz-adv-x="1371" 
d="M1241 1076v-1175q0 -139 -65 -200.5t-198 -61.5h-29v46h27q113 0 164.5 50t51.5 162v1179h49zM1217 1366q-20 0 -34.5 14t-14.5 34t14.5 34t34.5 14t34 -14t14 -34t-14.5 -34t-33.5 -14zM120 0v1076h46v-254h2q35 121 138.5 195.5t242.5 74.5q179 0 289.5 -108
t110.5 -288v-696h-49v694q0 162 -98.5 257t-258.5 95q-166 0 -270 -112t-104 -288v-646h-49z" />
    <glyph glyph-name="Acaron" unicode="&#x1cd;" horiz-adv-x="1201" 
d="M1125 0l-189 501h-671l-190 -501h-55l555 1443h51l555 -1443h-56zM598 1374l-315 -827h635l-315 827h-5zM577 1554l-266 287h59l229 -250h2l229 250h59l-266 -287h-46z" />
    <glyph glyph-name="acaron" unicode="&#x1ce;" horiz-adv-x="1021" 
d="M449 30q169 0 289.5 107.5t120.5 258.5v182l-381 -29q-165 -13 -251.5 -80t-86.5 -183q0 -111 87.5 -183.5t221.5 -72.5zM446 -16q-157 0 -256.5 84.5t-99.5 217.5q0 137 96 214t284 92l389 30v97q0 153 -86.5 240t-238.5 87q-151 0 -244 -74t-114 -209h-47
q17 153 126 241t279 88q173 0 273.5 -99.5t100.5 -270.5v-722h-49v245h-1q-39 -116 -153.5 -188.5t-258.5 -72.5zM555 1254h-44l-265 303h56l230 -264h2l230 264h56z" />
    <glyph glyph-name="Icaron" unicode="&#x1cf;" horiz-adv-x="298" 
d="M174 0h-50v1443h50v-1443zM126 1554l-266 287h59l229 -250h2l229 250h59l-266 -287h-46z" />
    <glyph glyph-name="icaron" unicode="&#x1d0;" horiz-adv-x="309" 
d="M177 1254h-44l-265 303h56l230 -264h2l230 264h56zM130 0v1076h49v-1076h-49z" />
    <glyph glyph-name="Ocaron" unicode="&#x1d1;" horiz-adv-x="1398" 
d="M676 1554l-266 287h59l229 -250h2l229 250h59l-266 -287h-46zM699 1463q291 0 463.5 -200.5t172.5 -540.5q0 -341 -172 -541.5t-464 -200.5q-293 0 -464.5 200.5t-171.5 541.5q0 340 172 540.5t464 200.5zM699 1416q-269 0 -427.5 -188t-158.5 -506t159 -506.5
t427 -188.5t427 188.5t159 506.5t-159 506t-427 188z" />
    <glyph glyph-name="ocaron" unicode="&#x1d2;" horiz-adv-x="1078" 
d="M561 1253h-44l-265 303h56l230 -264h2l230 264h56zM539 -16q-214 0 -344 150.5t-130 403.5t130.5 403.5t343.5 150.5t343.5 -150.5t130.5 -403.5t-130.5 -403.5t-343.5 -150.5zM539 31q192 0 308.5 137.5t116.5 369.5q0 233 -116.5 370.5t-308.5 137.5t-308 -137.5
t-116 -370.5t116 -370t308 -137z" />
    <glyph glyph-name="Ucaron" unicode="&#x1d3;" horiz-adv-x="1305" 
d="M630 1554l-266 287h59l229 -250h2l229 250h59l-266 -287h-46zM174 1443v-943q0 -218 129.5 -345.5t349.5 -127.5q221 0 350.5 127.5t129.5 345.5v943h50v-944q0 -237 -143.5 -378t-386.5 -141t-386 141t-143 378v944h50z" />
    <glyph glyph-name="ucaron" unicode="&#x1d4;" horiz-adv-x="1062" 
d="M550 1253h-44l-265 303h56l230 -264h2l230 264h56zM942 1076v-1076h-46v251h-2q-33 -114 -143 -190.5t-245 -76.5q-176 0 -284.5 106.5t-108.5 284.5v701h49v-694q0 -164 96 -257.5t253 -93.5q163 0 272.5 109t109.5 287v649h49z" />
    <glyph glyph-name="Udieresismacron" unicode="&#x1d5;" horiz-adv-x="1305" 
d="M174 1443v-943q0 -218 129.5 -345.5t349.5 -127.5q221 0 350.5 127.5t129.5 345.5v943h50v-944q0 -237 -143.5 -378t-386.5 -141t-386 141t-143 378v944h50zM514 1662q22 0 38 -15.5t16 -37.5t-16 -37t-38 -15t-37.5 15t-15.5 37t15.5 37.5t37.5 15.5zM371 1888h564v-42
h-564v42zM792 1662q22 0 37.5 -15.5t15.5 -37.5t-15.5 -37t-37.5 -15t-38 15t-16 37t16 37.5t38 15.5z" />
    <glyph glyph-name="udieresismacron" unicode="&#x1d6;" horiz-adv-x="1062" 
d="M942 1076v-1076h-46v251h-2q-33 -114 -143 -190.5t-245 -76.5q-176 0 -284.5 106.5t-108.5 284.5v701h49v-694q0 -164 96 -257.5t253 -93.5q163 0 272.5 109t109.5 287v649h49zM389 1253q-23 0 -38.5 15.5t-15.5 38.5q0 22 16 37.5t38 15.5t38 -15.5t16 -37.5t-16 -38
t-38 -16zM667 1253q-22 0 -38 16t-16 38t16 37.5t38 15.5t38 -15.5t16 -37.5q0 -23 -15.5 -38.5t-38.5 -15.5zM813 1627v-43h-584v43h584z" />
    <glyph glyph-name="Udieresisacute" unicode="&#x1d7;" horiz-adv-x="1305" 
d="M609 1755l214 202h63l-221 -202h-56zM514 1557q-22 0 -37.5 15t-15.5 37t15.5 37.5t37.5 15.5t38 -15.5t16 -37.5t-16 -37t-38 -15zM792 1557q-22 0 -38 15t-16 37t16 37.5t38 15.5t37.5 -15.5t15.5 -37.5t-15.5 -37t-37.5 -15zM174 1443v-943q0 -218 129.5 -345.5
t349.5 -127.5q221 0 350.5 127.5t129.5 345.5v943h50v-944q0 -237 -143.5 -378t-386.5 -141t-386 141t-143 378v944h50z" />
    <glyph glyph-name="udieresisacute" unicode="&#x1d8;" horiz-adv-x="1062" 
d="M489 1511l240 291h66l-252 -291h-54zM389 1253q-22 0 -38.5 16t-16.5 38t16 37.5t39 15.5q22 0 38 -15.5t16 -37.5t-16 -38t-38 -16zM667 1253q-22 0 -38 16t-16 38t16 37.5t38 15.5q23 0 39 -15.5t16 -37.5t-16.5 -38t-38.5 -16zM942 1076v-1076h-46v251h-2
q-33 -114 -143 -190.5t-245 -76.5q-176 0 -284.5 106.5t-108.5 284.5v701h49v-694q0 -164 96 -257.5t253 -93.5q163 0 272.5 109t109.5 287v649h49z" />
    <glyph glyph-name="Udieresiscaron" unicode="&#x1d9;" horiz-adv-x="1305" 
d="M630 1755l-265 202h67l220 -167h2l220 167h67l-265 -202h-46zM514 1662q22 0 38 -15.5t16 -37.5t-16 -37t-38 -15t-37.5 15t-15.5 37t15.5 37.5t37.5 15.5zM792 1662q22 0 37.5 -15.5t15.5 -37.5t-15.5 -37t-37.5 -15t-38 15t-16 37t16 37.5t38 15.5zM174 1443v-943
q0 -218 129.5 -345.5t349.5 -127.5q221 0 350.5 127.5t129.5 345.5v943h50v-944q0 -237 -143.5 -378t-386.5 -141t-386 141t-143 378v944h50z" />
    <glyph glyph-name="udieresiscaron" unicode="&#x1da;" horiz-adv-x="1062" 
d="M389 1253q-22 0 -38.5 16t-16.5 38t16 37.5t39 15.5q22 0 38 -15.5t16 -37.5t-16 -38t-38 -16zM667 1253q-22 0 -38 16t-16 38t16 37.5t38 15.5q23 0 39 -15.5t16 -37.5t-16.5 -38t-38.5 -16zM552 1511h-48l-263 291h55l231 -253h2l231 253h55zM942 1076v-1076h-46v251
h-2q-33 -114 -143 -190.5t-245 -76.5q-176 0 -284.5 106.5t-108.5 284.5v701h49v-694q0 -164 96 -257.5t253 -93.5q163 0 272.5 109t109.5 287v649h49z" />
    <glyph glyph-name="Udieresisgrave" unicode="&#x1db;" horiz-adv-x="1305" 
d="M697 1755h-56l-221 202h63zM514 1557q-22 0 -37.5 15t-15.5 37t15.5 37.5t37.5 15.5t38 -15.5t16 -37.5t-16 -37t-38 -15zM792 1557q-22 0 -38 15t-16 37t16 37.5t38 15.5t37.5 -15.5t15.5 -37.5t-15.5 -37t-37.5 -15zM174 1443v-943q0 -218 129.5 -345.5t349.5 -127.5
q221 0 350.5 127.5t129.5 345.5v943h50v-944q0 -237 -143.5 -378t-386.5 -141t-386 141t-143 378v944h50z" />
    <glyph glyph-name="udieresisgrave" unicode="&#x1dc;" horiz-adv-x="1062" 
d="M567 1511h-54l-252 291h66zM389 1253q-22 0 -38.5 16t-16.5 38t16 37.5t39 15.5q22 0 38 -15.5t16 -37.5t-16 -38t-38 -16zM667 1253q-22 0 -38 16t-16 38t16 37.5t38 15.5q23 0 39 -15.5t16 -37.5t-16.5 -38t-38.5 -16zM942 1076v-1076h-46v251h-2q-33 -114 -143 -190.5
t-245 -76.5q-176 0 -284.5 106.5t-108.5 284.5v701h49v-694q0 -164 96 -257.5t253 -93.5q163 0 272.5 109t109.5 287v649h49z" />
    <glyph glyph-name="Adieresismacron" unicode="&#x1de;" horiz-adv-x="1201" 
d="M1125 0l-189 501h-671l-190 -501h-55l555 1443h51l555 -1443h-56zM598 1374l-315 -827h635l-315 827h-5zM461 1662q22 0 38 -15.5t16 -37.5t-16 -37t-38 -15t-37.5 15t-15.5 37t15.5 37.5t37.5 15.5zM318 1888h564v-42h-564v42zM739 1662q22 0 37.5 -15.5t15.5 -37.5
t-15.5 -37t-37.5 -15t-38 15t-16 37t16 37.5t38 15.5z" />
    <glyph glyph-name="adieresismacron" unicode="&#x1df;" horiz-adv-x="1021" 
d="M449 30q169 0 289.5 107.5t120.5 258.5v182l-381 -29q-165 -13 -251.5 -80t-86.5 -183q0 -111 87.5 -183.5t221.5 -72.5zM446 -16q-157 0 -256.5 84.5t-99.5 217.5q0 137 96 214t284 92l389 30v97q0 153 -86.5 240t-238.5 87q-151 0 -244 -74t-114 -209h-47
q17 153 126 241t279 88q173 0 273.5 -99.5t100.5 -270.5v-722h-49v245h-1q-39 -116 -153.5 -188.5t-258.5 -72.5zM394 1254q-22 0 -38 16t-16 38t16 37.5t38 15.5t38 -15.5t16 -37.5t-16 -38t-38 -16zM672 1254q-22 0 -38 16t-16 38t16 37.5t38 15.5t38 -15.5t16 -37.5
t-16 -38t-38 -16zM818 1628v-43h-584v43h584z" />
    <glyph glyph-name="Adotmacron" unicode="&#x1e0;" horiz-adv-x="1201" 
d="M1125 0l-189 501h-671l-190 -501h-55l555 1443h51l555 -1443h-56zM598 1374l-315 -827h635l-315 827h-5zM600 1555q-26 0 -45 19t-19 44q0 26 19 44.5t45 18.5t45 -18.5t19 -44.5q0 -25 -19 -44t-45 -19zM882 1888v-42h-564v42h564z" />
    <glyph glyph-name="adotmacron" unicode="&#x1e1;" horiz-adv-x="1021" 
d="M449 30q169 0 289.5 107.5t120.5 258.5v182l-381 -29q-165 -13 -251.5 -80t-86.5 -183q0 -111 87.5 -183.5t221.5 -72.5zM446 -16q-157 0 -256.5 84.5t-99.5 217.5q0 137 96 214t284 92l389 30v97q0 153 -86.5 240t-238.5 87q-151 0 -244 -74t-114 -209h-47
q17 153 126 241t279 88q173 0 273.5 -99.5t100.5 -270.5v-722h-49v245h-1q-39 -116 -153.5 -188.5t-258.5 -72.5zM533 1254q-26 0 -45 19t-19 45q0 25 19 44t45 19t45 -19t19 -44q0 -26 -19 -45t-45 -19zM818 1628v-43h-584v43h584z" />
    <glyph glyph-name="AEmacron" unicode="&#x1e2;" horiz-adv-x="1889" 
d="M819 1397l-476 -939h667v939h-191zM1010 0v411h-689l-208 -411h-55l733 1443h985v-47h-718v-633h681v-46h-681v-670h718v-47h-766zM1593 1659v-43h-564v43h564z" />
    <glyph glyph-name="aemacron" unicode="&#x1e3;" horiz-adv-x="1848" 
d="M1335 -16q-161 0 -275 84t-163 243h-4q-38 -150 -158.5 -238.5t-283.5 -88.5q-161 0 -261 83t-100 215q0 129 95 202t280 85l394 27v141q0 146 -88 227.5t-242 81.5q-148 0 -243 -75t-114 -208h-48q16 150 126.5 239.5t278.5 89.5q159 0 261 -82.5t109 -225.5h5
q44 137 156 222.5t272 85.5q206 0 328.5 -138.5t122.5 -370.5v-40h-875v-7q0 -230 117 -368t311 -138q153 0 253 75t125 194h51q-28 -140 -143 -227.5t-287 -87.5zM1331 1046q-183 0 -298 -126t-124 -332h824q0 206 -110 332t-292 126zM452 30q169 0 288 108t119 263v150
l-384 -26q-165 -10 -250 -72.5t-85 -170.5q0 -110 87 -181t225 -71zM1219 1348v-43h-584v43h584z" />
    <glyph glyph-name="Gcaron" unicode="&#x1e6;" horiz-adv-x="1332" 
d="M662 1554l-266 287h59l229 -250h2l229 250h59l-266 -287h-46zM1259 564q0 -272 -153.5 -428t-420.5 -156q-182 0 -323.5 94.5t-220 265.5t-78.5 391q0 329 171 530.5t451 201.5q213 0 368.5 -118t195.5 -309h-49q-42 172 -183 276t-332 104q-258 0 -415 -188t-157 -497
q0 -313 159 -508.5t413 -195.5q244 0 384.5 143t140.5 392v100h-531v46h580v-144z" />
    <glyph glyph-name="gcaron" unicode="&#x1e7;" horiz-adv-x="1106" 
d="M581 1254h-44l-265 303h56l230 -264h2l230 264h56zM521 31q184 0 300 141.5t116 365.5t-116 366t-300 142q-181 0 -293.5 -141t-112.5 -368q0 -225 112.5 -365.5t293.5 -140.5zM549 -384q-167 0 -280.5 75.5t-136.5 187.5h52q28 -94 125.5 -155.5t241.5 -61.5
q176 0 281 94.5t105 250.5v309h-2q-33 -142 -147 -236.5t-269 -94.5q-202 0 -328 153.5t-126 399.5t126.5 400t327.5 154q156 0 270 -95.5t149 -241.5h2v321h46v-1067q0 -178 -118.5 -285.5t-318.5 -107.5z" />
    <glyph glyph-name="Kcaron" unicode="&#x1e8;" horiz-adv-x="1107" 
d="M174 0h-50v1443h50v-836h4l784 836h64l-594 -635l664 -808h-64l-636 773l-222 -237v-536zM502 1554l-266 287h59l229 -250h2l229 250h59l-266 -287h-46z" />
    <glyph glyph-name="kcaron" unicode="&#x1e9;" horiz-adv-x="913" 
d="M181 503l645 573h70l-517 -463l519 -613h-65l-493 583l-161 -142v-441h-49v1506h49v-1003h2zM132 1617l-266 287h59l229 -250h2l229 250h59l-266 -287h-46z" />
    <glyph glyph-name="Oogonek" unicode="&#x1ea;" horiz-adv-x="1398" 
d="M933 -384q-85 0 -139 47.5t-54 121.5q0 129 154 227v4q-86 -36 -195 -36q-293 0 -464.5 200.5t-171.5 541.5q0 340 172 540.5t464 200.5q291 0 463.5 -200.5t172.5 -540.5q0 -224 -80.5 -394.5t-232.5 -267.5q-128 -81 -180.5 -141.5t-52.5 -128.5q0 -56 41 -92t105 -36
q49 0 70 7v-43q-27 -10 -72 -10zM699 1416q-269 0 -427.5 -188t-158.5 -506t159 -506.5t427 -188.5t427 188.5t159 506.5t-159 506t-427 188z" />
    <glyph glyph-name="oogonek" unicode="&#x1eb;" horiz-adv-x="1078" 
d="M704 -384q-84 0 -138.5 47.5t-54.5 121.5q0 125 149 221v4q-23 -10 -63 -18t-58 -8q-214 0 -344 150.5t-130 403.5t130.5 403.5t343.5 150.5t343.5 -150.5t130.5 -403.5q0 -173 -65 -301t-179 -197q-108 -65 -158.5 -125.5t-50.5 -124.5q0 -56 41 -92t105 -36q49 0 70 7
v-43q-28 -10 -72 -10zM539 31q192 0 308.5 137.5t116.5 369.5q0 233 -116.5 370.5t-308.5 137.5t-308 -137.5t-116 -370.5t116 -370t308 -137z" />
    <glyph glyph-name="Oogonekmacron" unicode="&#x1ec;" horiz-adv-x="1397" 
d="M933 -384q-85 0 -139 47.5t-54 121.5q0 129 154 227v4q-86 -36 -195 -36q-293 0 -464.5 200.5t-171.5 541.5q0 340 172 540.5t464 200.5q291 0 463.5 -200.5t172.5 -540.5q0 -224 -80.5 -394.5t-232.5 -267.5q-128 -81 -180.5 -141.5t-52.5 -128.5q0 -56 41 -92t105 -36
q49 0 70 7v-43q-27 -10 -72 -10zM699 1416q-269 0 -427.5 -188t-158.5 -506t159 -506.5t427 -188.5t427 188.5t159 506.5t-159 506t-427 188zM981 1659v-43h-564v43h564z" />
    <glyph glyph-name="oogonekmacron" unicode="&#x1ed;" horiz-adv-x="1078" 
d="M824 1347v-43h-584v43h584zM704 -384q-84 0 -138.5 47.5t-54.5 121.5q0 125 149 221v4q-23 -10 -63 -18t-58 -8q-214 0 -344 150.5t-130 403.5t130.5 403.5t343.5 150.5t343.5 -150.5t130.5 -403.5q0 -173 -65 -301t-179 -197q-108 -65 -158.5 -125.5t-50.5 -124.5
q0 -56 41 -92t105 -36q49 0 70 7v-43q-28 -10 -72 -10zM539 31q192 0 308.5 137.5t116.5 369.5q0 233 -116.5 370.5t-308.5 137.5t-308 -137.5t-116 -370.5t116 -370t308 -137z" />
    <glyph glyph-name="uni01F1" unicode="&#x1f1;" horiz-adv-x="2459" 
d="M1377 0v42l954 1350v4h-925v47h989v-43l-953 -1349v-4h954v-47h-1019zM124 1443h436q330 0 510 -188t180 -533q0 -346 -180 -534t-510 -188h-436v1443zM175 1396v-1349h384q308 0 474.5 175t166.5 500q0 324 -166.5 499t-474.5 175h-384z" />
    <glyph glyph-name="uni01F2" unicode="&#x1f2;" horiz-adv-x="2223" 
d="M1371 0v47l734 982v2h-734v45h794v-47l-736 -982v-2h736v-45h-794zM124 1443h436q330 0 510 -188t180 -533q0 -346 -180 -534t-510 -188h-436v1443zM175 1396v-1349h384q308 0 474.5 175t166.5 500q0 324 -166.5 499t-474.5 175h-384z" />
    <glyph glyph-name="uni01F3" unicode="&#x1f3;" horiz-adv-x="2036" 
d="M1184 0v47l734 982v2h-734v45h794v-47l-736 -982v-2h736v-45h-794zM524 -16q-202 0 -330.5 154.5t-128.5 399.5q0 246 128.5 400t330.5 154q156 0 272 -95t148 -236h2v745h50v-1506h-46v322h-2q-35 -146 -151.5 -242t-272.5 -96zM526 1046q-181 0 -296 -141t-115 -366
q0 -226 115 -367t296 -141q184 0 302 141.5t118 365.5t-118 366t-302 142z" />
    <glyph glyph-name="Gacute" unicode="&#x1f4;" horiz-adv-x="1332" 
d="M703 1554h-56l293 287h66zM1259 564q0 -272 -153.5 -428t-420.5 -156q-182 0 -323.5 94.5t-220 265.5t-78.5 391q0 329 171 530.5t451 201.5q213 0 368.5 -118t195.5 -309h-49q-42 172 -183 276t-332 104q-258 0 -415 -188t-157 -497q0 -313 159 -508.5t413 -195.5
q244 0 384.5 143t140.5 392v100h-531v46h580v-144z" />
    <glyph glyph-name="gacute" unicode="&#x1f5;" horiz-adv-x="1106" 
d="M564 1254h-53l236 303h63zM521 31q184 0 300 141.5t116 365.5t-116 366t-300 142q-181 0 -293.5 -141t-112.5 -368q0 -225 112.5 -365.5t293.5 -140.5zM549 -384q-167 0 -280.5 75.5t-136.5 187.5h52q28 -94 125.5 -155.5t241.5 -61.5q176 0 281 94.5t105 250.5v309h-2
q-33 -142 -147 -236.5t-269 -94.5q-202 0 -328 153.5t-126 399.5t126.5 400t327.5 154q156 0 270 -95.5t149 -241.5h2v321h46v-1067q0 -178 -118.5 -285.5t-318.5 -107.5z" />
    <glyph glyph-name="Ngrave" unicode="&#x1f8;" horiz-adv-x="1315" 
d="M639 1554l-303 287h66l294 -287h-57zM174 0h-50v1443h55l958 -1348h4v1348h50v-1443h-46l-967 1359h-4v-1359z" />
    <glyph glyph-name="ngrave" unicode="&#x1f9;" horiz-adv-x="1062" 
d="M586 1254h-53l-246 303h63zM120 0v1076h46v-254h2q35 121 138.5 195.5t242.5 74.5q179 0 289.5 -108t110.5 -288v-696h-49v694q0 162 -98.5 257t-258.5 95q-166 0 -270 -112t-104 -288v-646h-49z" />
    <glyph glyph-name="Aringacute" unicode="&#x1fa;" horiz-adv-x="1201" 
d="M1125 0l-189 501h-671l-190 -501h-55l555 1443h51l555 -1443h-56zM598 1374l-315 -827h635l-315 827h-5zM600 1504q-68 0 -116.5 49t-48.5 116q0 68 48.5 117t116.5 49t116.5 -49t48.5 -117q0 -67 -48.5 -116t-116.5 -49zM600 1542q54 0 90 37t36 90q0 54 -36 91t-90 37
t-90 -37t-36 -91q0 -53 36 -90t90 -37zM720 2083h62l-163 -164h-53z" />
    <glyph glyph-name="aringacute" unicode="&#x1fb;" horiz-adv-x="1021" 
d="M449 30q169 0 289.5 107.5t120.5 258.5v182l-381 -29q-165 -13 -251.5 -80t-86.5 -183q0 -111 87.5 -183.5t221.5 -72.5zM446 -16q-157 0 -256.5 84.5t-99.5 217.5q0 137 96 214t284 92l389 30v97q0 153 -86.5 240t-238.5 87q-151 0 -244 -74t-114 -209h-47
q17 153 126 241t279 88q173 0 273.5 -99.5t100.5 -270.5v-722h-49v245h-1q-39 -116 -153.5 -188.5t-258.5 -72.5zM533 1231q-67 0 -116 48.5t-49 116.5t49 117t116 49t116 -49t49 -117t-49 -116.5t-116 -48.5zM407 1396q0 -53 36.5 -90t89.5 -37t89.5 37t36.5 90t-36.5 90
t-89.5 37t-89.5 -37t-36.5 -90zM501 1648l153 165h60l-162 -165h-51z" />
    <glyph glyph-name="AEacute" unicode="&#x1fc;" horiz-adv-x="1889" 
d="M1204 1554h-56l293 287h66zM819 1397l-476 -939h667v939h-191zM1010 0v411h-689l-208 -411h-55l733 1443h985v-47h-718v-633h681v-46h-681v-670h718v-47h-766z" />
    <glyph glyph-name="aeacute" unicode="&#x1fd;" horiz-adv-x="1848" 
d="M939 1254h-53l236 303h63zM1335 -16q-161 0 -275 84t-163 243h-4q-38 -150 -158.5 -238.5t-283.5 -88.5q-161 0 -261 83t-100 215q0 129 95 202t280 85l394 27v141q0 146 -88 227.5t-242 81.5q-148 0 -243 -75t-114 -208h-48q16 150 126.5 239.5t278.5 89.5
q159 0 261 -82.5t109 -225.5h5q44 137 156 222.5t272 85.5q206 0 328.5 -138.5t122.5 -370.5v-40h-875v-7q0 -230 117 -368t311 -138q153 0 253 75t125 194h51q-28 -140 -143 -227.5t-287 -87.5zM1331 1046q-183 0 -298 -126t-124 -332h824q0 206 -110 332t-292 126zM452 30
q169 0 288 108t119 263v150l-384 -26q-165 -10 -250 -72.5t-85 -170.5q0 -110 87 -181t225 -71z" />
    <glyph glyph-name="Oslashacute" unicode="&#x1fe;" horiz-adv-x="1398" 
d="M1065 1841l-303 -287h-56l293 287h66zM1136 1216l-818 -1049q152 -140 381 -140q268 0 427 188.5t159 506.5q0 308 -149 494zM287 199l820 1050q-158 167 -408 167q-269 0 -427.5 -188t-158.5 -506q0 -333 174 -523zM1325 1458l-157 -202q167 -200 167 -534
q0 -341 -172 -541.5t-464 -200.5q-248 0 -412 147l-173 -222l-37 25l178 228q-192 201 -192 564q0 340 172 540.5t464 200.5q270 0 439 -174l151 194z" />
    <glyph glyph-name="oslashacute" unicode="&#x1ff;" horiz-adv-x="1078" 
d="M790 1557l-246 -303h-53l236 303h63zM850 905l-566 -788q104 -86 255 -86q192 0 308.5 137.5t116.5 369.5q0 230 -114 367zM250 147l569 791q-111 108 -280 108q-192 0 -308 -137.5t-116 -370.5q0 -251 135 -391zM999 1112l-120 -167q134 -151 134 -407
q0 -253 -130.5 -403.5t-343.5 -150.5q-165 0 -284 93l-125 -174l-37 26l128 178q-156 151 -156 431q0 253 130.5 403.5t343.5 150.5q185 0 308 -114l115 159z" />
    <glyph glyph-name="Adblgrave" unicode="&#x200;" horiz-adv-x="1201" 
d="M1125 0l-189 501h-671l-190 -501h-55l555 1443h51l555 -1443h-56zM598 1374l-315 -827h635l-315 827h-5zM690 1554l-303 287h66l293 -287h-56zM436 1554l-303 287h65l294 -287h-56z" />
    <glyph glyph-name="adblgrave" unicode="&#x201;" horiz-adv-x="1021" 
d="M449 30q169 0 289.5 107.5t120.5 258.5v182l-381 -29q-165 -13 -251.5 -80t-86.5 -183q0 -111 87.5 -183.5t221.5 -72.5zM446 -16q-157 0 -256.5 84.5t-99.5 217.5q0 137 96 214t284 92l389 30v97q0 153 -86.5 240t-238.5 87q-151 0 -244 -74t-114 -209h-47
q17 153 126 241t279 88q173 0 273.5 -99.5t100.5 -270.5v-722h-49v245h-1q-39 -116 -153.5 -188.5t-258.5 -72.5zM449 1254h-52l-245 303h62zM672 1254h-52l-245 303h62z" />
    <glyph glyph-name="Ainvertedbreve" unicode="&#x202;" horiz-adv-x="1201" 
d="M1125 0l-189 501h-671l-190 -501h-55l555 1443h51l555 -1443h-56zM598 1374l-315 -827h635l-315 827h-5zM343 1554q0 99 71.5 158t185.5 59t185.5 -59t71.5 -158h-45q0 75 -58.5 124.5t-153.5 49.5t-153.5 -49.5t-58.5 -124.5h-45z" />
    <glyph glyph-name="ainvertedbreve" unicode="&#x203;" horiz-adv-x="1021" 
d="M449 30q169 0 289.5 107.5t120.5 258.5v182l-381 -29q-165 -13 -251.5 -80t-86.5 -183q0 -111 87.5 -183.5t221.5 -72.5zM446 -16q-157 0 -256.5 84.5t-99.5 217.5q0 137 96 214t284 92l389 30v97q0 153 -86.5 240t-238.5 87q-151 0 -244 -74t-114 -209h-47
q17 153 126 241t279 88q173 0 273.5 -99.5t100.5 -270.5v-722h-49v245h-1q-39 -116 -153.5 -188.5t-258.5 -72.5zM275 1254q0 111 72 173.5t186 62.5t186 -62.5t72 -173.5h-45q0 88 -58 140.5t-155 52.5t-155 -52.5t-58 -140.5h-45z" />
    <glyph glyph-name="Edblgrave" unicode="&#x204;" horiz-adv-x="1050" 
d="M627 1554l-303 287h66l293 -287h-56zM373 1554l-303 287h65l294 -287h-56zM950 47v-47h-826v1443h826v-47h-776v-632h740v-46h-740v-671h776z" />
    <glyph glyph-name="edblgrave" unicode="&#x205;" horiz-adv-x="1056" 
d="M533 1046q-180 0 -294 -127.5t-123 -337.5h825q0 207 -112.5 336t-295.5 129zM926 299h51q-28 -140 -144 -227.5t-292 -87.5q-219 0 -347.5 147t-128.5 407q0 250 128 402t340 152q205 0 331.5 -143t126.5 -375v-38h-876v-2q0 -237 116 -370.5t311 -133.5q156 0 257.5 75
t126.5 194zM449 1254h-52l-245 303h62zM672 1254h-52l-245 303h62z" />
    <glyph glyph-name="Einvertedbreve" unicode="&#x206;" horiz-adv-x="1050" 
d="M950 47v-47h-826v1443h826v-47h-776v-632h740v-46h-740v-671h776zM280 1554q0 99 71.5 158t185.5 59t185.5 -59t71.5 -158h-45q0 75 -58.5 124.5t-153.5 49.5t-153.5 -49.5t-58.5 -124.5h-45z" />
    <glyph glyph-name="einvertedbreve" unicode="&#x207;" horiz-adv-x="1056" 
d="M533 1046q-180 0 -294 -127.5t-123 -337.5h825q0 207 -112.5 336t-295.5 129zM926 299h51q-28 -140 -144 -227.5t-292 -87.5q-219 0 -347.5 147t-128.5 407q0 250 128 402t340 152q205 0 331.5 -143t126.5 -375v-38h-876v-2q0 -237 116 -370.5t311 -133.5q156 0 257.5 75
t126.5 194zM275 1254q0 111 72 173.5t186 62.5t186 -62.5t72 -173.5h-45q0 88 -58 140.5t-155 52.5t-155 -52.5t-58 -140.5h-45z" />
    <glyph glyph-name="Idblgrave" unicode="&#x208;" horiz-adv-x="298" 
d="M174 0h-50v1443h50v-1443zM239 1554l-303 287h66l293 -287h-56zM-15 1554l-303 287h65l294 -287h-56z" />
    <glyph glyph-name="idblgrave" unicode="&#x209;" horiz-adv-x="309" 
d="M130 0v1076h49v-1076h-49zM71 1254h-52l-245 303h62zM294 1254h-52l-245 303h62z" />
    <glyph glyph-name="Iinvertedbreve" unicode="&#x20a;" horiz-adv-x="298" 
d="M174 0h-50v1443h50v-1443zM-108 1554q0 99 71.5 158t185.5 59t185.5 -59t71.5 -158h-45q0 75 -58.5 124.5t-153.5 49.5t-153.5 -49.5t-58.5 -124.5h-45z" />
    <glyph glyph-name="iinvertedbreve" unicode="&#x20b;" horiz-adv-x="309" 
d="M130 0v1076h49v-1076h-49zM-103 1254q0 111 72 173.5t186 62.5t186 -62.5t72 -173.5h-45q0 88 -58 140.5t-155 52.5t-155 -52.5t-58 -140.5h-45z" />
    <glyph glyph-name="Odblgrave" unicode="&#x20c;" horiz-adv-x="1398" 
d="M789 1554l-303 287h66l293 -287h-56zM535 1554l-303 287h65l294 -287h-56zM699 1463q291 0 463.5 -200.5t172.5 -540.5q0 -341 -172 -541.5t-464 -200.5q-293 0 -464.5 200.5t-171.5 541.5q0 340 172 540.5t464 200.5zM699 1416q-269 0 -427.5 -188t-158.5 -506
t159 -506.5t427 -188.5t427 188.5t159 506.5t-159 506t-427 188z" />
    <glyph glyph-name="odblgrave" unicode="&#x20d;" horiz-adv-x="1078" 
d="M539 -16q-214 0 -344 150.5t-130 403.5t130.5 403.5t343.5 150.5t343.5 -150.5t130.5 -403.5t-130.5 -403.5t-343.5 -150.5zM539 31q192 0 308.5 137.5t116.5 369.5q0 233 -116.5 370.5t-308.5 137.5t-308 -137.5t-116 -370.5t116 -370t308 -137zM455 1253h-52l-245 303
h62zM678 1253h-52l-245 303h62z" />
    <glyph glyph-name="Oinvertedbreve" unicode="&#x20e;" horiz-adv-x="1398" 
d="M442 1554q0 99 71.5 158t185.5 59t185.5 -59t71.5 -158h-45q0 75 -58.5 124.5t-153.5 49.5t-153.5 -49.5t-58.5 -124.5h-45zM699 1463q291 0 463.5 -200.5t172.5 -540.5q0 -341 -172 -541.5t-464 -200.5q-293 0 -464.5 200.5t-171.5 541.5q0 340 172 540.5t464 200.5z
M699 1416q-269 0 -427.5 -188t-158.5 -506t159 -506.5t427 -188.5t427 188.5t159 506.5t-159 506t-427 188z" />
    <glyph glyph-name="oinvertedbreve" unicode="&#x20f;" horiz-adv-x="1078" 
d="M539 -16q-214 0 -344 150.5t-130 403.5t130.5 403.5t343.5 150.5t343.5 -150.5t130.5 -403.5t-130.5 -403.5t-343.5 -150.5zM539 31q192 0 308.5 137.5t116.5 369.5q0 233 -116.5 370.5t-308.5 137.5t-308 -137.5t-116 -370.5t116 -370t308 -137zM281 1253
q0 111 72 173.5t186 62.5t186 -62.5t72 -173.5h-45q0 88 -58 140.5t-155 52.5t-155 -52.5t-58 -140.5h-45z" />
    <glyph glyph-name="Rdblgrave" unicode="&#x210;" horiz-adv-x="1124" 
d="M573 1554l-303 287h66l293 -287h-56zM319 1554l-303 287h65l294 -287h-56zM174 1396v-720h397q193 0 303.5 96.5t110.5 263.5q0 170 -110 265t-305 95h-396zM174 630v-630h-50v1443h448q216 0 340 -108.5t124 -298.5q0 -158 -92 -263t-255 -133l381 -640h-57l-376 632
q-36 -2 -66 -2h-397z" />
    <glyph glyph-name="rdblgrave" unicode="&#x211;" horiz-adv-x="603" 
d="M120 0v1076h46v-223h2q35 117 110.5 178t186.5 61q59 0 108 -21v-51q-50 25 -116 25q-132 0 -210 -104.5t-78 -270.5v-670h-49zM250 1254h-52l-245 303h62zM473 1254h-52l-245 303h62z" />
    <glyph glyph-name="Rinvertedbreve" unicode="&#x212;" horiz-adv-x="1124" 
d="M174 1396v-720h397q193 0 303.5 96.5t110.5 263.5q0 170 -110 265t-305 95h-396zM174 630v-630h-50v1443h448q216 0 340 -108.5t124 -298.5q0 -158 -92 -263t-255 -133l381 -640h-57l-376 632q-36 -2 -66 -2h-397zM226 1554q0 99 71.5 158t185.5 59t185.5 -59t71.5 -158
h-45q0 75 -58.5 124.5t-153.5 49.5t-153.5 -49.5t-58.5 -124.5h-45z" />
    <glyph glyph-name="rinvertedbreve" unicode="&#x213;" horiz-adv-x="603" 
d="M120 0v1076h46v-223h2q35 117 110.5 178t186.5 61q59 0 108 -21v-51q-50 25 -116 25q-132 0 -210 -104.5t-78 -270.5v-670h-49zM76 1254q0 111 72 173.5t186 62.5t186 -62.5t72 -173.5h-45q0 88 -58 140.5t-155 52.5t-155 -52.5t-58 -140.5h-45z" />
    <glyph glyph-name="Udblgrave" unicode="&#x214;" horiz-adv-x="1305" 
d="M743 1554l-303 287h66l293 -287h-56zM489 1554l-303 287h65l294 -287h-56zM174 1443v-943q0 -218 129.5 -345.5t349.5 -127.5q221 0 350.5 127.5t129.5 345.5v943h50v-944q0 -237 -143.5 -378t-386.5 -141t-386 141t-143 378v944h50z" />
    <glyph glyph-name="udblgrave" unicode="&#x215;" horiz-adv-x="1062" 
d="M942 1076v-1076h-46v251h-2q-33 -114 -143 -190.5t-245 -76.5q-176 0 -284.5 106.5t-108.5 284.5v701h49v-694q0 -164 96 -257.5t253 -93.5q163 0 272.5 109t109.5 287v649h49zM444 1253h-52l-245 303h62zM667 1253h-52l-245 303h62z" />
    <glyph glyph-name="Uinvertedbreve" unicode="&#x216;" horiz-adv-x="1305" 
d="M174 1443v-943q0 -218 129.5 -345.5t349.5 -127.5q221 0 350.5 127.5t129.5 345.5v943h50v-944q0 -237 -143.5 -378t-386.5 -141t-386 141t-143 378v944h50zM396 1554q0 99 71.5 158t185.5 59t185.5 -59t71.5 -158h-45q0 75 -58.5 124.5t-153.5 49.5t-153.5 -49.5
t-58.5 -124.5h-45z" />
    <glyph glyph-name="uinvertedbreve" unicode="&#x217;" horiz-adv-x="1062" 
d="M942 1076v-1076h-46v251h-2q-33 -114 -143 -190.5t-245 -76.5q-176 0 -284.5 106.5t-108.5 284.5v701h49v-694q0 -164 96 -257.5t253 -93.5q163 0 272.5 109t109.5 287v649h49zM270 1253q0 111 72 173.5t186 62.5t186 -62.5t72 -173.5h-45q0 88 -58 140.5t-155 52.5
t-155 -52.5t-58 -140.5h-45z" />
    <glyph glyph-name="Scommaaccent" unicode="&#x218;" horiz-adv-x="1114" 
d="M52 382h50q8 -156 139.5 -256t329.5 -100q193 0 316 99.5t123 251.5q0 120 -85 193t-277 121l-167 42q-202 50 -295.5 133.5t-93.5 215.5q0 163 135 272t326 109q200 0 336 -103.5t143 -257.5h-50q-7 135 -129 225t-300 90q-172 0 -291.5 -95.5t-119.5 -239.5
q0 -114 85 -185t270 -117l165 -41q207 -52 302.5 -136.5t95.5 -223.5q0 -175 -136.5 -287t-354.5 -112q-219 0 -364 113t-153 289zM501 -480h-46l102 338h57z" />
    <glyph glyph-name="scommaaccent" unicode="&#x219;" horiz-adv-x="905" 
d="M92 808q0 124 105 204t257 80q161 0 262.5 -88.5t115.5 -239.5h-48q-14 126 -101.5 204t-228.5 78q-129 0 -221 -67t-92 -170q0 -85 57 -133.5t182 -77.5l167 -40q160 -39 231 -104.5t71 -174.5q0 -131 -110 -213t-281 -82q-169 0 -281.5 92.5t-120.5 227.5h50
q10 -115 109 -194.5t242 -79.5q145 0 243.5 68.5t98.5 177.5q0 93 -62 148t-205 89l-169 39q-138 33 -204.5 94t-66.5 162zM390 -480h-46l102 338h57z" />
    <glyph glyph-name="Tcommaaccent" unicode="&#x21a;" horiz-adv-x="1117" 
d="M490 -480h-46l102 338h57zM583 0h-49v1396h-521v47h1091v-47h-521v-1396z" />
    <glyph glyph-name="tcommaaccent" unicode="&#x21b;" horiz-adv-x="527" 
d="M283 -480h-46l102 338h57zM180 1364h49v-288h218v-45h-218v-796q0 -102 38.5 -146t124.5 -44l37 1h37v-46q-1 0 -38 -0.5t-39 -0.5q-110 0 -159.5 55t-49.5 180v797h-160v45h160v288z" />
    <glyph glyph-name="Hcaron" unicode="&#x21e;" horiz-adv-x="1296" 
d="M1172 0h-50v718h-948v-718h-50v1443h50v-678h948v678h50v-1443zM625 1554l-266 287h59l229 -250h2l229 250h59l-266 -287h-46z" />
    <glyph glyph-name="hcaron" unicode="&#x21f;" horiz-adv-x="1073" 
d="M130 0v1506h49v-684h2q35 121 139 195.5t243 74.5q178 0 287.5 -108.5t109.5 -288.5v-695h-49v693q0 163 -97.5 258t-256.5 95q-166 0 -272 -112t-106 -289v-645h-49zM132 1617l-266 287h59l229 -250h2l229 250h59l-266 -287h-46z" />
    <glyph glyph-name="Adotaccent" unicode="&#x226;" horiz-adv-x="1201" 
d="M1125 0l-189 501h-671l-190 -501h-55l555 1443h51l555 -1443h-56zM598 1374l-315 -827h635l-315 827h-5zM600 1556q-26 0 -45 19t-19 45q0 25 19 44t45 19t45 -19t19 -44q0 -26 -19 -45t-45 -19z" />
    <glyph glyph-name="adotaccent" unicode="&#x227;" horiz-adv-x="1021" 
d="M449 30q169 0 289.5 107.5t120.5 258.5v182l-381 -29q-165 -13 -251.5 -80t-86.5 -183q0 -111 87.5 -183.5t221.5 -72.5zM446 -16q-157 0 -256.5 84.5t-99.5 217.5q0 137 96 214t284 92l389 30v97q0 153 -86.5 240t-238.5 87q-151 0 -244 -74t-114 -209h-47
q17 153 126 241t279 88q173 0 273.5 -99.5t100.5 -270.5v-722h-49v245h-1q-39 -116 -153.5 -188.5t-258.5 -72.5zM533 1254q-25 0 -44.5 19t-19.5 45t19 45t45 19t45.5 -19t19.5 -45t-19.5 -45t-45.5 -19z" />
    <glyph glyph-name="Ecedilla" unicode="&#x228;" horiz-adv-x="1050" 
d="M950 1396h-776v-632h740v-46h-740v-671h776v-47h-390l-59 -141q98 0 152 -40t54 -113q0 -74 -60 -120.5t-156 -47.5q-76 0 -122 17v43q45 -17 121 -17q72 0 121.5 36t49.5 88q0 54 -42.5 83.5t-121.5 29.5h-46v33l62 149h-389v1443h826v-47z" />
    <glyph glyph-name="ecedilla" unicode="&#x229;" horiz-adv-x="1056" 
d="M116 581h825q0 207 -112.5 336t-295.5 129q-180 0 -294 -127.5t-123 -337.5zM991 536h-876v-2q0 -237 116 -370.5t311 -133.5q156 0 257.5 75t126.5 194h51q-27 -136 -138.5 -223.5t-281.5 -91.5l-52 -125q98 0 152 -40t54 -113q0 -74 -60 -120.5t-156 -47.5
q-76 0 -122 17v43q45 -17 121 -17q72 0 121.5 36t49.5 88q0 54 -42.5 83.5t-121.5 29.5h-46v33l56 134q-206 10 -326 156t-120 397q0 250 128 402t340 152q205 0 331.5 -143t126.5 -375v-38z" />
    <glyph glyph-name="Odieresismacron" unicode="&#x22a;" horiz-adv-x="1398" 
d="M699 1463q291 0 463.5 -200.5t172.5 -540.5q0 -341 -172 -541.5t-464 -200.5q-293 0 -464.5 200.5t-171.5 541.5q0 340 172 540.5t464 200.5zM699 1416q-269 0 -427.5 -188t-158.5 -506t159 -506.5t427 -188.5t427 188.5t159 506.5t-159 506t-427 188zM560 1662
q22 0 38 -15.5t16 -37.5t-16 -37t-38 -15t-37.5 15t-15.5 37t15.5 37.5t37.5 15.5zM417 1888h564v-42h-564v42zM838 1662q22 0 37.5 -15.5t15.5 -37.5t-15.5 -37t-37.5 -15t-38 15t-16 37t16 37.5t38 15.5z" />
    <glyph glyph-name="odieresismacron" unicode="&#x22b;" horiz-adv-x="1078" 
d="M400 1253q-22 0 -38 15.5t-16 38.5q0 22 16 37.5t38 15.5t38 -15.5t16 -37.5t-16 -38t-38 -16zM678 1253q-22 0 -38 16t-16 38t16 37.5t38 15.5t38 -15.5t16 -37.5q0 -23 -16 -38.5t-38 -15.5zM824 1627v-43h-584v43h584zM539 -16q-214 0 -344 150.5t-130 403.5
t130.5 403.5t343.5 150.5t343.5 -150.5t130.5 -403.5t-130.5 -403.5t-343.5 -150.5zM539 31q192 0 308.5 137.5t116.5 369.5q0 233 -116.5 370.5t-308.5 137.5t-308 -137.5t-116 -370.5t116 -370t308 -137z" />
    <glyph glyph-name="Otildemacron" unicode="&#x22c;" horiz-adv-x="1398" 
d="M817 1552q-34 0 -61.5 15.5t-47 37t-37.5 43.5t-41 37.5t-49 15.5q-47 0 -70.5 -36t-23.5 -95h-45q0 78 36 126t102 48q41 0 75 -23.5t53.5 -51t48 -51t60.5 -23.5q47 0 70 35.5t23 95.5h45q0 -78 -36 -126t-102 -48zM981 1888v-42h-564v42h564zM699 1463
q291 0 463.5 -200.5t172.5 -540.5q0 -341 -172 -541.5t-464 -200.5q-293 0 -464.5 200.5t-171.5 541.5q0 340 172 540.5t464 200.5zM699 1416q-269 0 -427.5 -188t-158.5 -506t159 -506.5t427 -188.5t427 188.5t159 506.5t-159 506t-427 188z" />
    <glyph glyph-name="otildemacron" unicode="&#x22d;" horiz-adv-x="1078" 
d="M683 1234q-36 0 -68 17.5t-55.5 42t-46 49t-49 42t-55.5 17.5q-97 0 -97 -158h-45q0 92 36 146.5t106 54.5q36 0 68 -17t55.5 -41.5t46 -49.5t49.5 -42t55 -17q97 0 97 158h45q0 -93 -36 -147.5t-106 -54.5zM831 1627v-43h-584v43h584zM539 -16q-214 0 -344 150.5
t-130 403.5t130.5 403.5t343.5 150.5t343.5 -150.5t130.5 -403.5t-130.5 -403.5t-343.5 -150.5zM539 31q192 0 308.5 137.5t116.5 369.5q0 233 -116.5 370.5t-308.5 137.5t-308 -137.5t-116 -370.5t116 -370t308 -137z" />
    <glyph glyph-name="Odotaccent" unicode="&#x22e;" horiz-adv-x="1398" 
d="M699 1556q-26 0 -45 19t-19 45q0 25 19 44t45 19t45 -19t19 -44q0 -26 -19 -45t-45 -19zM699 1463q291 0 463.5 -200.5t172.5 -540.5q0 -341 -172 -541.5t-464 -200.5q-293 0 -464.5 200.5t-171.5 541.5q0 340 172 540.5t464 200.5zM699 1416q-269 0 -427.5 -188
t-158.5 -506t159 -506.5t427 -188.5t427 188.5t159 506.5t-159 506t-427 188z" />
    <glyph glyph-name="odotaccent" unicode="&#x22f;" horiz-adv-x="1078" 
d="M539 1253q-25 0 -44.5 19.5t-19.5 44.5q0 26 19 45t45 19t45.5 -19t19.5 -45t-19.5 -45t-45.5 -19zM539 -16q-214 0 -344 150.5t-130 403.5t130.5 403.5t343.5 150.5t343.5 -150.5t130.5 -403.5t-130.5 -403.5t-343.5 -150.5zM539 31q192 0 308.5 137.5t116.5 369.5
q0 233 -116.5 370.5t-308.5 137.5t-308 -137.5t-116 -370.5t116 -370t308 -137z" />
    <glyph glyph-name="Odotaccentmacron" unicode="&#x230;" horiz-adv-x="1398" 
d="M699 1555q-26 0 -45 19t-19 44q0 26 19 44.5t45 18.5t45 -18.5t19 -44.5q0 -25 -19 -44t-45 -19zM981 1888v-42h-564v42h564zM699 1463q291 0 463.5 -200.5t172.5 -540.5q0 -341 -172 -541.5t-464 -200.5q-293 0 -464.5 200.5t-171.5 541.5q0 340 172 540.5t464 200.5z
M699 1416q-269 0 -427.5 -188t-158.5 -506t159 -506.5t427 -188.5t427 188.5t159 506.5t-159 506t-427 188z" />
    <glyph glyph-name="odotaccentmacron" unicode="&#x231;" horiz-adv-x="1078" 
d="M539 -16q-214 0 -344 150.5t-130 403.5t130.5 403.5t343.5 150.5t343.5 -150.5t130.5 -403.5t-130.5 -403.5t-343.5 -150.5zM539 31q192 0 308.5 137.5t116.5 369.5q0 233 -116.5 370.5t-308.5 137.5t-308 -137.5t-116 -370.5t116 -370t308 -137zM539 1253q-26 0 -45 19
t-19 45q0 25 19 44t45 19t45 -19t19 -44q0 -26 -19 -45t-45 -19zM824 1627v-43h-584v43h584z" />
    <glyph glyph-name="Ymacron" unicode="&#x232;" horiz-adv-x="1148" 
d="M600 0h-50v631l-529 812h60l492 -758h4l491 758h59l-527 -812v-631zM856 1659v-43h-564v43h564z" />
    <glyph glyph-name="ymacron" unicode="&#x233;" horiz-adv-x="888" 
d="M171 -362q-26 0 -47 9v46q23 -9 52 -9q71 0 115.5 45t90.5 161l35 91l-415 1095h54l387 -1029h2l388 1029h54l-424 -1120q-51 -134 -89.5 -199t-84 -92t-118.5 -27zM729 1347v-43h-584v43h584z" />
    <glyph glyph-name="dotlessj" unicode="&#x237;" horiz-adv-x="309" 
d="M179 1076v-1175q0 -135 -63.5 -198.5t-199.5 -63.5h-29v46h27q113 0 164.5 50.5t51.5 161.5v1179h49z" />
    <glyph glyph-name="quoteright" unicode="&#x2019;" horiz-adv-x="365" 
d="M143 998h-48l131 445h50z" />
    <glyph glyph-name="quoteright" unicode="&#x2bc;" horiz-adv-x="365" 
d="M143 998h-48l131 445h50z" />
    <glyph glyph-name="circumflex" unicode="&#x2c6;" horiz-adv-x="686" 
d="M365 1557l265 -303h-56l-230 264h-2l-230 -264h-56l265 303h44z" />
    <glyph glyph-name="caron" unicode="&#x2c7;" horiz-adv-x="686" 
d="M365 1254h-44l-265 303h56l230 -264h2l230 264h56z" />
    <glyph glyph-name="breve" unicode="&#x2d8;" horiz-adv-x="814" 
d="M149 1490h45q0 -88 58 -141t155 -53t155 53t58 141h45q0 -112 -72 -174.5t-186 -62.5t-186 62.5t-72 174.5z" />
    <glyph glyph-name="dotaccent" unicode="&#x2d9;" horiz-adv-x="807" 
d="M403 1254q-25 0 -44.5 19t-19.5 45t19 45t45 19t45.5 -19t19.5 -45t-19.5 -45t-45.5 -19z" />
    <glyph glyph-name="ring" unicode="&#x2da;" horiz-adv-x="689" 
d="M345 1249q-68 0 -116.5 49t-48.5 117t48.5 116.5t116.5 48.5q67 0 115.5 -48.5t48.5 -116.5t-48.5 -117t-115.5 -49zM345 1288q53 0 89.5 37t36.5 90t-36.5 90t-89.5 37q-54 0 -90.5 -37t-36.5 -90t36.5 -90t90.5 -37z" />
    <glyph glyph-name="ogonek" unicode="&#x2db;" horiz-adv-x="516" 
d="M411 -304v-44q-47 -28 -110 -28q-81 0 -130.5 46.5t-49.5 121.5q0 138 150 230l39 -7q-67 -40 -104 -95.5t-37 -116.5t37 -97.5t102 -36.5q64 0 103 27z" />
    <glyph glyph-name="tilde" unicode="&#x2dc;" horiz-adv-x="686" 
d="M480 1254q-36 0 -68 17.5t-55.5 42t-46 49t-49 42t-55.5 17.5q-97 0 -97 -158h-45q0 92 36 146.5t106 54.5q36 0 68 -17t55.5 -41.5t46 -49.5t49.5 -42t55 -17q97 0 97 158h45q0 -93 -36 -147.5t-106 -54.5z" />
    <glyph glyph-name="hungarumlaut" unicode="&#x2dd;" horiz-adv-x="815" 
d="M390 1254l235 303h62l-245 -303h-52zM167 1254l235 303h62l-245 -303h-52z" />
    <glyph glyph-name="gravecmb" unicode="&#x300;" horiz-adv-x="0" 
d="M48 1254h-53l-246 303h63z" />
    <glyph glyph-name="acutecmb" unicode="&#x301;" horiz-adv-x="0" 
d="M5 1254h-53l236 303h63z" />
    <glyph glyph-name="circumflexcmb" unicode="&#x302;" horiz-adv-x="0" 
d="M22 1557l265 -303h-56l-230 264h-2l-230 -264h-56l265 303h44z" />
    <glyph glyph-name="tildecmb" unicode="&#x303;" horiz-adv-x="0" 
d="M137 1254q-36 0 -68 17.5t-55.5 42t-46 49t-49 42t-55.5 17.5q-97 0 -97 -158h-45q0 92 36 146.5t106 54.5q36 0 68 -17t55.5 -41.5t46 -49.5t49.5 -42t55 -17q97 0 97 158h45q0 -93 -36 -147.5t-106 -54.5z" />
    <glyph glyph-name="macroncmb" unicode="&#x304;" horiz-adv-x="0" 
d="M285 1348v-43h-584v43h584z" />
    <glyph glyph-name="brevecmb" unicode="&#x306;" horiz-adv-x="0" 
d="M-258 1490h45q0 -88 58 -141t155 -53t155 53t58 141h45q0 -112 -72 -174.5t-186 -62.5t-186 62.5t-72 174.5z" />
    <glyph glyph-name="dotaccentcmb" unicode="&#x307;" horiz-adv-x="0" 
d="M0 1254q-26 0 -45 19t-19 45t19 45t45 19t45.5 -19t19.5 -45t-19.5 -45t-45.5 -19z" />
    <glyph glyph-name="dieresiscmb" unicode="&#x308;" horiz-adv-x="0" 
d="M-139 1254q-22 0 -38.5 16t-16.5 38t16 37.5t39 15.5q22 0 38 -15.5t16 -37.5t-16 -38t-38 -16zM139 1254q-22 0 -38 16t-16 38t16 37.5t38 15.5q23 0 39 -15.5t16 -37.5t-16.5 -38t-38.5 -16z" />
    <glyph glyph-name="hookabovecmb" unicode="&#x309;" horiz-adv-x="0" 
d="M-115 1440v45q43 29 105 29q66 0 106.5 -36.5t40.5 -94.5q0 -46 -27 -83.5t-72 -57.5l-27 32q80 35 80 107q0 40 -29.5 65t-77.5 25q-60 0 -99 -31z" />
    <glyph glyph-name="ringcmb" unicode="&#x30a;" horiz-adv-x="0" 
d="M0 1249q-68 0 -116.5 49t-48.5 117t48.5 116.5t116.5 48.5q67 0 115.5 -48.5t48.5 -116.5t-48.5 -117t-115.5 -49zM0 1288q53 0 89.5 37t36.5 90t-36.5 90t-89.5 37q-54 0 -90.5 -37t-36.5 -90t36.5 -90t90.5 -37z" />
    <glyph glyph-name="hungarumlautcmb" unicode="&#x30b;" horiz-adv-x="0" 
d="M84 1254l235 303h62l-245 -303h-52zM-139 1254l235 303h62l-245 -303h-52z" />
    <glyph glyph-name="caroncmb" unicode="&#x30c;" horiz-adv-x="0" 
d="M22 1254h-44l-265 303h56l230 -264h2l230 264h56z" />
    <glyph glyph-name="dblgravecmb" unicode="&#x30f;" horiz-adv-x="0" 
d="M-84 1254h-52l-245 303h62zM139 1254h-52l-245 303h62z" />
    <glyph glyph-name="invertedbrevecmb" unicode="&#x311;" horiz-adv-x="0" 
d="M-258 1254q0 111 72 173.5t186 62.5t186 -62.5t72 -173.5h-45q0 88 -58 140.5t-155 52.5t-155 -52.5t-58 -140.5h-45z" />
    <glyph glyph-name="horncmb" unicode="&#x31b;" horiz-adv-x="0" 
d="M0 1044v45q3 -3 42 -3q164 0 164 160v114h49v-123q0 -97 -56.5 -146.5t-154.5 -49.5q-41 0 -44 3z" />
    <glyph glyph-name="dotbelowcmb" unicode="&#x323;" horiz-adv-x="0" 
d="M0 -268q-26 0 -45 19t-19 45q0 25 19 44t45 19t45 -19t19 -44q0 -26 -19 -45t-45 -19z" />
    <glyph glyph-name="dieresisbelowcmb" unicode="&#x324;" horiz-adv-x="0" 
d="M-139 -249q-22 0 -38.5 16t-16.5 38t16 37.5t39 15.5q22 0 38 -15.5t16 -37.5t-16 -38t-38 -16zM139 -249q-22 0 -38 16t-16 38t16 37.5t38 15.5q23 0 39 -15.5t16 -37.5t-16.5 -38t-38.5 -16z" />
    <glyph glyph-name="ringbelowcmb" unicode="&#x325;" horiz-adv-x="0" 
d="M0 -473q-68 0 -116.5 49t-48.5 117t48.5 116.5t116.5 48.5q67 0 115.5 -48.5t48.5 -116.5t-48.5 -117t-115.5 -49zM0 -434q53 0 89.5 37t36.5 90t-36.5 90t-89.5 37q-54 0 -90.5 -37t-36.5 -90t36.5 -90t90.5 -37z" />
    <glyph glyph-name="commabelowcmb" unicode="&#x326;" horiz-adv-x="0" 
d="M-69 -480h-46l102 338h57z" />
    <glyph glyph-name="cedillacmb" unicode="&#x327;" horiz-adv-x="0" 
d="M-86 -182v33l65 155h44v-6l-59 -141q98 0 152 -40t54 -113q0 -74 -60 -120.5t-156 -47.5q-76 0 -122 17v43q45 -17 121 -17q72 0 121.5 36t49.5 88q0 54 -42.5 83.5t-121.5 29.5h-46z" />
    <glyph glyph-name="ogonekcmb" unicode="&#x328;" horiz-adv-x="0" 
d="M119 -304v-44q-47 -28 -110 -28q-81 0 -130.5 46.5t-49.5 121.5q0 138 150 230l39 -7q-67 -40 -104 -95.5t-37 -116.5t37 -97.5t102 -36.5q64 0 103 27z" />
    <glyph glyph-name="circumflexbelowcmb" unicode="&#x32d;" horiz-adv-x="0" 
d="M-23 -141h46l266 -287h-59l-229 249h-2l-229 -249h-59z" />
    <glyph glyph-name="brevebelowcmb" unicode="&#x32e;" horiz-adv-x="0" 
d="M-257 -144h45q0 -75 58.5 -125t153.5 -50t153.5 50t58.5 125h45q0 -99 -71.5 -158t-185.5 -59t-185.5 59t-71.5 158z" />
    <glyph glyph-name="tildebelowcmb" unicode="&#x330;" horiz-adv-x="0" 
d="M137 -352q-36 0 -68 17.5t-55.5 42t-46 49t-49 42t-55.5 17.5q-97 0 -97 -158h-45q0 92 36 146.5t106 54.5q36 0 68 -17t55.5 -41.5t46 -49.5t49.5 -42t55 -17q97 0 97 158h45q0 -93 -36 -147.5t-106 -54.5z" />
    <glyph glyph-name="macronbelowcmb" unicode="&#x331;" horiz-adv-x="0" 
d="M282 -201v-43h-564v43h564z" />
    <glyph glyph-name="greekquestionmark" unicode="&#x37e;" horiz-adv-x="488" 
d="M244 770q-23 0 -40 17t-17 40q0 24 17 40.5t40 16.5q24 0 40.5 -16.5t16.5 -40.5q0 -23 -16.5 -40t-40.5 -17zM204 -211h-41l56 384h53z" />
    <glyph glyph-name="tonosgreek" unicode="&#x384;" horiz-adv-x="541" 
d="M177 1254l91 317h62l-110 -317h-43z" />
    <glyph glyph-name="dieresistonosgreek" unicode="&#x385;" horiz-adv-x="795" 
d="M224 1254q-22 0 -38.5 16t-16.5 38t16 37.5t39 15.5q22 0 38 -15.5t16 -37.5t-16 -38t-38 -16zM572 1254q-22 0 -38.5 16t-16.5 38t16 37.5t39 15.5q22 0 38 -15.5t16 -37.5t-16 -38t-38 -16zM406 1254h-44l54 317h63z" />
    <glyph glyph-name="Alphatonosgreek" unicode="&#x386;" horiz-adv-x="1199" 
d="M1124 0l-189 501h-671l-190 -501h-55l555 1443h51l555 -1443h-56zM597 1374l-315 -827h635l-315 827h-5zM144 1101l99 342h63l-117 -342h-45z" />
    <glyph glyph-name="anoteleia" unicode="&#x387;" horiz-adv-x="488" 
d="M244 962q-23 0 -40 17t-17 40q0 24 17 41t40 17q24 0 40.5 -17t16.5 -41q0 -23 -16.5 -40t-40.5 -17z" />
    <glyph glyph-name="Epsilontonosgreek" unicode="&#x388;" horiz-adv-x="1227" 
d="M44 1101l99 342h63l-117 -342h-45zM1154 47v-47h-826v1443h826v-47h-776v-632h740v-46h-740v-671h776z" />
    <glyph glyph-name="Etatonosgreek" unicode="&#x389;" horiz-adv-x="1501" 
d="M44 1101l99 342h63l-117 -342h-45zM1376 0h-50v718h-948v-718h-50v1443h50v-678h948v678h50v-1443z" />
    <glyph glyph-name="Iotatonosgreek" unicode="&#x38a;" horiz-adv-x="502" 
d="M378 0h-50v1443h50v-1443zM44 1101l99 342h63l-117 -342h-45z" />
    <glyph glyph-name="Omicrontonosgreek" unicode="&#x38c;" horiz-adv-x="1516" 
d="M818 1463q291 0 463.5 -200.5t172.5 -540.5q0 -341 -172 -541.5t-464 -200.5t-464 200.5t-172 541.5q0 340 172 540.5t464 200.5zM818 1416q-269 0 -427.5 -188t-158.5 -506t159 -506.5t427 -188.5t427 188.5t159 506.5t-159 506t-427 188zM42 1101l99 342h63l-117 -342
h-45z" />
    <glyph glyph-name="Upsilontonosgreek" unicode="&#x38e;" horiz-adv-x="1433" 
d="M43 1102l99 342h63l-117 -342h-45zM886 0h-50v631l-529 812h60l492 -758h4l491 758h59l-527 -812v-631z" />
    <glyph glyph-name="Omegatonosgreek" unicode="&#x38f;" horiz-adv-x="1579" 
d="M1428 765q0 187 -74.5 335.5t-211 232t-310.5 83.5q-265 0 -432 -181.5t-167 -469.5q0 -238 115.5 -406.5t359.5 -283.5v-75h-518v47h466v4q-473 231 -473 715q0 152 47.5 282t132 221t205.5 142.5t264 51.5q190 0 337.5 -89t228 -247.5t80.5 -360.5q0 -483 -473 -715v-4
h467v-47h-519v75q244 115 359.5 283.5t115.5 406.5zM44 1101l99 342h63l-117 -342h-45z" />
    <glyph glyph-name="iotadieresistonosgreek" unicode="&#x390;" horiz-adv-x="436" 
d="M120 1076h49v-840q0 -107 37 -153.5t131 -46.5q39 0 72 10l5 -46q-30 -10 -82 -10q-114 0 -163 55t-49 184v847zM-9 1254q-22 0 -38.5 16t-16.5 38t16 37.5t39 15.5q22 0 38 -15.5t16 -37.5t-16 -38t-38 -16zM339 1254q-22 0 -38.5 16t-16.5 38t16 37.5t39 15.5
q22 0 38 -15.5t16 -37.5t-16 -38t-38 -16zM173 1254h-44l54 317h63z" />
    <glyph glyph-name="Alphagreek" unicode="&#x391;" horiz-adv-x="1201" 
d="M1125 0l-189 501h-671l-190 -501h-55l555 1443h51l555 -1443h-56zM598 1374l-315 -827h635l-315 827h-5z" />
    <glyph glyph-name="Betagreek" unicode="&#x392;" horiz-adv-x="1139" 
d="M602 0h-478v1443h464q188 0 305 -96.5t117 -252.5q0 -133 -78.5 -225.5t-214.5 -119.5v-4q161 -16 265.5 -113.5t104.5 -252.5q0 -174 -130 -276.5t-355 -102.5zM174 1397v-632h401q174 0 279.5 89.5t105.5 238.5q0 137 -103 220.5t-273 83.5h-410zM174 46h426
q204 0 321 90.5t117 243.5q0 157 -123 248t-337 91h-404v-673z" />
    <glyph glyph-name="Gammagreek" unicode="&#x393;" horiz-adv-x="1000" 
d="M174 0h-50v1443h797v-47h-747v-1396z" />
    <glyph glyph-name="Deltagreek" unicode="&#x394;" horiz-adv-x="1254" 
d="M1213 0h-1172v37l560 1406h51l561 -1406v-37zM102 52v-5h1050v5l-523 1322h-4z" />
    <glyph glyph-name="Epsilongreek" unicode="&#x395;" horiz-adv-x="1023" 
d="M950 47v-47h-826v1443h826v-47h-776v-632h740v-46h-740v-671h776z" />
    <glyph glyph-name="Zetagreek" unicode="&#x396;" horiz-adv-x="1147" 
d="M64 0v42l954 1350v4h-925v47h989v-43l-953 -1349v-4h954v-47h-1019z" />
    <glyph glyph-name="Etagreek" unicode="&#x397;" horiz-adv-x="1296" 
d="M1172 0h-50v718h-948v-718h-50v1443h50v-678h948v678h50v-1443z" />
    <glyph glyph-name="Thetagreek" unicode="&#x398;" horiz-adv-x="1398" 
d="M1052 707h-706v47h706v-47zM699 1463q292 0 464.5 -200.5t172.5 -540.5q0 -341 -172 -541.5t-465 -200.5t-464.5 200.5t-171.5 541.5q0 340 172 540.5t464 200.5zM699 1416q-269 0 -427.5 -187.5t-158.5 -506.5q0 -318 159 -506.5t427 -188.5t427.5 188.5t159.5 506.5
t-159.5 506t-427.5 188z" />
    <glyph glyph-name="Iotagreek" unicode="&#x399;" horiz-adv-x="298" 
d="M174 0h-50v1443h50v-1443z" />
    <glyph glyph-name="Kappagreek" unicode="&#x39a;" horiz-adv-x="1107" 
d="M174 0h-50v1443h50v-836h4l784 836h64l-594 -635l664 -808h-64l-636 773l-222 -237v-536z" />
    <glyph glyph-name="Lambdagreek" unicode="&#x39b;" horiz-adv-x="1161" 
d="M1085 0l-502 1369h-5l-503 -1369h-55l535 1443h51l535 -1443h-56z" />
    <glyph glyph-name="Mugreek" unicode="&#x39c;" horiz-adv-x="1576" 
d="M1451 0h-49v1328h-4l-584 -1327h-53l-584 1327h-4v-1328h-49v1443h53l609 -1380h4l606 1380h55v-1443z" />
    <glyph glyph-name="Nugreek" unicode="&#x39d;" horiz-adv-x="1315" 
d="M174 0h-50v1443h55l958 -1348h4v1348h50v-1443h-46l-967 1359h-4v-1359z" />
    <glyph glyph-name="Xigreek" unicode="&#x39e;" horiz-adv-x="1154" 
d="M73 1443h1009v-49h-1009v49zM1023 719h-892v49h892v-49zM73 49h1009v-49h-1009v49z" />
    <glyph glyph-name="Omicrongreek" unicode="&#x39f;" horiz-adv-x="1398" 
d="M699 1463q291 0 463.5 -200.5t172.5 -540.5q0 -341 -172 -541.5t-464 -200.5q-293 0 -464.5 200.5t-171.5 541.5q0 340 172 540.5t464 200.5zM699 1416q-269 0 -427.5 -188t-158.5 -506t159 -506.5t427 -188.5t427 188.5t159 506.5t-159 506t-427 188z" />
    <glyph glyph-name="Pigreek" unicode="&#x3a0;" horiz-adv-x="1276" 
d="M1152 0h-50v1396h-928v-1396h-50v1443h1028v-1443z" />
    <glyph glyph-name="Rhogreek" unicode="&#x3a1;" horiz-adv-x="1087" 
d="M124 1443h448q212 0 337.5 -114t125.5 -307t-126 -307t-338 -114h-397v-601h-50v1443zM174 1396v-748h394q192 0 304.5 100.5t112.5 273.5q0 174 -112.5 274t-304.5 100h-394z" />
    <glyph glyph-name="Sigmagreek" unicode="&#x3a3;" horiz-adv-x="1126" 
d="M128 51v-4h934v-47h-998v42l483 698l-465 659v44h979v-47h-913v-4l457 -648v-4z" />
    <glyph glyph-name="Taugreek" unicode="&#x3a4;" horiz-adv-x="1117" 
d="M583 0h-49v1396h-521v47h1091v-47h-521v-1396z" />
    <glyph glyph-name="Upsilongreek" unicode="&#x3a5;" horiz-adv-x="1148" 
d="M600 0h-50v631l-529 812h60l492 -758h4l491 758h59l-527 -812v-631z" />
    <glyph glyph-name="Phigreek" unicode="&#x3a6;" horiz-adv-x="1531" 
d="M1427 724q0 286 -169 448.5t-468 164.5v-1227q299 1 468 164t169 450zM103 724q0 -287 169 -450t468 -164v1227q-300 -2 -468.5 -164.5t-168.5 -448.5zM790 -59h-50v123q-325 1 -506 175t-181 485q0 310 181 484t506 176v106h50v-106q324 -2 506.5 -176t182.5 -484
q0 -311 -182.5 -485t-506.5 -175v-123z" />
    <glyph glyph-name="Chigreek" unicode="&#x3a7;" horiz-adv-x="1190" 
d="M41 0l524 721v1l-523 721h60l493 -680h1l494 680h59l-523 -721l522 -722h-60l-492 680h-1l-495 -680h-59z" />
    <glyph glyph-name="Psigreek" unicode="&#x3a8;" horiz-adv-x="1401" 
d="M726 0h-50v357q-281 0 -426.5 142t-145.5 417v527h50v-527q0 -251 133 -381.5t389 -130.5v1039h50v-1039q255 0 388 130.5t133 381.5v527h50v-527q0 -275 -145 -417t-426 -142v-357z" />
    <glyph glyph-name="Omegagreek" unicode="&#x3a9;" horiz-adv-x="1497" 
d="M1346 765q0 187 -74.5 335.5t-211 232t-310.5 83.5q-265 0 -432 -181.5t-167 -469.5q0 -238 115.5 -406.5t359.5 -283.5v-75h-518v47h466v4q-473 231 -473 715q0 152 47.5 282t132 221t205.5 142.5t264 51.5q190 0 337.5 -89t228 -247.5t80.5 -360.5q0 -483 -473 -715v-4
h467v-47h-519v75q244 115 359.5 283.5t115.5 406.5z" />
    <glyph glyph-name="Iotadieresisgreek" unicode="&#x3aa;" horiz-adv-x="347" 
d="M223 0h-50v1443h50v-1443zM59 1556q-22 0 -38.5 16t-16.5 38t16 37.5t39 15.5q22 0 38 -15.5t16 -37.5t-16 -38t-38 -16zM337 1556q-22 0 -38 16t-16 38t16 37.5t38 15.5q23 0 39 -15.5t16 -37.5t-16.5 -38t-38.5 -16z" />
    <glyph glyph-name="Upsilondieresisgreek" unicode="&#x3ab;" horiz-adv-x="1208" 
d="M660 0h-50v631l-529 812h60l492 -758h4l491 758h59l-527 -812v-631zM495 1556q-22 0 -38.5 16t-16.5 38t16 37.5t39 15.5q22 0 38 -15.5t16 -37.5t-16 -38t-38 -16zM773 1556q-22 0 -38 16t-16 38t16 37.5t38 15.5q23 0 39 -15.5t16 -37.5t-16.5 -38t-38.5 -16z" />
    <glyph glyph-name="alphatonosgreek" unicode="&#x3ac;" horiz-adv-x="1209" 
d="M525 31q173 0 287 144.5t114 362.5q0 219 -117.5 363.5t-288.5 144.5q-175 0 -290 -144t-115 -364q0 -222 115 -364.5t295 -142.5zM522 -16q-200 0 -328.5 156.5t-128.5 398.5q0 240 128.5 396.5t325.5 156.5q90 0 175 -42t149 -120t85 -175h2v321h46v-884
q0 -82 27.5 -119t88.5 -37q36 0 67 10l5 -45q-23 -10 -78 -10q-80 0 -119.5 46.5t-40.5 143.5v134h-2q-28 -136 -144 -233.5t-258 -97.5zM509 1254l91 317h62l-110 -317h-43z" />
    <glyph glyph-name="epsilontonosgreek" unicode="&#x3ad;" horiz-adv-x="1018" 
d="M480 1254l91 317h62l-110 -317h-43zM484 -16q-193 0 -301 79t-108 219q0 106 63 178.5t173 92.5v2q-99 9 -156 73.5t-57 166.5q0 135 109.5 216t293.5 81q178 0 297 -90t140 -241h-50q-11 124 -121.5 204.5t-267.5 80.5q-159 0 -255.5 -69t-96.5 -182q0 -110 76 -162.5
t233 -52.5h146v-48h-148q-154 0 -241.5 -66.5t-87.5 -182.5q0 -118 94.5 -185t261.5 -67q156 0 274 76t150 199h51q-29 -141 -162.5 -231.5t-309.5 -90.5z" />
    <glyph glyph-name="etatonosgreek" unicode="&#x3ae;" horiz-adv-x="1202" 
d="M1089 -351h-49v1039q0 157 -95 257.5t-245 100.5q-174 0 -277.5 -111t-103.5 -297v-638h-49v884q0 81 -28.5 118.5t-88.5 37.5q-43 0 -72 -10v46q33 10 79 10q79 0 116.5 -48.5t38.5 -152.5q1 -62 1 -63h2q40 126 143 198t244 72q167 0 275.5 -109.5t108.5 -277.5v-1056z
M480 1254l91 317h62l-110 -317h-43z" />
    <glyph glyph-name="iotatonosgreek" unicode="&#x3af;" horiz-adv-x="436" 
d="M120 1076h49v-840q0 -107 37 -153.5t131 -46.5q39 0 72 10l5 -46q-30 -10 -82 -10q-114 0 -163 55t-49 184v847zM128 1254l91 317h62l-110 -317h-43z" />
    <glyph glyph-name="upsilondieresistonosgreek" unicode="&#x3b0;" horiz-adv-x="1019" 
d="M323 1254q-22 0 -38.5 16t-16.5 38t16 37.5t39 15.5q22 0 38 -15.5t16 -37.5t-16 -38t-38 -16zM671 1254q-22 0 -38.5 16t-16.5 38t16 37.5t39 15.5q22 0 38 -15.5t16 -37.5t-16 -38t-38 -16zM505 1254h-44l54 317h63zM506 -16q-190 0 -291.5 110t-101.5 313v669h49v-666
q0 -183 89 -281t256 -98q180 0 279 136t99 386q0 322 -83 523h52q80 -202 80 -521q0 -273 -112 -422t-316 -149z" />
    <glyph glyph-name="alphagreek" unicode="&#x3b1;" horiz-adv-x="1209" 
d="M525 31q173 0 287 144.5t114 362.5q0 219 -117.5 363.5t-288.5 144.5q-175 0 -290 -144t-115 -364q0 -222 115 -364.5t295 -142.5zM522 -16q-200 0 -328.5 156.5t-128.5 398.5q0 240 128.5 396.5t325.5 156.5q90 0 175 -42t149 -120t85 -175h2v321h46v-884
q0 -82 27.5 -119t88.5 -37q36 0 67 10l5 -45q-23 -10 -78 -10q-80 0 -119.5 46.5t-40.5 143.5v134h-2q-28 -136 -144 -233.5t-258 -97.5z" />
    <glyph glyph-name="betagreek" unicode="&#x3b2;" horiz-adv-x="1106" 
d="M412 791v48h150q148 0 239 87.5t91 228.5q0 145 -93 232.5t-246 87.5q-189 0 -286.5 -116.5t-97.5 -342.5v-470q0 -236 118 -375.5t320 -139.5q172 0 278 104.5t106 269.5q0 185 -119.5 285.5t-322.5 100.5h-137zM120 1020q0 243 111 372.5t319 129.5q181 0 285 -99.5
t104 -265.5q0 -126 -70 -218.5t-198 -119.5v-2q179 -25 274.5 -131.5t95.5 -276.5q0 -192 -119.5 -308.5t-310.5 -116.5q-169 0 -285.5 87.5t-154.5 243.5h-2v-666h-49v1371z" />
    <glyph glyph-name="gammagreek" unicode="&#x3b3;" horiz-adv-x="971" 
d="M876 915q0 -155 -42 -292.5t-125.5 -278.5t-240.5 -351v-328h-49v321l-388 1090h54l362 -1025h2q211 285 294.5 470t83.5 394q0 77 -14 161h51q12 -81 12 -161z" />
    <glyph glyph-name="deltagreek" unicode="&#x3b4;" horiz-adv-x="1049" 
d="M528 -16q-211 0 -341.5 140t-130.5 365q0 231 120.5 367.5t325.5 146.5v3q-142 56 -202 118.5t-60 153.5q0 114 88 179t243 65q181 0 306 -66l-1 -47q-132 67 -305 67q-135 0 -208.5 -51.5t-73.5 -145.5q0 -86 72.5 -145.5t272.5 -135.5q190 -73 272.5 -201t82.5 -320
q0 -217 -129.5 -355t-331.5 -138zM527 30q183 0 298 124.5t115 321.5q0 116 -34 209.5t-92.5 153t-134.5 91.5t-162 32q-84 0 -157.5 -30.5t-131 -87.5t-91 -148t-33.5 -204q0 -204 117 -333t306 -129z" />
    <glyph glyph-name="epsilongreek" unicode="&#x3b5;" horiz-adv-x="1018" 
d="M484 -16q-193 0 -301 79t-108 219q0 106 63 178.5t173 92.5v2q-99 9 -156 73.5t-57 166.5q0 135 109.5 216t293.5 81q178 0 297 -90t140 -241h-50q-11 124 -121.5 204.5t-267.5 80.5q-159 0 -255.5 -69t-96.5 -182q0 -110 76 -162.5t233 -52.5h146v-48h-148
q-154 0 -241.5 -66.5t-87.5 -182.5q0 -118 94.5 -185t261.5 -67q156 0 274 76t150 199h51q-29 -141 -162.5 -231.5t-309.5 -90.5z" />
    <glyph glyph-name="zetagreek" unicode="&#x3b6;" horiz-adv-x="838" 
d="M765 -337l-43 11q55 79 55 179q0 67 -55.5 119t-195.5 103q-180 66 -277 130.5t-140.5 150.5t-43.5 215q0 160 88 328t236.5 310.5t335.5 246.5v2h-580v48h670v-48q-317 -172 -508.5 -408t-191.5 -478q0 -74 13 -127t40.5 -97.5t81.5 -82.5t125 -72.5t183 -78.5
q153 -59 210.5 -116.5t57.5 -144.5q0 -108 -61 -190z" />
    <glyph glyph-name="etagreek" unicode="&#x3b7;" horiz-adv-x="1202" 
d="M1089 -351h-49v1039q0 157 -95 257.5t-245 100.5q-174 0 -277.5 -111t-103.5 -297v-638h-49v884q0 81 -28.5 118.5t-88.5 37.5q-43 0 -72 -10v46q33 10 79 10q79 0 116.5 -48.5t38.5 -152.5q1 -62 1 -63h2q40 126 143 198t244 72q167 0 275.5 -109.5t108.5 -277.5v-1056z
" />
    <glyph glyph-name="thetagreek" unicode="&#x3b8;" horiz-adv-x="1092" 
d="M547 -16q-466 0 -466 771q0 378 118 572.5t348 194.5q229 0 346.5 -194.5t117.5 -572.5q0 -771 -464 -771zM547 31q203 0 308.5 179t106.5 524h-831q0 -344 106.5 -523.5t309.5 -179.5zM131 780h831q-1 342 -106.5 518.5t-308.5 176.5q-204 0 -309.5 -176.5
t-106.5 -518.5z" />
    <glyph glyph-name="iotagreek" unicode="&#x3b9;" horiz-adv-x="436" 
d="M120 1076h49v-840q0 -107 37 -153.5t131 -46.5q39 0 72 10l5 -46q-30 -10 -82 -10q-114 0 -163 55t-49 184v847z" />
    <glyph glyph-name="kappagreek" unicode="&#x3ba;" horiz-adv-x="1058" 
d="M121 0v1076h49v-721h2l536 618q55 62 98.5 87.5t97.5 25.5q48 0 74 -10v-46q-27 10 -69 10q-44 0 -80 -22t-86 -80l-238 -275l484 -663h-62l-455 625l-302 -343v-282h-49z" />
    <glyph glyph-name="lambdagreek" unicode="&#x3bb;" horiz-adv-x="1084" 
d="M40 0l450 1046l-81 225q-42 116 -90.5 159t-131.5 43q-46 0 -73 -10v49q33 10 77 10q99 0 155.5 -50t103.5 -183l405 -1154q21 -57 47.5 -78t74.5 -21q34 0 67 10l6 -45q-30 -10 -76 -10q-66 0 -100 27t-61 101l-299 861h-2l-419 -980h-53z" />
    <glyph glyph-name="nugreek" unicode="&#x3bd;" horiz-adv-x="970" 
d="M413 0l-382 1076h54l362 -1025h2q210 284 293 469t83 395q0 77 -14 161h51q13 -79 13 -161q0 -156 -40.5 -291.5t-123.5 -276t-238 -347.5h-60z" />
    <glyph glyph-name="xigreek" unicode="&#x3be;" horiz-adv-x="869" 
d="M765 -337l-43 11q55 79 55 179q0 68 -55 118t-195 104q-143 54 -229 97t-140 92.5t-73.5 102.5t-19.5 128q0 150 94 232t270 99v2q-153 40 -226 112t-73 188q0 129 93 215t260 113v2h-353v48h651v-45l-116 -10q-240 -20 -366.5 -103t-126.5 -220q0 -133 116 -203.5
t327 -70.5h89v-48h-87q-502 0 -502 -314q0 -64 18 -110t69 -89.5t129 -82t210 -89.5q162 -62 223.5 -119.5t61.5 -148.5q0 -108 -61 -190z" />
    <glyph glyph-name="omicrongreek" unicode="&#x3bf;" horiz-adv-x="1069" 
d="M534 -16q-213 0 -341 149.5t-128 403.5t128 404.5t341 150.5t341.5 -150.5t128.5 -404.5t-128.5 -403.5t-341.5 -149.5zM534 31q187 0 304 138t117 368q0 231 -117 370t-304 139t-303 -138.5t-116 -370.5q0 -231 115.5 -368.5t303.5 -137.5z" />
    <glyph glyph-name="pigreek" unicode="&#x3c0;" horiz-adv-x="1277" 
d="M308 1v1028h-238v47h1132v-47h-225v-838q0 -80 28 -117.5t89 -37.5q36 0 67 10l5 -45q-23 -10 -78 -10q-82 0 -121 47.5t-39 147.5v843h-571v-1028h-49z" />
    <glyph glyph-name="rhogreek" unicode="&#x3c1;" horiz-adv-x="1073" 
d="M548 31q185 0 297.5 140t112.5 370q0 225 -113 365t-295 140q-195 0 -304.5 -132.5t-109.5 -370.5q0 -224 115.5 -368t296.5 -144zM87 -351v901q0 250 125 396t338 146q203 0 330.5 -154.5t127.5 -401.5t-126.5 -399.5t-332.5 -152.5q-146 0 -262 93.5t-149 237.5h-2
v-666h-49z" />
    <glyph glyph-name="sigmafinalgreek" unicode="&#x3c2;" horiz-adv-x="1018" 
d="M765 -337l-43 11q55 79 55 179q0 68 -55 119.5t-196 102.5q-134 49 -223 100.5t-142 113t-74.5 129.5t-21.5 157q0 231 123.5 374t344.5 143q163 0 280 -92.5t144 -238.5h-51q-26 126 -128 205.5t-245 79.5q-197 0 -307.5 -130t-110.5 -341q0 -85 18.5 -144t68.5 -114.5
t134.5 -102.5t221.5 -100q153 -59 210.5 -116.5t57.5 -144.5q0 -108 -61 -190z" />
    <glyph glyph-name="sigmagreek" unicode="&#x3c3;" horiz-adv-x="1195" 
d="M527 -16q-206 0 -334 149t-128 390q0 259 132 406t365 147h558v-47h-377v-3q122 -54 189.5 -182t67.5 -306q0 -248 -130.5 -401t-342.5 -153zM526 31q191 0 309 139.5t118 365.5q0 229 -107.5 360.5t-294.5 131.5q-202 0 -319 -136t-117 -369q0 -220 113.5 -356
t297.5 -136z" />
    <glyph glyph-name="taugreek" unicode="&#x3c4;" horiz-adv-x="979" 
d="M677 -10q-125 0 -178.5 58.5t-53.5 194.5v786h-385v47h866v-47h-432v-785q0 -112 43.5 -160t143.5 -48q51 0 84 10l5 -46q-33 -10 -93 -10z" />
    <glyph glyph-name="upsilongreek" unicode="&#x3c5;" horiz-adv-x="1019" 
d="M506 -16q-190 0 -291.5 110t-101.5 313v669h49v-666q0 -183 89 -281t256 -98q180 0 279 136t99 386q0 322 -83 523h52q80 -202 80 -521q0 -273 -112 -422t-316 -149z" />
    <glyph glyph-name="phigreek" unicode="&#x3c6;" horiz-adv-x="1350" 
d="M651 -351v335q-274 8 -435 157.5t-161 396.5q0 249 160 398t436 156v272h49v-272q276 -7 435.5 -156t159.5 -398q0 -247 -160.5 -396.5t-434.5 -157.5v-335h-49zM700 28q244 1 395 142t151 368q0 228 -150.5 368.5t-395.5 141.5v-1020zM651 28v1020
q-245 -1 -395.5 -141.5t-150.5 -368.5q0 -227 151 -368t395 -142z" />
    <glyph glyph-name="chigreek" unicode="&#x3c7;" horiz-adv-x="1152" 
d="M205 -351l380 690l-289 579q-36 71 -68.5 96.5t-87.5 25.5q-39 0 -66 -10v46q32 10 73 10q71 0 111 -31t79 -110l282 -560h2l379 691h56l-408 -736l267 -534q33 -68 65 -94t85 -26q36 0 67 10l6 -46q-33 -10 -74 -10q-71 0 -111 30.5t-82 114.5l-257 509h-2l-352 -645
h-55z" />
    <glyph glyph-name="psigreek" unicode="&#x3c8;" horiz-adv-x="1268" 
d="M607 -351v335q-236 1 -365 109.5t-129 312.5v670h49v-674q0 -173 113.5 -272t331.5 -99v1333h49v-1334q230 5 354 147t124 399q0 308 -83 500h52q80 -198 80 -496q0 -272 -137.5 -431.5t-389.5 -165.5v-334h-49z" />
    <glyph glyph-name="omegagreek" unicode="&#x3c9;" horiz-adv-x="1444" 
d="M425 -19q-162 0 -251 134.5t-89 381.5q0 155 47 316t122 263h61q-83 -101 -131.5 -257t-48.5 -322q0 -222 77 -346t214 -124q128 0 199.5 101t71.5 282v326h50v-326q0 -181 71.5 -282t199.5 -101q138 0 214.5 124t76.5 346q0 166 -48.5 322t-131.5 257h61
q75 -102 122 -263t47 -316q0 -247 -89 -381.5t-251 -134.5q-112 0 -190 68.5t-106 192.5h-2q-28 -124 -106 -192.5t-190 -68.5z" />
    <glyph glyph-name="iotadieresisgreek" unicode="&#x3ca;" horiz-adv-x="436" 
d="M16 1254q-22 0 -38.5 16t-16.5 38t16 37.5t39 15.5q22 0 38 -15.5t16 -37.5t-16 -38t-38 -16zM294 1254q-22 0 -38 16t-16 38t16 37.5t38 15.5q23 0 39 -15.5t16 -37.5t-16.5 -38t-38.5 -16zM120 1076h49v-840q0 -107 37 -153.5t131 -46.5q39 0 72 10l5 -46
q-30 -10 -82 -10q-114 0 -163 55t-49 184v847z" />
    <glyph glyph-name="upsilondieresisgreek" unicode="&#x3cb;" horiz-adv-x="1019" 
d="M364 1254q-22 0 -38.5 16t-16.5 38t16 37.5t39 15.5q22 0 38 -15.5t16 -37.5t-16 -38t-38 -16zM642 1254q-22 0 -38 16t-16 38t16 37.5t38 15.5q23 0 39 -15.5t16 -37.5t-16.5 -38t-38.5 -16zM506 -16q-190 0 -291.5 110t-101.5 313v669h49v-666q0 -183 89 -281t256 -98
q180 0 279 136t99 386q0 322 -83 523h52q80 -202 80 -521q0 -273 -112 -422t-316 -149z" />
    <glyph glyph-name="omicrontonosgreek" unicode="&#x3cc;" horiz-adv-x="1069" 
d="M534 -16q-213 0 -341 149.5t-128 403.5t128 404.5t341 150.5t341.5 -150.5t128.5 -404.5t-128.5 -403.5t-341.5 -149.5zM534 31q187 0 304 138t117 368q0 231 -117 370t-304 139t-303 -138.5t-116 -370.5q0 -231 115.5 -368.5t303.5 -137.5zM509 1254l91 317h62
l-110 -317h-43z" />
    <glyph glyph-name="upsilontonosgreek" unicode="&#x3cd;" horiz-adv-x="1019" 
d="M460 1254l91 317h62l-110 -317h-43zM506 -16q-190 0 -291.5 110t-101.5 313v669h49v-666q0 -183 89 -281t256 -98q180 0 279 136t99 386q0 322 -83 523h52q80 -202 80 -521q0 -273 -112 -422t-316 -149z" />
    <glyph glyph-name="omegatonosgreek" unicode="&#x3ce;" horiz-adv-x="1444" 
d="M425 -19q-162 0 -251 134.5t-89 381.5q0 155 47 316t122 263h61q-83 -101 -131.5 -257t-48.5 -322q0 -222 77 -346t214 -124q128 0 199.5 101t71.5 282v326h50v-326q0 -181 71.5 -282t199.5 -101q138 0 214.5 124t76.5 346q0 166 -48.5 322t-131.5 257h61
q75 -102 122 -263t47 -316q0 -247 -89 -381.5t-251 -134.5q-112 0 -190 68.5t-106 192.5h-2q-28 -124 -106 -192.5t-190 -68.5zM711 1254l91 317h62l-110 -317h-43z" />
    <glyph glyph-name="uni0400" unicode="&#x400;" horiz-adv-x="1043" 
d="M529 1554l-303 287h66l294 -287h-57zM960 47v-47h-826v1443h826v-47h-776v-632h740v-46h-740v-671h776z" />
    <glyph glyph-name="Iocyrillic" unicode="&#x401;" horiz-adv-x="1043" 
d="M408 1556q-22 0 -38.5 16t-16.5 38t16 37.5t39 15.5q22 0 38 -15.5t16 -37.5t-16 -38t-38 -16zM686 1556q-22 0 -38 16t-16 38t16 37.5t38 15.5q23 0 39 -15.5t16 -37.5t-16.5 -38t-38.5 -16zM960 47v-47h-826v1443h826v-47h-776v-632h740v-46h-740v-671h776z" />
    <glyph glyph-name="Djecyrillic" unicode="&#x402;" horiz-adv-x="1524" 
d="M1055 -10q-70 0 -103 10v47q30 -9 101 -9q150 0 239.5 104.5t89.5 273.5q0 181 -106.5 287t-287.5 106q-117 0 -223.5 -48.5t-172.5 -127.5v-633h-49v1396h-520v47h1091v-47h-522v-694h5q71 72 173.5 113t218.5 41q203 0 322.5 -120t119.5 -320q0 -190 -104 -308
t-272 -118z" />
    <glyph glyph-name="Gjecyrillic" unicode="&#x403;" horiz-adv-x="1011" 
d="M527 1554h-56l293 287h66zM184 0h-50v1443h815v-47h-765v-1396z" />
    <glyph glyph-name="Ecyrillic" unicode="&#x404;" horiz-adv-x="1322" 
d="M1259 428q-17 -197 -174 -322.5t-383 -125.5q-287 0 -458 204t-171 548q0 337 169.5 534t459.5 197q215 0 377 -137t181 -335h-49q-20 179 -167 302t-342 123q-260 0 -415.5 -175t-163.5 -476h772v-47h-772q3 -317 160.5 -504t418.5 -187q202 0 346 111.5t162 289.5h49z
" />
    <glyph glyph-name="Dzecyrillic" unicode="&#x405;" horiz-adv-x="1134" 
d="M62 382h50q8 -156 139.5 -256t329.5 -100q193 0 316 99.5t123 251.5q0 120 -85 193t-277 121l-167 42q-202 50 -295.5 133.5t-93.5 215.5q0 163 135 272t326 109q200 0 336 -103.5t143 -257.5h-50q-7 135 -129 225t-300 90q-172 0 -291.5 -95.5t-119.5 -239.5
q0 -114 85 -185t270 -117l165 -41q207 -52 302.5 -136.5t95.5 -223.5q0 -175 -136.5 -287t-354.5 -112q-219 0 -364 113t-153 289z" />
    <glyph glyph-name="Icyrillic" unicode="&#x406;" horiz-adv-x="318" 
d="M184 0h-50v1443h50v-1443z" />
    <glyph glyph-name="Yicyrillic" unicode="&#x407;" horiz-adv-x="318" 
d="M184 0h-50v1443h50v-1443zM20 1556q-22 0 -38.5 16t-16.5 38t16 37.5t39 15.5q22 0 38 -15.5t16 -37.5t-16 -38t-38 -16zM298 1556q-22 0 -38 16t-16 38t16 37.5t38 15.5q23 0 39 -15.5t16 -37.5t-16.5 -38t-38.5 -16z" />
    <glyph glyph-name="Jecyrillic" unicode="&#x408;" horiz-adv-x="953" 
d="M51 315h49q7 -128 98.5 -208.5t229.5 -80.5q159 0 250 95t91 263v1059h50v-1062q0 -185 -104.5 -293.5t-286.5 -108.5q-160 0 -266 94t-111 242z" />
    <glyph glyph-name="Ljecyrillic" unicode="&#x409;" horiz-adv-x="2037" 
d="M338 450q-4 -79 -14 -143t-29.5 -124.5t-48 -101.5t-72.5 -65.5t-101 -24.5q-14 0 -27.5 2t-21.5 5l-7 2v47q1 -1 7.5 -3t20 -4t26.5 -2q54 0 94.5 31.5t65 90.5t37.5 131.5t19 165.5l60 986h768v-603h396q212 0 338 -113.5t126 -306.5q0 -192 -126 -306t-338 -114h-446
v1396h-670zM1115 47h393q191 0 304.5 101.5t113.5 271.5t-113.5 271.5t-304.5 101.5h-393v-746z" />
    <glyph glyph-name="Njecyrillic" unicode="&#x40a;" horiz-adv-x="2083" 
d="M184 718v-718h-50v1443h50v-678h927v678h50v-678h396q213 0 338.5 -101t125.5 -273q0 -179 -125.5 -285t-338.5 -106h-446v718h-927zM1161 47h393q192 0 305 93.5t113 250.5q0 150 -113.5 238.5t-304.5 88.5h-393v-671z" />
    <glyph glyph-name="Tshecyrillic" unicode="&#x40b;" horiz-adv-x="1544" 
d="M987 809q-113 0 -220.5 -48t-174.5 -128v-633h-49v1396h-520v47h1091v-47h-522v-693h5q75 73 176.5 113t215.5 40q195 0 314 -126.5t119 -334.5v-395h-50v387q0 190 -106 306t-279 116z" />
    <glyph glyph-name="Kjecyrillic" unicode="&#x40c;" horiz-adv-x="1135" 
d="M859 1841l-303 -287h-56l293 287h66zM239 744l868 -744h-76l-843 723h-4v-723h-50v1443h50v-684h4l792 684h73z" />
    <glyph glyph-name="uni040D" unicode="&#x40d;" horiz-adv-x="1335" 
d="M654 1554l-303 287h66l294 -287h-57zM1151 0v1358h-5l-962 -1358h-50v1443h50v-1358h5l962 1358h50v-1443h-50z" />
    <glyph glyph-name="Ushortcyrillic" unicode="&#x40e;" horiz-adv-x="1114" 
d="M318 1770h46q0 -83 58.5 -130t153.5 -47t153.5 47t58.5 130h46q0 -103 -70.5 -160t-187.5 -57t-187.5 57t-70.5 160zM257 -9q-12 0 -23 1t-18 2.5t-12.5 2.5t-8.5 2l-3 1v47l3 -1q3 -1 9 -2.5t13 -2.5t18 -2t22 -1q40 0 75.5 17t62 42.5t55.5 70.5t49.5 85t48.5 102
l-517 1088h57l483 -1025h6l452 1025h54l-474 -1072q-25 -56 -40.5 -89.5t-39.5 -79t-43 -72.5t-45.5 -56.5t-53 -45.5t-60 -26.5t-70.5 -10.5z" />
    <glyph glyph-name="Dzhecyrillic" unicode="&#x40f;" horiz-adv-x="1305" 
d="M628 0h-494v1443h50v-1396h937v1396h50v-1443h-494v-285h-49v285z" />
    <glyph glyph-name="Acyrillic" unicode="&#x410;" horiz-adv-x="1221" 
d="M1135 0l-189 501h-671l-190 -501h-55l555 1443h51l555 -1443h-56zM608 1374l-315 -827h635l-315 827h-5z" />
    <glyph glyph-name="Becyrillic" unicode="&#x411;" horiz-adv-x="1118" 
d="M1053 410q0 -188 -125.5 -299t-338.5 -111h-455v1443h802v-47h-752v-577h405q212 0 338 -111t126 -298zM184 47h402q192 0 305 98t113 265q0 165 -113.5 263.5t-304.5 98.5h-402v-725z" />
    <glyph glyph-name="Vecyrillic" unicode="&#x412;" horiz-adv-x="1159" 
d="M612 0h-478v1443h464q188 0 305 -96.5t117 -252.5q0 -133 -78.5 -225.5t-214.5 -119.5v-4q161 -16 265.5 -113.5t104.5 -252.5q0 -174 -130 -276.5t-355 -102.5zM184 1397v-632h401q174 0 279.5 89.5t105.5 238.5q0 137 -103 220.5t-273 83.5h-410zM184 46h426
q204 0 321 90.5t117 243.5q0 157 -123 248t-337 91h-404v-673z" />
    <glyph glyph-name="Gecyrillic" unicode="&#x413;" horiz-adv-x="1011" 
d="M184 0h-50v1443h815v-47h-765v-1396z" />
    <glyph glyph-name="Decyrillic" unicode="&#x414;" horiz-adv-x="1341" 
d="M313 448q-17 -299 -124 -396v-5h899v1349h-718zM60 0v-286h-49v333h93q138 67 158 407l60 989h816v-1396h189v-333h-49v286h-1218z" />
    <glyph glyph-name="Iecyrillic" unicode="&#x415;" horiz-adv-x="1043" 
d="M960 47v-47h-826v1443h826v-47h-776v-632h740v-46h-740v-671h776z" />
    <glyph glyph-name="Zhecyrillic" unicode="&#x416;" horiz-adv-x="1756" 
d="M956 745l781 -745h-74l-756 723h-4v-723h-50v723h-4l-757 -723h-73l779 744l-727 699h72l706 -684h4v684h50v-684h4l706 684h69z" />
    <glyph glyph-name="Zecyrillic" unicode="&#x417;" horiz-adv-x="1102" 
d="M358 728v46h166q192 0 302 89t110 235q0 135 -106 227.5t-279 92.5q-160 0 -268 -88t-127 -226h-49q19 159 139.5 260t304.5 101q194 0 314.5 -105t120.5 -261q0 -132 -83.5 -223.5t-233.5 -119.5v-4q176 -12 274 -109t98 -252q0 -179 -135.5 -295.5t-361.5 -116.5
q-200 0 -336 110t-146 267h50q10 -136 133 -233t301 -97q201 0 323 103.5t122 261.5q0 163 -117.5 250t-349.5 87h-166z" />
    <glyph glyph-name="Iicyrillic" unicode="&#x418;" horiz-adv-x="1335" 
d="M1151 0v1358h-5l-962 -1358h-50v1443h50v-1358h5l962 1358h50v-1443h-50z" />
    <glyph glyph-name="Iishortcyrillic" unicode="&#x419;" horiz-adv-x="1335" 
d="M410 1771h46q0 -83 58.5 -130t153.5 -47t153.5 47t58.5 130h46q0 -103 -70.5 -160t-187.5 -57t-187.5 57t-70.5 160zM1151 0v1358h-5l-962 -1358h-50v1443h50v-1358h5l962 1358h50v-1443h-50z" />
    <glyph glyph-name="Kacyrillic" unicode="&#x41a;" horiz-adv-x="1135" 
d="M239 744l868 -744h-76l-843 723h-4v-723h-50v1443h50v-684h4l792 684h73z" />
    <glyph glyph-name="Elcyrillic" unicode="&#x41b;" horiz-adv-x="1258" 
d="M1124 0h-50v1396h-679l-57 -946q-6 -101 -20.5 -178t-44 -143.5t-80 -102t-120.5 -35.5q-14 0 -27.5 2t-21.5 5l-7 2v47q1 -1 7.5 -3t20 -4t26.5 -2q54 0 94 31t64.5 90t38 131.5t19.5 166.5l60 986h777v-1443z" />
    <glyph glyph-name="Emcyrillic" unicode="&#x41c;" horiz-adv-x="1596" 
d="M1461 0h-49v1328h-4l-584 -1327h-53l-584 1327h-4v-1328h-49v1443h53l609 -1380h4l606 1380h55v-1443z" />
    <glyph glyph-name="Encyrillic" unicode="&#x41d;" horiz-adv-x="1316" 
d="M1182 0h-50v718h-948v-718h-50v1443h50v-678h948v678h50v-1443z" />
    <glyph glyph-name="Ocyrillic" unicode="&#x41e;" horiz-adv-x="1418" 
d="M709 1463q291 0 463.5 -200.5t172.5 -540.5q0 -341 -172 -541.5t-464 -200.5q-293 0 -464.5 200.5t-171.5 541.5q0 340 172 540.5t464 200.5zM709 1416q-269 0 -427.5 -188t-158.5 -506t159 -506.5t427 -188.5t427 188.5t159 506.5t-159 506t-427 188z" />
    <glyph glyph-name="Pecyrillic" unicode="&#x41f;" horiz-adv-x="1305" 
d="M1171 0h-49v1396h-938v-1396h-50v1443h1037v-1443z" />
    <glyph glyph-name="Ercyrillic" unicode="&#x420;" horiz-adv-x="1107" 
d="M134 1443h448q212 0 337.5 -114t125.5 -307t-126 -307t-338 -114h-397v-601h-50v1443zM184 1396v-748h394q192 0 304.5 100.5t112.5 273.5q0 174 -112.5 274t-304.5 100h-394z" />
    <glyph glyph-name="Escyrillic" unicode="&#x421;" horiz-adv-x="1322" 
d="M702 -20q-287 0 -458 204t-171 548q0 337 169.5 534t459.5 197q215 0 377 -137t181 -335h-49q-20 179 -167 302t-342 123q-266 0 -422.5 -184.5t-156.5 -499.5q0 -324 157.5 -514.5t421.5 -190.5q202 0 346 111.5t162 289.5h49q-17 -197 -174 -322.5t-383 -125.5z" />
    <glyph glyph-name="Tecyrillic" unicode="&#x422;" horiz-adv-x="1137" 
d="M593 0h-49v1396h-521v47h1091v-47h-521v-1396z" />
    <glyph glyph-name="Ucyrillic" unicode="&#x423;" horiz-adv-x="1114" 
d="M257 -9q-12 0 -23 1t-18 2.5t-12.5 2.5t-8.5 2l-3 1v47l3 -1q3 -1 9 -2.5t13 -2.5t18 -2t22 -1q40 0 75.5 17t62 42.5t55.5 70.5t49.5 85t48.5 102l-517 1088h57l483 -1025h6l452 1025h54l-474 -1072q-25 -56 -40.5 -89.5t-39.5 -79t-43 -72.5t-45.5 -56.5t-53 -45.5
t-60 -26.5t-70.5 -10.5z" />
    <glyph glyph-name="Efcyrillic" unicode="&#x424;" horiz-adv-x="1498" 
d="M725 195v1053q-280 0 -446 -143t-166 -383t166.5 -383t445.5 -144zM1386 722q0 240 -166 383t-445 143v-1053q278 1 444.5 144t166.5 383zM725 149q-307 0 -484.5 153.5t-177.5 419.5q0 265 178 418.5t484 154.5v159h50v-159q305 -1 483 -155t178 -418q0 -265 -178 -419
t-483 -154v-160h-50v160z" />
    <glyph glyph-name="Xacyrillic" unicode="&#x425;" horiz-adv-x="1210" 
d="M51 0l524 721v1l-523 721h60l493 -680h1l494 680h59l-523 -721l522 -722h-60l-492 680h-1l-495 -680h-59z" />
    <glyph glyph-name="Tsecyrillic" unicode="&#x426;" horiz-adv-x="1365" 
d="M1351 -285h-49v285h-1168v1443h50v-1396h928v1396h50v-1396h189v-332z" />
    <glyph glyph-name="Checyrillic" unicode="&#x427;" horiz-adv-x="1185" 
d="M1051 0h-50v732h-3q-58 -56 -163 -100t-243 -44q-223 0 -355 125t-132 337v393h49v-385q0 -198 121 -310.5t317 -112.5q81 0 156 19t125.5 47.5t81 51.5t46.5 41v649h50v-1443z" />
    <glyph glyph-name="Shacyrillic" unicode="&#x428;" horiz-adv-x="1737" 
d="M134 0v1443h50v-1396h660v1396h49v-1396h660v1396h50v-1443h-1469z" />
    <glyph glyph-name="Shchacyrillic" unicode="&#x429;" horiz-adv-x="1806" 
d="M1792 -285h-49v285h-1609v1443h50v-1396h660v1396h49v-1396h660v1396h50v-1396h189v-332z" />
    <glyph glyph-name="Hardsigncyrillic" unicode="&#x42a;" horiz-adv-x="1353" 
d="M827 0h-446v1396h-358v47h408v-603h396q212 0 338 -113.5t126 -306.5q0 -192 -126 -306t-338 -114zM431 47h393q191 0 304.5 101.5t113.5 271.5t-113.5 271.5t-304.5 101.5h-393v-746z" />
    <glyph glyph-name="Yericyrillic" unicode="&#x42b;" horiz-adv-x="1462" 
d="M1328 0h-50v1443h50v-1443zM134 0v1443h50v-603h397q212 0 338 -113.5t126 -306.5q0 -192 -126 -306t-338 -114h-447zM184 47h394q191 0 304 101.5t113 271.5t-113.5 271.5t-303.5 101.5h-394v-746z" />
    <glyph glyph-name="Softsigncyrillic" unicode="&#x42c;" horiz-adv-x="1107" 
d="M134 0v1443h50v-603h397q212 0 338 -113.5t126 -306.5q0 -192 -126 -306t-338 -114h-447zM184 47h394q191 0 304 101.5t113 271.5t-113.5 271.5t-303.5 101.5h-394v-746z" />
    <glyph glyph-name="Ereversedcyrillic" unicode="&#x42d;" horiz-adv-x="1334" 
d="M639 -20q-233 0 -394 124.5t-183 323.5h51q21 -175 170 -288t356 -113q262 0 416.5 187.5t155.5 503.5h-763v47h762q-11 298 -164.5 474.5t-406.5 176.5q-128 0 -243.5 -56t-191.5 -154t-91 -215h-51q16 131 98 239.5t209 170.5t270 62q288 0 455 -199.5t167 -541.5
q0 -345 -166 -543.5t-456 -198.5z" />
    <glyph glyph-name="IUcyrillic" unicode="&#x42e;" horiz-adv-x="1813" 
d="M1124 -21q-285 0 -450 198t-166 541h-324v-718h-50v1443h50v-678h325q11 325 175 512t440 187q286 0 451.5 -199t165.5 -543t-165.5 -543.5t-451.5 -199.5zM1124 1417q-259 0 -412.5 -189t-153.5 -506q0 -318 153.5 -507t412.5 -189t412.5 189.5t153.5 506.5t-153.5 506
t-412.5 189z" />
    <glyph glyph-name="IAcyrillic" unicode="&#x42f;" horiz-adv-x="1119" 
d="M935 675v721h-390q-194 0 -306 -96.5t-112 -264.5q0 -167 112 -263.5t306 -96.5h390zM510 628l-422 -628h-56l425 635q-171 22 -275 126.5t-104 273.5q0 190 124 299t340 109h442v-1443h-49v628h-425z" />
    <glyph glyph-name="acyrillic" unicode="&#x430;" horiz-adv-x="1041" 
d="M459 30q169 0 289.5 107.5t120.5 258.5v182l-381 -29q-165 -13 -251.5 -80t-86.5 -183q0 -111 87.5 -183.5t221.5 -72.5zM456 -16q-157 0 -256.5 84.5t-99.5 217.5q0 137 96 214t284 92l389 30v97q0 153 -86.5 240t-238.5 87q-151 0 -244 -74t-114 -209h-47
q17 153 126 241t279 88q173 0 273.5 -99.5t100.5 -270.5v-722h-49v245h-1q-39 -116 -153.5 -188.5t-258.5 -72.5z" />
    <glyph glyph-name="becyrillic" unicode="&#x431;" horiz-adv-x="1114" 
d="M564 -20q-226 0 -350 158.5t-124 448.5q0 255 27.5 422t93 275t168 153.5t258.5 46.5q101 0 184 8q92 9 147 30v-43q-53 -22 -142 -31q-85 -11 -190 -11q-129 0 -215.5 -34t-146 -113.5t-91 -202t-46.5 -309.5h3q48 142 159.5 220.5t266.5 78.5q215 0 344 -148t129 -395
q0 -251 -130 -402.5t-345 -151.5zM564 26q193 0 309 139t116 369q0 226 -116 361.5t-309 135.5q-194 0 -309.5 -135.5t-115.5 -361.5q0 -231 116 -369.5t309 -138.5z" />
    <glyph glyph-name="vecyrillic" unicode="&#x432;" horiz-adv-x="967" 
d="M512 1030h-333v-450h327q129 0 205.5 64t76.5 172q0 101 -73 157.5t-203 56.5zM507 534h-328v-489h341q161 0 244.5 64t83.5 190q0 114 -91.5 174.5t-249.5 60.5zM130 0v1076h382q150 0 237.5 -69.5t87.5 -189.5q0 -101 -57.5 -169.5t-154.5 -85.5v-3q115 -9 193 -77.5
t78 -183.5q0 -147 -97 -222.5t-279 -75.5h-390z" />
    <glyph glyph-name="gecyrillic" unicode="&#x433;" horiz-adv-x="851" 
d="M799 1031h-620v-1031h-49v1076h669v-45z" />
    <glyph glyph-name="decyrillic" unicode="&#x434;" horiz-adv-x="1178" 
d="M919 45v986h-586q-23 -386 -43 -588q-14 -148 -38.5 -245t-74.5 -150v-3h742zM73 -285h-48v330h83q59 38 89.5 141t45.5 263q28 307 44 627h682v-1031h179v-330h-49v285h-1026v-285z" />
    <glyph glyph-name="iecyrillic" unicode="&#x435;" horiz-adv-x="1076" 
d="M543 1046q-180 0 -294 -127.5t-123 -337.5h825q0 207 -112.5 336t-295.5 129zM936 299h51q-28 -140 -144 -227.5t-292 -87.5q-219 0 -347.5 147t-128.5 407q0 250 128 402t340 152q205 0 331.5 -143t126.5 -375v-38h-876v-2q0 -237 116 -370.5t311 -133.5q156 0 257.5 75
t126.5 194z" />
    <glyph glyph-name="zhecyrillic" unicode="&#x436;" horiz-adv-x="1383" 
d="M765 561l591 -561h-73l-566 539h-3v-539h-49v539h-2l-566 -539h-70l588 559l-560 517h70l538 -498h2v498h49v-498h3l537 498h70z" />
    <glyph glyph-name="zecyrillic" unicode="&#x437;" horiz-adv-x="926" 
d="M476 -20q-170 0 -277 80t-134 212h49q25 -107 119 -176.5t243 -69.5q148 0 237 69t89 189q0 122 -91 184.5t-249 62.5h-176v45h176q141 0 222 64.5t81 172.5q0 105 -78.5 168t-210.5 63q-142 0 -230 -72t-114 -187h-49q27 134 126.5 219.5t265.5 85.5q157 0 248 -75
t91 -203q0 -98 -64.5 -166t-163.5 -87v-4q113 -12 189 -80.5t76 -186.5q0 -147 -102 -227.5t-273 -80.5z" />
    <glyph glyph-name="iicyrillic" unicode="&#x438;" horiz-adv-x="1085" 
d="M179 0h-49v1076h49v-997h3l724 997h49v-1076h-49v996h-2z" />
    <glyph glyph-name="iishortcyrillic" unicode="&#x439;" horiz-adv-x="1085" 
d="M306 1490h47q0 -93 56.5 -144.5t155.5 -51.5q98 0 154.5 52t56.5 144h47q0 -111 -69 -174t-189 -63q-121 0 -190 63t-69 174zM179 0h-49v1076h49v-997h3l724 997h49v-1076h-49v996h-2z" />
    <glyph glyph-name="kacyrillic" unicode="&#x43a;" horiz-adv-x="923" 
d="M234 559l664 -559h-75l-641 539h-3v-539h-49v1076h49v-498h3l612 498h72z" />
    <glyph glyph-name="elcyrillic" unicode="&#x43b;" horiz-adv-x="1083" 
d="M303 443q-6 -68 -13 -118t-18.5 -105.5t-28 -93.5t-39 -70.5t-55.5 -48.5t-74 -16q-9 0 -17.5 1t-15 2.5t-11 2.5t-7.5 2l-3 1v47q0 -1 6.5 -3t20 -4t27.5 -2q45 0 77 30.5t52 90.5t31.5 127.5t19.5 162.5q23 258 42 627h656v-1076h-50v1031h-560q-26 -438 -40 -588z" />
    <glyph glyph-name="emcyrillic" unicode="&#x43c;" horiz-adv-x="1360" 
d="M179 0h-49v1076h54l497 -1013h3l492 1013h54v-1076h-49v976h-3l-477 -974h-41l-478 974h-3v-976z" />
    <glyph glyph-name="encyrillic" unicode="&#x43d;" horiz-adv-x="1075" 
d="M896 0v535h-717v-535h-49v1076h49v-496h717v496h49v-1076h-49z" />
    <glyph glyph-name="ocyrillic" unicode="&#x43e;" horiz-adv-x="1098" 
d="M549 -16q-214 0 -344 150.5t-130 403.5t130.5 403.5t343.5 150.5t343.5 -150.5t130.5 -403.5t-130.5 -403.5t-343.5 -150.5zM549 31q192 0 308.5 137.5t116.5 369.5q0 233 -116.5 370.5t-308.5 137.5t-308 -137.5t-116 -370.5t116 -370t308 -137z" />
    <glyph glyph-name="pecyrillic" unicode="&#x43f;" horiz-adv-x="1065" 
d="M886 0v1031h-707v-1031h-49v1076h805v-1076h-49z" />
    <glyph glyph-name="ercyrillic" unicode="&#x440;" horiz-adv-x="1126" 
d="M597 1092q201 0 327.5 -154t126.5 -400q0 -247 -126 -400.5t-328 -153.5q-155 0 -269 94.5t-147 236.5h-2v-666h-49v1427h46v-321h2q34 145 148.5 241t270.5 96zM594 31q181 0 294.5 140.5t113.5 365.5q0 226 -113.5 367.5t-294.5 141.5q-183 0 -299 -142t-116 -366
t116 -365.5t299 -141.5z" />
    <glyph glyph-name="escyrillic" unicode="&#x441;" horiz-adv-x="1034" 
d="M963 781h-50q-32 118 -132 191.5t-237 73.5q-193 0 -306 -137.5t-113 -370.5t112.5 -370t306.5 -137q135 0 233 67t131 178h51q-34 -132 -146 -212t-269 -80q-215 0 -342 149.5t-127 404.5q0 254 127 404t342 150q157 0 271.5 -86.5t147.5 -224.5z" />
    <glyph glyph-name="tecyrillic" unicode="&#x442;" horiz-adv-x="937" 
d="M897 1076v-45h-404v-1031h-49v1031h-404v45h857z" />
    <glyph glyph-name="ucyrillic" unicode="&#x443;" horiz-adv-x="927" 
d="M190 -362q-26 0 -47 9v46q22 -9 52 -9q71 0 115.5 45t90.5 161l35 91l-415 1095h54l387 -1029h2l388 1029h54l-424 -1120q-51 -134 -89.5 -199t-84 -92t-118.5 -27z" />
    <glyph glyph-name="efcyrillic" unicode="&#x444;" horiz-adv-x="1364" 
d="M658 26v1017q-243 -7 -388.5 -142.5t-145.5 -366.5q0 -230 145.5 -365t388.5 -143zM1239 535q0 230 -145 365.5t-387 142.5v-1017q242 8 387 143.5t145 365.5zM658 -20q-267 8 -425 155t-158 399q0 253 158 400t425 155v364h49v-364q267 -8 424.5 -154.5t157.5 -399.5
q0 -252 -158 -399.5t-424 -155.5v-331h-49v331z" />
    <glyph glyph-name="hacyrillic" unicode="&#x445;" horiz-adv-x="889" 
d="M446 506h-3l-370 -506h-61l403 548l-402 528h62l369 -489h2l369 489h62l-402 -527l401 -549h-60z" />
    <glyph glyph-name="tsecyrillic" unicode="&#x446;" horiz-adv-x="1144" 
d="M1114 -285h-49v285h-935v1076h49v-1031h706v1031h49v-1031h180v-330z" />
    <glyph glyph-name="checyrillic" unicode="&#x447;" horiz-adv-x="990" 
d="M860 0h-49v530h-8q-52 -51 -131.5 -84.5t-176.5 -33.5q-191 0 -293 104.5t-102 281.5v278h49v-277q0 -156 90.5 -248.5t256.5 -92.5q186 0 315 141v477h49v-1076z" />
    <glyph glyph-name="shacyrillic" unicode="&#x448;" horiz-adv-x="1561" 
d="M130 0v1076h49v-1031h577v1031h49v-1031h577v1031h49v-1076h-1301z" />
    <glyph glyph-name="shchacyrillic" unicode="&#x449;" horiz-adv-x="1641" 
d="M1611 -285h-49v285h-1432v1076h49v-1031h577v1031h49v-1031h577v1031h49v-1031h180v-330z" />
    <glyph glyph-name="hardsigncyrillic" unicode="&#x44a;" horiz-adv-x="1105" 
d="M674 0h-344v1031h-290v45h339v-408h295q165 0 263 -90.5t98 -243.5t-98 -243.5t-263 -90.5zM674 622h-295v-577h295q142 0 226.5 78.5t84.5 210.5q0 131 -84.5 209.5t-226.5 78.5z" />
    <glyph glyph-name="yericyrillic" unicode="&#x44b;" horiz-adv-x="1223" 
d="M1044 0v1076h49v-1076h-49zM474 622h-295v-577h295q142 0 226.5 78.5t84.5 210.5q0 131 -84.5 209.5t-226.5 78.5zM130 0v1076h49v-408h295q164 0 262.5 -90.5t98.5 -243.5q0 -152 -99 -243t-262 -91h-344z" />
    <glyph glyph-name="softsigncyrillic" unicode="&#x44c;" horiz-adv-x="905" 
d="M474 622h-295v-577h295q142 0 226.5 78.5t84.5 210.5q0 131 -84.5 209.5t-226.5 78.5zM130 0v1076h49v-408h295q164 0 262.5 -90.5t98.5 -243.5q0 -152 -99 -243t-262 -91h-344z" />
    <glyph glyph-name="ereversedcyrillic" unicode="&#x44d;" horiz-adv-x="1037" 
d="M129 276q33 -110 133.5 -177.5t235.5 -67.5q193 0 303.5 136t110.5 368h-595v45h594q-11 215 -120.5 340.5t-292.5 125.5q-138 0 -240 -73.5t-134 -191.5h-50q33 137 150 224t274 87q214 0 339 -149.5t125 -404.5t-124.5 -404.5t-339.5 -149.5q-157 0 -271.5 80.5
t-148.5 211.5h51z" />
    <glyph glyph-name="iucyrillic" unicode="&#x44e;" horiz-adv-x="1480" 
d="M940 -20q-211 0 -337 149.5t-127 405.5h-297v-535h-49v1076h49v-496h299q12 236 137 373t325 137q212 0 338.5 -150.5t126.5 -405.5t-126.5 -404.5t-338.5 -149.5zM940 26q187 0 301 138.5t114 369.5q0 233 -114 371t-301 138t-300.5 -138t-113.5 -371q0 -232 113.5 -370
t300.5 -138z" />
    <glyph glyph-name="iacyrillic" unicode="&#x44f;" horiz-adv-x="935" 
d="M443 494h313v537h-313q-142 0 -226.5 -73.5t-84.5 -196.5q0 -121 85 -194t226 -73zM756 0v448h-297l-339 -448h-61l342 451q-147 11 -232.5 93.5t-85.5 216.5q0 145 97.5 230t262.5 85h363v-1076h-50z" />
    <glyph glyph-name="uni0450" unicode="&#x450;" horiz-adv-x="1076" 
d="M591 1254h-53l-246 303h63zM543 1046q-180 0 -294 -127.5t-123 -337.5h825q0 207 -112.5 336t-295.5 129zM936 299h51q-28 -140 -144 -227.5t-292 -87.5q-219 0 -347.5 147t-128.5 407q0 250 128 402t340 152q205 0 331.5 -143t126.5 -375v-38h-876v-2q0 -237 116 -370.5
t311 -133.5q156 0 257.5 75t126.5 194z" />
    <glyph glyph-name="iocyrillic" unicode="&#x451;" horiz-adv-x="1076" 
d="M543 1046q-180 0 -294 -127.5t-123 -337.5h825q0 207 -112.5 336t-295.5 129zM936 299h51q-28 -140 -144 -227.5t-292 -87.5q-219 0 -347.5 147t-128.5 407q0 250 128 402t340 152q205 0 331.5 -143t126.5 -375v-38h-876v-2q0 -237 116 -370.5t311 -133.5q156 0 257.5 75
t126.5 194zM404 1254q-22 0 -38.5 16t-16.5 38t16 37.5t39 15.5q22 0 38 -15.5t16 -37.5t-16 -38t-38 -16zM682 1254q-22 0 -38 16t-16 38t16 37.5t38 15.5q23 0 39 -15.5t16 -37.5t-16.5 -38t-38.5 -16z" />
    <glyph glyph-name="djecyrillic" unicode="&#x452;" horiz-adv-x="1115" 
d="M211 822h2q34 121 138 195.5t244 74.5q178 0 287.5 -108.5t109.5 -288.5v-798q0 -138 -65.5 -198t-198.5 -60h-29v46h27q113 0 164.5 50t51.5 162v796q0 163 -97.5 258t-256.5 95q-166 0 -271.5 -112t-105.5 -289v-645h-50v1281h-138v44h138v181h50v-181h288v-44h-288
v-459z" />
    <glyph glyph-name="gjecyrillic" unicode="&#x453;" horiz-adv-x="851" 
d="M457 1254h-53l236 303h63zM799 1031h-620v-1031h-49v1076h669v-45z" />
    <glyph glyph-name="ecyrillic" unicode="&#x454;" horiz-adv-x="1037" 
d="M908 276h51q-34 -132 -146 -212t-269 -80q-215 0 -342 149.5t-127 404.5q0 254 127 404t342 150q157 0 271.5 -87t147.5 -224h-50q-32 118 -132 191.5t-237 73.5q-184 0 -295.5 -125.5t-122.5 -340.5h594v-45h-595q1 -232 113.5 -368t305.5 -136q135 0 233 67t131 178z
" />
    <glyph glyph-name="dzecyrillic" unicode="&#x455;" horiz-adv-x="925" 
d="M102 808q0 124 105 204t257 80q161 0 262.5 -88.5t115.5 -239.5h-48q-14 126 -101.5 204t-228.5 78q-129 0 -221 -67t-92 -170q0 -85 57 -133.5t182 -77.5l167 -40q160 -39 231 -104.5t71 -174.5q0 -131 -110 -213t-281 -82q-169 0 -281.5 92.5t-120.5 227.5h50
q10 -115 109 -194.5t242 -79.5q145 0 243.5 68.5t98.5 177.5q0 93 -62 148t-205 89l-169 39q-138 33 -204.5 94t-66.5 162z" />
    <glyph glyph-name="icyrillic" unicode="&#x456;" horiz-adv-x="311" 
d="M131 0v1076h49v-1076h-49zM156 1366q-20 0 -34.5 14t-14.5 34t14.5 34t34.5 14t34 -14t14 -34t-14 -34t-34 -14z" />
    <glyph glyph-name="yicyrillic" unicode="&#x457;" horiz-adv-x="309" 
d="M45 1366q-20 0 -34.5 14t-14.5 34t14.5 34t34.5 14t34 -14t14 -34t-14.5 -34t-33.5 -14zM281 1366q-20 0 -34.5 14.5t-14.5 33.5q0 20 14.5 34t34.5 14t34.5 -14t14.5 -34t-14.5 -34t-34.5 -14zM130 0v1076h49v-1076h-49z" />
    <glyph glyph-name="jecyrillic" unicode="&#x458;" horiz-adv-x="311" 
d="M180 1076v-1175q0 -139 -65 -200.5t-198 -61.5h-29v46h27q113 0 164.5 50t51.5 162v1179h49zM156 1366q-20 0 -34.5 14t-14.5 34t14.5 34t34.5 14t34 -14t14 -34t-14 -34t-34 -14z" />
    <glyph glyph-name="ljecyrillic" unicode="&#x459;" horiz-adv-x="1678" 
d="M303 443q-6 -68 -13 -118t-18.5 -105.5t-28 -93.5t-39 -70.5t-55.5 -48.5t-74 -16q-9 0 -17.5 1t-15 2.5t-11 2.5t-7.5 2l-3 1v47q0 -1 6.5 -3t20 -4t27.5 -2q45 0 77 30.5t52 90.5t31.5 127.5t19.5 162.5q23 258 42 627h656v-408h295q165 0 262.5 -90t97.5 -244
q0 -153 -97.5 -243.5t-262.5 -90.5h-344v1031h-561q-26 -438 -40 -588zM1248 622h-295v-577h295q142 0 226.5 78.5t84.5 210.5q0 131 -84.5 209.5t-226.5 78.5z" />
    <glyph glyph-name="njecyrillic" unicode="&#x45a;" horiz-adv-x="1650" 
d="M1221 562h-296v-517h296q142 0 226 70.5t84 188.5q0 119 -84 188.5t-226 69.5zM876 0v560h-697v-560h-49v1076h49v-471h697v471h49v-469h296q164 0 261.5 -82t97.5 -221t-97.5 -221.5t-261.5 -82.5h-345z" />
    <glyph glyph-name="tshecyrillic" unicode="&#x45b;" horiz-adv-x="1115" 
d="M211 822h2q34 121 138 195.5t244 74.5q178 0 287.5 -108.5t109.5 -288.5v-695h-50v693q0 163 -97.5 258t-256.5 95q-166 0 -271.5 -112t-105.5 -289v-645h-50v1281h-138v44h138v181h50v-181h288v-44h-288v-459z" />
    <glyph glyph-name="kjecyrillic" unicode="&#x45c;" horiz-adv-x="923" 
d="M717 1557l-246 -303h-53l236 303h63zM234 559l664 -559h-75l-641 539h-3v-539h-49v1076h49v-498h3l612 498h72z" />
    <glyph glyph-name="uni045D" unicode="&#x45d;" horiz-adv-x="1085" 
d="M591 1254h-53l-246 303h63zM179 0h-49v1076h49v-997h3l724 997h49v-1076h-49v996h-2z" />
    <glyph glyph-name="ushortcyrillic" unicode="&#x45e;" horiz-adv-x="927" 
d="M206 1490h47q0 -93 56.5 -144.5t155.5 -51.5q98 0 154.5 52t56.5 144h47q0 -111 -69 -174t-189 -63q-121 0 -190 63t-69 174zM190 -362q-26 0 -47 9v46q22 -9 52 -9q71 0 115.5 45t90.5 161l35 91l-415 1095h54l387 -1029h2l388 1029h54l-424 -1120q-51 -134 -89.5 -199
t-84 -92t-118.5 -27z" />
    <glyph glyph-name="dzhecyrillic" unicode="&#x45f;" horiz-adv-x="1065" 
d="M935 0h-378v-285h-49v285h-378v1076h49v-1031h707v1031h49v-1076z" />
    <glyph glyph-name="uni0462" unicode="&#x462;" horiz-adv-x="1321" 
d="M398 47h393q192 0 305 101t113 272q0 170 -113.5 271.5t-304.5 101.5h-393v-746zM398 840h397q212 0 338 -113.5t126 -306.5q0 -192 -126 -306t-338 -114h-447v1224h-333v46h333v236h50v-236h492v-46h-492v-384z" />
    <glyph glyph-name="uni0463" unicode="&#x463;" horiz-adv-x="1057" 
d="M331 45h295q142 0 227 79t85 210t-85 209.5t-227 78.5h-295v-577zM331 668h295q165 0 263 -90.5t98 -243.5t-98 -243.5t-263 -90.5h-345v1031h-265v45h265v430h50v-430h488v-45h-488v-363z" />
    <glyph glyph-name="uni0472" unicode="&#x472;" horiz-adv-x="1417" 
d="M709 26q267 0 426 189.5t159 506.5v17q-54 -53 -133.5 -85t-161.5 -32q-75 0 -157 26t-142.5 57t-138 57t-144.5 26q-80 0 -157 -34t-135 -93q16 -292 173 -463.5t411 -171.5zM709 1417q-268 0 -427 -188.5t-159 -506.5v-9q123 121 297 121q71 0 152 -26t142.5 -57
t140 -57t145.5 -26q83 0 165 35.5t127 90.5q-19 287 -175.5 455t-407.5 168zM709 1464q294 0 464.5 -199.5t170.5 -542.5q0 -344 -170 -543.5t-465 -199.5t-465.5 199.5t-170.5 543.5q0 343 170.5 542.5t465.5 199.5z" />
    <glyph glyph-name="uni0473" unicode="&#x473;" horiz-adv-x="1099" 
d="M550 30q193 0 309 139t116 369v2q-79 -73 -217 -73q-64 0 -140 27t-149 54t-129 27q-68 0 -124.5 -21.5t-89.5 -58.5q11 -213 125.5 -339t298.5 -126zM550 1046q-192 0 -307.5 -136.5t-117.5 -364.5q81 75 219 75q62 0 138.5 -27t150 -54t129.5 -27q68 0 124.5 21
t86.5 57q-14 208 -128 332t-295 124zM550 1092q217 0 345.5 -150t128.5 -404q0 -253 -128.5 -403.5t-345.5 -150.5t-346 150t-129 404t128.5 404t346.5 150z" />
    <glyph glyph-name="uni0474" unicode="&#x474;" horiz-adv-x="1415" 
d="M637 0h-51l-556 1443h55l524 -1371h5l444 1163q32 81 56.5 121.5t53.5 60.5q41 30 110 30q68 0 127 -34l-18 -46q-61 27 -110 27q-54 0 -92 -32q-35 -30 -77 -139z" />
    <glyph glyph-name="uni0475" unicode="&#x475;" horiz-adv-x="1103" 
d="M1094 1058l-17 -46q-54 27 -100 27q-48 0 -82 -31q-37 -35 -78 -139l-330 -869h-68l-408 1076h54l386 -1019h5l312 823q55 144 109 181q41 30 100 30q63 0 117 -33z" />
    <glyph glyph-name="uni048A" unicode="&#x48a;" horiz-adv-x="1391" 
d="M880 1771h46q0 -103 -70.5 -160t-187.5 -57t-187.5 57t-70.5 160h46q0 -83 58.5 -130t153.5 -47t153.5 47t58.5 130zM1201 47h179v-11l-104 -321h-48l92 285h-119h-50v47v1311h-5l-962 -1358h-50v1443h50v-1358h5l962 1358h50v-1396z" />
    <glyph glyph-name="uni048B" unicode="&#x48b;" horiz-adv-x="1145" 
d="M776 1490h47q0 -111 -69 -174t-189 -63q-121 0 -190 63t-69 174h47q0 -93 56.5 -144.5t155.5 -51.5q98 0 154.5 52t56.5 144zM955 45h180v-11l-103 -319h-48l91 285h-120h-49v45v951h-2l-725 -996h-49v1076h49v-997h3l724 997h49v-1031z" />
    <glyph glyph-name="uni048C" unicode="&#x48c;" horiz-adv-x="1321" 
d="M398 47h393q192 0 305 101t113 272q0 170 -113.5 271.5t-304.5 101.5h-393v-746zM398 840h397q212 0 338 -113.5t126 -306.5q0 -192 -126 -306t-338 -114h-447v1224h-333v46h333v236h50v-236h492v-46h-492v-384z" />
    <glyph glyph-name="uni048D" unicode="&#x48d;" horiz-adv-x="1057" 
d="M331 45h295q142 0 227 79t85 210t-85 209.5t-227 78.5h-295v-577zM331 668h295q165 0 263 -90.5t98 -243.5t-98 -243.5t-263 -90.5h-345v1031h-265v45h265v430h50v-430h488v-45h-488v-363z" />
    <glyph glyph-name="uni048E" unicode="&#x48e;" horiz-adv-x="1107" 
d="M183 648h395q77 0 143 17l-177 285l38 25l185 -295q108 41 168 129.5t60 212.5q0 173 -112.5 273.5t-304.5 100.5h-395v-748zM133 1443h448q212 0 338 -114t126 -307q0 -137 -65.5 -236t-184.5 -147l181 -290l-44 -30l-186 304q-75 -22 -169 -22h-394v-601h-50v1443z" />
    <glyph glyph-name="uni048F" unicode="&#x48f;" horiz-adv-x="1126" 
d="M599 408l200 -319q95 61 148.5 178t53.5 270q0 227 -113 368t-294 141q-184 0 -299.5 -141.5t-115.5 -366.5t115.5 -366.5t299.5 -141.5q90 0 164 36l-197 317zM176 755h3q35 146 149 241.5t269 95.5q202 0 328 -153.5t126 -400.5q0 -166 -60 -293.5t-166 -195.5
l140 -221l-44 -30l-140 226q-85 -40 -184 -40q-155 0 -269 95t-146 236h-3v-666h-49v1427h46v-321z" />
    <glyph glyph-name="Geupturncyrillic" unicode="&#x490;" horiz-adv-x="1011" 
d="M184 1396v-1396h-50v1443h766v250h49v-297h-765z" />
    <glyph glyph-name="geupturncyrillic" unicode="&#x491;" horiz-adv-x="851" 
d="M799 1031h-620v-1031h-49v1076h621v250h48v-295z" />
    <glyph glyph-name="uni0492" unicode="&#x492;" horiz-adv-x="1072" 
d="M1011 1396h-765v-635h670v-45h-670v-716h-50v716h-121v45h121v682h815v-47z" />
    <glyph glyph-name="uni0493" unicode="&#x493;" horiz-adv-x="879" 
d="M827 1031h-620v-451h448v-45h-448v-535h-49v535h-120v45h120v496h669v-45z" />
    <glyph glyph-name="uni0494" unicode="&#x494;" horiz-adv-x="1115" 
d="M847 1443v-47h-663v-694h9q57 60 154.5 107t232.5 47q209 0 326 -120.5t117 -319.5q0 -186 -102 -306t-275 -120q-82 0 -102 10v47q18 -9 100 -9q143 0 236 104.5t93 273.5q0 179 -106 286t-287 107q-78 0 -149 -20t-120 -50.5t-78.5 -56.5t-48.5 -49v-633h-50v1443h713z
" />
    <glyph glyph-name="uni0495" unicode="&#x495;" horiz-adv-x="963" 
d="M179 457h8q56 63 141 102t186 39q173 0 278.5 -115.5t105.5 -304.5q0 -192 -105 -310.5t-275 -118.5q-72 0 -102 11v46q28 -9 100 -9q147 0 239.5 105.5t92.5 274.5q0 167 -93 271t-242 104q-100 0 -190.5 -45.5t-143.5 -118.5v-388h-49v1076h614v-45h-565v-574z" />
    <glyph glyph-name="uni0496" unicode="&#x496;" horiz-adv-x="1854" 
d="M1688 47h161v-332h-49v285h-63h-74l-756 723h-4v-723h-50v723h-4l-757 -723h-73l779 744l-727 699h72l706 -684h4v684h50v-684h4l706 684h69l-726 -698z" />
    <glyph glyph-name="uni0497" unicode="&#x497;" horiz-adv-x="1420" 
d="M1309 45h106v-330h-49v285h-10h-73l-566 539h-3v-539h-49v539h-2l-566 -539h-70l588 559l-560 517h70l538 -498h2v498h49v-498h3l537 498h70l-559 -515z" />
    <glyph glyph-name="uni0498" unicode="&#x498;" horiz-adv-x="1102" 
d="M669 756v-4q176 -12 274 -109t98 -252q0 -171 -125.5 -286t-336.5 -125v-266h-49v265q-195 4 -326.5 113.5t-141.5 263.5h50q10 -136 133 -233t301 -97q201 0 323 103.5t122 261.5q0 163 -117.5 250t-349.5 87h-166v46h166q192 0 302 89t110 235q0 135 -106 227.5
t-279 92.5q-160 0 -268 -88t-127 -226h-49q19 159 139.5 260t304.5 101q194 0 314.5 -105t120.5 -261q0 -132 -83.5 -223.5t-233.5 -119.5z" />
    <glyph glyph-name="uni0499" unicode="&#x499;" horiz-adv-x="926" 
d="M586 559v-4q113 -12 189 -80.5t76 -186.5q0 -143 -97.5 -223.5t-261.5 -84.5v-265h-49v266q-156 8 -254 87t-124 204h49q25 -107 119 -176.5t243 -69.5q148 0 237 69t89 189q0 122 -91 184.5t-249 62.5h-176v45h176q141 0 222 64.5t81 172.5q0 105 -78.5 168t-210.5 63
q-142 0 -230 -72t-114 -187h-49q27 134 126.5 219.5t265.5 85.5q157 0 248 -75t91 -203q0 -98 -64.5 -166t-163.5 -87z" />
    <glyph glyph-name="uni049A" unicode="&#x49a;" horiz-adv-x="1222" 
d="M1052 47h165v-332h-49v285h-61h-76l-843 723h-4v-723h-50v1443h50v-684h4l792 684h73l-814 -699z" />
    <glyph glyph-name="uni049B" unicode="&#x49b;" horiz-adv-x="961" 
d="M845 45h111v-330h-49v285h-9h-75l-641 539h-3v-539h-49v1076h49v-498h3l612 498h72l-632 -517z" />
    <glyph glyph-name="uni049C" unicode="&#x49c;" horiz-adv-x="1127" 
d="M548 744l560 -744h-64l-543 721h-107v-369h-48v369h-162v-721h-50v1443h50v-681h162v350h48v-350h107l475 681h59z" />
    <glyph glyph-name="uni049D" unicode="&#x49d;" horiz-adv-x="936" 
d="M515 541l410 -541h-62l-394 518h-94v-341h-46v341h-150v-518h-49v1076h49v-515h150v341h46v-341h94l366 515h58z" />
    <glyph glyph-name="uni049E" unicode="&#x49e;" horiz-adv-x="1201" 
d="M302 744l870 -744h-75l-842 721h-6v-721h-50v1241h-184v46h184v156h50v-156h288v-46h-288v-479h6l791 681h73z" />
    <glyph glyph-name="uni049F" unicode="&#x49f;" horiz-adv-x="954" 
d="M410 613l519 -613h-65l-493 583l-161 -142v-441h-49v1282h-138v44h138v180h49v-180h290v-44h-290v-779h2l645 573h70z" />
    <glyph glyph-name="uni04A0" unicode="&#x4a0;" horiz-adv-x="1729" 
d="M832 744l868 -744h-76l-843 723h-4v-723h-50v1396h-704v47h704h50v-47v-637h4l792 684h73z" />
    <glyph glyph-name="uni04A1" unicode="&#x4a1;" horiz-adv-x="1429" 
d="M741 559l664 -559h-75l-641 539h-3v-539h-49v1031h-595v45h595h49v-45v-453h3l612 498h72z" />
    <glyph glyph-name="uni04A2" unicode="&#x4a2;" horiz-adv-x="1385" 
d="M1182 47h189v-332h-49v285h-140h-50v47v671h-948v-718h-50v1443h50v-678h948v678h50v-1396z" />
    <glyph glyph-name="uni04A3" unicode="&#x4a3;" horiz-adv-x="1155" 
d="M945 45h179v-330h-49v285h-130h-49v45v490h-717v-535h-49v1076h49v-496h717v496h49v-1031z" />
    <glyph glyph-name="uni04A4" unicode="&#x4a4;" horiz-adv-x="2009" 
d="M1947 1443v-47h-765v-1396h-50v718h-948v-718h-50v1443h50v-678h948v631v47h50h765z" />
    <glyph glyph-name="uni04A5" unicode="&#x4a5;" horiz-adv-x="1594" 
d="M1542 1076v-45h-597v-1031h-49v535h-717v-535h-49v1076h49v-496h717v496h3h46h597z" />
    <glyph glyph-name="uni04A6" unicode="&#x4a6;" horiz-adv-x="2024" 
d="M134 1443h959v-741h8q57 60 155 107t233 47q208 0 325.5 -120.5t117.5 -319.5q0 -186 -102.5 -306t-274.5 -120q-30 0 -55 2.5t-35.5 4.5t-11.5 3v47q1 -1 11.5 -3t35 -4t53.5 -2q143 0 236 104.5t93 273.5q0 179 -106 286t-288 107q-78 0 -148.5 -19.5t-119.5 -51
t-78.5 -56.5t-48.5 -49v-633h-50v1396h-859v-1396h-50v1443z" />
    <glyph glyph-name="uni04A7" unicode="&#x4a7;" horiz-adv-x="1719" 
d="M130 1076h805v-619h8q57 70 143.5 110.5t183.5 40.5q176 0 279.5 -116.5t103.5 -313.5q0 -192 -104.5 -310.5t-274.5 -118.5q-72 0 -103 11v45q30 -8 101 -8q147 0 239.5 106t92.5 274q0 175 -91.5 280t-243.5 105q-96 0 -188 -48t-146 -126v-388h-49v1031h-707v-1031
h-49v1076z" />
    <glyph glyph-name="uni04A8" unicode="&#x4a8;" horiz-adv-x="1875" 
d="M848 770q0 -205 105 -380.5t278 -276.5q189 93 305 279t116 397q0 202 -113.5 333.5t-288.5 131.5q-173 0 -287.5 -137t-114.5 -347zM1848 95l19 -43q-131 -74 -294 -74q-200 0 -346 82q-173 -81 -388 -81q-358 0 -567 202.5t-209 541.5q0 296 170 500.5t448 241.5v-47
q-254 -38 -410.5 -229t-156.5 -461q0 -318 197.5 -510t528.5 -192q179 0 339 64q-172 111 -276.5 286t-104.5 393q0 237 126 384.5t326 147.5t326 -143t126 -369q0 -214 -116 -406t-306 -296q131 -63 295 -63q156 0 273 71z" />
    <glyph glyph-name="uni04A9" unicode="&#x4a9;" horiz-adv-x="1583" 
d="M727 610q0 -151 86 -284t232 -216q154 79 242 210.5t88 289.5q0 157 -91 257.5t-233 100.5q-139 0 -231.5 -102t-92.5 -256zM1550 51l11 -42q-81 -30 -209 -30q-163 0 -308 77q-155 -76 -351 -76q-284 0 -451 157.5t-167 423.5q0 225 126 379t332 183v-47
q-180 -27 -294 -170t-114 -340q0 -248 156 -394t420 -146q162 0 292 59q-145 90 -230 228.5t-85 296.5q0 178 104.5 291t268.5 113t268.5 -113t104.5 -291q0 -168 -86 -303t-242 -223q131 -60 258 -60q108 0 196 27z" />
    <glyph glyph-name="uni04AA" unicode="&#x4aa;" horiz-adv-x="1323" 
d="M1260 979h-49q-20 184 -167 310.5t-342 126.5q-266 0 -422.5 -184.5t-156.5 -499.5q0 -324 157.5 -514.5t421.5 -190.5q203 0 347 115t162 298h49q-11 -131 -84.5 -235t-193 -163t-264.5 -62l-51 -121q98 0 152 -40t54 -113q0 -74 -60 -120.5t-156 -47.5q-76 0 -122 17
v43q45 -17 121 -17q72 0 121.5 36t49.5 88q0 54 -42.5 83.5t-121.5 29.5h-46v33l54 130q-274 11 -436 213.5t-162 537.5q0 337 169.5 534t459.5 197q215 0 377 -140.5t181 -343.5z" />
    <glyph glyph-name="uni04AB" unicode="&#x4ab;" horiz-adv-x="1039" 
d="M968 760h-50q-26 126 -128.5 206t-245.5 80q-193 0 -306 -137.5t-113 -370.5t112.5 -370t306.5 -137q145 0 246 76t126 200h50q-25 -141 -135 -229.5t-271 -93.5l-52 -125q98 0 152 -40t54 -113q0 -74 -60 -120.5t-156 -47.5q-76 0 -122 17v43q45 -17 121 -17
q72 0 121.5 36t49.5 88q0 54 -42.5 83.5t-121.5 29.5h-46v33l56 134q-203 11 -321 159t-118 394q0 254 127 404t342 150q163 0 280 -93.5t144 -238.5z" />
    <glyph glyph-name="uni04AC" unicode="&#x4ac;" horiz-adv-x="1137" 
d="M1114 1396h-521v-1349h190v-332h-49v285h-141h-49v47v1349h-521v47h1091v-47z" />
    <glyph glyph-name="uni04AD" unicode="&#x4ad;" horiz-adv-x="937" 
d="M897 1031h-404v-986h180v-330h-49v285h-131h-49v45v986h-404v45h857v-45z" />
    <glyph glyph-name="uni04AE" unicode="&#x4ae;" horiz-adv-x="1148" 
d="M600 0h-50v631l-529 812h60l492 -758h4l491 758h59l-527 -812v-631z" />
    <glyph glyph-name="uni04AF" unicode="&#x4af;" horiz-adv-x="907" 
d="M842 1076h54l-418 -1099v-328h-49v328l-418 1099h54l386 -1018h5z" />
    <glyph glyph-name="uni04B0" unicode="&#x4b0;" horiz-adv-x="1148" 
d="M1127 1443l-508 -783h370v-47h-389v-613h-50v613h-389v47h370l-510 783h60l492 -758h4l491 758h59z" />
    <glyph glyph-name="uni04B1" unicode="&#x4b1;" horiz-adv-x="907" 
d="M896 1076l-410 -1077h265v-44h-273v-306h-49v306h-269v44h261l-410 1077h54l386 -1018h5l386 1018h54z" />
    <glyph glyph-name="uni04B2" unicode="&#x4b2;" horiz-adv-x="1292" 
d="M1124 47h163v-332h-49v285h-80h-60l-492 680h-1l-495 -680h-59l524 721v1l-523 721h60l493 -680h1l494 680h59l-523 -721z" />
    <glyph glyph-name="uni04B3" unicode="&#x4b3;" horiz-adv-x="969" 
d="M843 45h121v-330h-49v285h-39h-60l-370 506h-3l-370 -506h-61l403 548l-402 528h62l369 -489h2l369 489h62l-402 -527z" />
    <glyph glyph-name="uni04B4" unicode="&#x4b4;" horiz-adv-x="1737" 
d="M1534 47h190v-332h-49v285h-1169v1396h-483v47h483h50h484v-47h-484v-1349h928v1396h50v-1396z" />
    <glyph glyph-name="uni04B5" unicode="&#x4b5;" horiz-adv-x="1370" 
d="M1160 45h180v-330h-49v285h-935v1031h-316v45h316h49h435v-45h-435v-986h706v1031h49v-1031z" />
    <glyph glyph-name="uni04B6" unicode="&#x4b6;" horiz-adv-x="1253" 
d="M1051 47h189v-332h-49v285h-140h-50v47v685h-3q-58 -56 -163 -100t-243 -44q-223 0 -355 125t-132 337v393h49v-385q0 -198 121 -310.5t317 -112.5q81 0 156 19t125.5 47.5t81 51.5t46.5 41v649h50v-1396z" />
    <glyph glyph-name="uni04B7" unicode="&#x4b7;" horiz-adv-x="1069" 
d="M860 45h179v-330h-49v285h-130h-49v45v485h-8q-52 -51 -131.5 -84.5t-176.5 -33.5q-191 0 -293 104.5t-102 281.5v278h49v-277q0 -156 90.5 -248.5t256.5 -92.5q186 0 315 141v477h49v-1031z" />
    <glyph glyph-name="uni04B8" unicode="&#x4b8;" horiz-adv-x="1185" 
d="M1001 1443h50v-1443h-50v732h-3q-54 -53 -154.5 -97t-232.5 -47v-338h-48v339q-211 8 -334.5 132t-123.5 329v393h49v-385q0 -190 112 -302t297 -120v402h48v-403q77 2 148.5 22t119.5 47.5t77.5 49.5t44.5 40v649z" />
    <glyph glyph-name="uni04B9" unicode="&#x4b9;" horiz-adv-x="990" 
d="M811 1076h49v-1076h-49v530h-8q-50 -49 -127 -82.5t-170 -35.5v-257h-47v258q-174 10 -266.5 113.5t-92.5 271.5v278h49v-277q0 -147 80.5 -238t229.5 -102v364h47v-365q180 4 305 141v477z" />
    <glyph glyph-name="uni04BA" unicode="&#x4ba;" horiz-adv-x="1202" 
d="M134 1443h50v-720h3q27 26 62 50.5t88 51.5t125 43.5t152 16.5q207 0 336.5 -127t129.5 -335v-423h-50v415q0 197 -116.5 310t-299.5 113q-89 0 -168.5 -21.5t-132.5 -54.5t-82.5 -57.5t-46.5 -44.5v-660h-50v1443z" />
    <glyph glyph-name="uni04BB" unicode="&#x4bb;" horiz-adv-x="1083" 
d="M130 0v1506h49v-684h2q35 121 139 195.5t243 74.5q178 0 287.5 -108.5t109.5 -288.5v-695h-49v693q0 163 -97.5 258t-256.5 95q-166 0 -272 -112t-106 -289v-645h-49z" />
    <glyph glyph-name="uni04BC" unicode="&#x4bc;" horiz-adv-x="1594" 
d="M364 801h1115q-1 278 -151 446.5t-397 168.5q-239 0 -392 -166t-175 -449zM1531 754h-1169v-45q0 -308 165 -495t437 -187q165 0 295.5 79.5t189.5 214.5h51q-54 -155 -199.5 -248.5t-336.5 -93.5q-300 0 -476.5 198.5t-176.5 535.5q0 27 1 41h-9q-130 0 -197 61t-67 171
q0 47 11.5 93.5t23.5 69.5l12 23h45l-5 -9q-4 -9 -10.5 -27t-13 -39.5t-11.5 -51t-5 -57.5q0 -89 55.5 -138.5t164.5 -49.5h8q22 305 188 484.5t429 179.5q272 0 436 -183t164 -486v-41z" />
    <glyph glyph-name="uni04BD" unicode="&#x4bd;" horiz-adv-x="1254" 
d="M304 581h825q0 207 -112.5 336t-295.5 129q-180 0 -294 -127.5t-123 -337.5zM332 536v-2h-29q0 -237 116 -370.5t311 -133.5q156 0 257.5 75t126.5 194h51q-28 -140 -144 -227.5t-292 -87.5q-219 0 -347 146.5t-129 405.5q-106 11 -160 68t-54 151q0 45 11.5 89t23.5 66
l12 22h45q-46 -80 -46 -175q0 -74 42.5 -119.5t126.5 -55.5q12 232 139 371t328 139q205 0 331.5 -143t126.5 -375v-38h-847z" />
    <glyph glyph-name="uni04BE" unicode="&#x4be;" horiz-adv-x="1594" 
d="M1078 1556q-22 0 -38 16t-16 38t16 37.5t38 15.5q23 0 39 -15.5t16 -37.5t-16.5 -38t-38.5 -16zM800 1556q-22 0 -38.5 16t-16.5 38t16 37.5t39 15.5q22 0 38 -15.5t16 -37.5t-16 -38t-38 -16zM364 801h1115q-1 278 -151 446.5t-397 168.5q-239 0 -392 -166t-175 -449z
M1531 754h-1169v-45q0 -308 165 -495t437 -187q165 0 295.5 79.5t189.5 214.5h51q-53 -152 -194.5 -245t-326.5 -97v-265h-49v266q-285 11 -452 208.5t-167 524.5q0 27 1 41h-9q-130 0 -197 61t-67 171q0 47 11.5 93.5t23.5 69.5l12 23h45l-5 -9q-4 -9 -10.5 -27t-13 -39.5
t-11.5 -51t-5 -57.5q0 -89 55.5 -138.5t164.5 -49.5h8q22 305 188 484.5t429 179.5q272 0 436 -183t164 -486v-41z" />
    <glyph glyph-name="uni04BF" unicode="&#x4bf;" horiz-adv-x="1254" 
d="M839 1252q-22 0 -38 16t-16 38t16 37.5t38 15.5q23 0 39 -15.5t16 -37.5t-16.5 -38t-38.5 -16zM561 1252q-22 0 -38.5 16t-16.5 38t16 37.5t39 15.5q22 0 38 -15.5t16 -37.5t-16 -38t-38 -16zM304 581h825q0 207 -112.5 336t-295.5 129q-180 0 -294 -127.5t-123 -337.5z
M332 536v-2h-29q0 -237 116 -370.5t311 -133.5q156 0 257.5 75t126.5 194h51q-26 -133 -133.5 -219.5t-271.5 -94.5v-270h-49v269q-211 7 -334 153t-124 399q-106 11 -160 68t-54 151q0 45 11.5 89t23.5 66l12 22h45q-46 -80 -46 -175q0 -74 42.5 -119.5t126.5 -55.5
q12 232 139 371t328 139q205 0 331.5 -143t126.5 -375v-38h-847z" />
    <glyph glyph-name="uni04C0" unicode="&#x4c0;" horiz-adv-x="318" 
d="M184 0h-50v1443h50v-1443z" />
    <glyph glyph-name="uni04C1" unicode="&#x4c1;" horiz-adv-x="1756" 
d="M1087 1771h45q0 -99 -71.5 -158t-185.5 -59t-185.5 59t-71.5 158h45q0 -75 58.5 -125t153.5 -50t153.5 50t58.5 125zM956 745l781 -745h-74l-756 723h-4v-723h-50v723h-4l-757 -723h-73l779 744l-727 699h72l706 -684h4v684h50v-684h4l706 684h69z" />
    <glyph glyph-name="uni04C2" unicode="&#x4c2;" horiz-adv-x="1383" 
d="M902 1490h47q0 -111 -69 -174t-189 -63q-121 0 -190 63t-69 174h47q0 -93 56.5 -144.5t155.5 -51.5q98 0 154.5 52t56.5 144zM765 561l591 -561h-73l-566 539h-3v-539h-49v539h-2l-566 -539h-70l588 559l-560 517h70l538 -498h2v498h49v-498h3l537 498h70z" />
    <glyph glyph-name="uni04C3" unicode="&#x4c3;" horiz-adv-x="1122" 
d="M1043 1443l-763 -684q333 -13 528.5 -186t195.5 -455q0 -216 -124 -355.5t-317 -139.5q-32 0 -52 4v47q24 -4 47 -4q172 0 283.5 126t111.5 321q0 275 -199.5 439t-534.5 164h-35v-720h-50v1443h50v-681h34l754 681h71z" />
    <glyph glyph-name="uni04C4" unicode="&#x4c4;" horiz-adv-x="917" 
d="M357 -297v47q20 -4 57 -4q167 0 282 109.5t115 267.5q0 180 -147 287t-406 107h-79v-517h-49v1076h49v-515h31l584 515h68l-585 -516q276 -3 429.5 -123t153.5 -314q0 -179 -128.5 -301t-318.5 -122q-27 0 -56 3z" />
    <glyph glyph-name="uni04C5" unicode="&#x4c5;" horiz-adv-x="1314" 
d="M1124 47h179v-11l-103 -321h-49l92 285h-119h-50v47v1349h-679l-57 -946q-6 -101 -20.5 -178t-44 -143.5t-80 -102t-120.5 -35.5q-14 0 -27.5 2t-21.5 5l-7 2v47q1 -1 7.5 -3t20 -4t26.5 -2q54 0 94 31t64.5 90t38 131.5t19.5 166.5l60 986h777v-1396z" />
    <glyph glyph-name="uni04C6" unicode="&#x4c6;" horiz-adv-x="1142" 
d="M953 45h179v-11l-102 -319h-49l92 285h-120h-50v45v986h-560q-26 -438 -40 -588q-6 -68 -13 -118t-18.5 -105.5t-28 -93.5t-39 -70.5t-55.5 -48.5t-74 -16q-9 0 -17.5 1t-15 2.5t-11 2.5t-7.5 2l-3 1v47q0 -1 6.5 -3t20 -4t27.5 -2q45 0 77 30.5t52 90.5t31.5 127.5
t19.5 162.5q23 258 42 627h656v-1031z" />
    </font>
</defs>
</svg>
